0
SECTION
2
HEADER
9
$INSUNITS
70
4
9
$ACADVER
1
AC1014
9
$HANDSEED
5
FFFF
0
ENDSEC
0
SECTION
2
TABLES
0
TABLE
2
VPORT
5
8
100
AcDbSymbolTable
0
ENDTAB
0
TABLE
2
LTYPE
5
5
100
AcDbSymbolTable
0
LTYPE
5
14
100
AcDbSymbolTableRecord
100
AcDbLinetypeTableRecord
2
BYBLOCK
70
0
0
LTYPE
5
15
100
AcDbSymbolTableRecord
100
AcDbLinetypeTableRecord
2
BYLAYER
70
0
0
ENDTAB
0
TABLE
2
LAYER
5
2
100
AcDbSymbolTable
70
2
0
LAYER
5
50
100
AcDbSymbolTableRecord
100
AcDbLayerTableRecord
2
0
70
0
6
CONTINUOUS
0
ENDTAB
0
TABLE
2
STYLE
5
3
100
AcDbSymbolTable
70
1
0
STYLE
5
11
100
AcDbSymbolTableRecord
100
AcDbTextStyleTableRecord
2
STANDARD
70
0
0
ENDTAB
0
TABLE
2
VIEW
5
6
100
AcDbSymbolTable
70
0
0
ENDTAB
0
TABLE
2
UCS
5
7
100
AcDbSymbolTable
70
0
0
ENDTAB
0
TABLE
2
APPID
5
9
100
AcDbSymbolTable
70
2
0
APPID
5
12
100
AcDbSymbolTableRecord
100
AcDbRegAppTableRecord
2
ACAD
70
0
0
ENDTAB
0
TABLE
2
DIMSTYLE
5
A
100
AcDbSymbolTable
70
1
0
ENDTAB
0
TABLE
2
BLOCK_RECORD
5
1
100
AcDbSymbolTable
70
1
0
BLOCK_RECORD
5
1F
100
AcDbSymbolTableRecord
100
AcDbBlockTableRecord
2
*MODEL_SPACE
0
BLOCK_RECORD
5
1B
100
AcDbSymbolTableRecord
100
AcDbBlockTableRecord
2
*PAPER_SPACE
0
ENDTAB
0
ENDSEC
0
SECTION
2
BLOCKS
0
BLOCK
5
20
100
AcDbEntity
100
AcDbBlockBegin
2
*MODEL_SPACE
0
ENDBLK
5
21
100
AcDbEntity
100
AcDbBlockEnd
0
BLOCK
5
1C
100
AcDbEntity
100
AcDbBlockBegin
2
*PAPER_SPACE
0
ENDBLK
5
1D
100
AcDbEntity
100
AcDbBlockEnd
0
ENDSEC
0
SECTION
2
ENTITIES
0
LWPOLYLINE
5
100
100
AcDbEntity
8
0
100
AcDbPolyline
90
4
70
1
43
0.0
10
-181.00414677129004
20
18
10
-181.00414677129004
20
13
10
-171.00414677129004
20
13
10
-171.00414677129004
20
18
0
LWPOLYLINE
5
101
100
AcDbEntity
8
0
100
AcDbPolyline
90
4
70
1
43
0.0
10
-212.00000061094761
20
18
10
-212.00000061094761
20
13
10
-202.00000061094761
20
13
10
-202.00000061094761
20
18
0
CIRCLE
5
102
100
AcDbEntity
8
0
100
AcDbCircle
10
-289.49999352917075
20
63.499998580664396
30
0
40
1.4999999664723871
210
0
220
-0
230
1
0
CIRCLE
5
103
100
AcDbEntity
8
0
100
AcDbCircle
10
-319.500004760921
20
126.50000188499689
30
0
40
1.5000000223517418
210
0
220
-0
230
1
0
CIRCLE
5
104
100
AcDbEntity
8
0
100
AcDbCircle
10
-304.50000453740358
20
63.500000946223736
30
0
40
1.5000000223517418
210
0
220
-0
230
1
0
CIRCLE
5
105
100
AcDbEntity
8
0
100
AcDbCircle
10
-289.50000431388617
20
126.50000188499689
30
0
40
1.5000000223517418
210
0
220
-0
230
1
0
CIRCLE
5
106
100
AcDbEntity
8
0
100
AcDbCircle
10
-304.50000453740358
20
126.50000188499689
30
0
40
1.5000000223517418
210
0
220
-0
230
1
0
CIRCLE
5
107
100
AcDbEntity
8
0
100
AcDbCircle
10
-319.500004760921
20
63.500000946223736
30
0
40
1.5000000223517418
210
0
220
-0
230
1
0
LWPOLYLINE
5
108
100
AcDbEntity
8
0
100
AcDbPolyline
90
4
70
1
43
0.0
10
-291.99994003438229
20
116.00000178813934
10
-286.99994003438229
20
116.00000178813934
10
-286.99994003438229
20
121.0000018030405
10
-291.99994003438229
20
121.0000018030405
0
LWPOLYLINE
5
109
100
AcDbEntity
8
0
100
AcDbPolyline
90
4
70
1
43
0.0
10
-291.99994003438229
20
69.000001788139343
10
-286.99994003438229
20
69.000001788139343
10
-286.99994003438229
20
74.000001043081284
10
-291.99994003438229
20
74.000001043081284
0
LWPOLYLINE
5
110
100
AcDbEntity
8
0
100
AcDbPolyline
90
4
70
1
43
0.0
10
-291.99994003438229
20
50.000000834465027
10
-286.99994003438229
20
50.000000834465027
10
-286.99994003438229
20
58.000000923871994
10
-291.99994003438229
20
58.000000923871994
0
LWPOLYLINE
5
111
100
AcDbEntity
8
0
100
AcDbPolyline
90
4
70
1
43
0.0
10
-291.99994003438229
20
132.00000196695328
10
-286.99994003438229
20
132.00000196695328
10
-286.99994003438229
20
140.0000019967556
10
-291.99994003438229
20
140.0000019967556
0
LWPOLYLINE
5
112
100
AcDbEntity
8
0
100
AcDbPolyline
90
4
70
1
43
0.0
10
-306.99994003438229
20
69.000001788139343
10
-301.99994003438229
20
69.000001788139343
10
-301.99994003438229
20
74.000001043081284
10
-306.99994003438229
20
74.000001043081284
0
LWPOLYLINE
5
113
100
AcDbEntity
8
0
100
AcDbPolyline
90
4
70
1
43
0.0
10
-306.99994003438229
20
132.00000196695328
10
-301.99994003438229
20
132.00000196695328
10
-301.99994003438229
20
140.0000019967556
10
-306.99994003438229
20
140.0000019967556
0
LWPOLYLINE
5
114
100
AcDbEntity
8
0
100
AcDbPolyline
90
4
70
1
43
0.0
10
-306.99994003438229
20
116.00000178813934
10
-301.99994003438229
20
116.00000178813934
10
-301.99994003438229
20
121.0000018030405
10
-306.99994003438229
20
121.0000018030405
0
LWPOLYLINE
5
115
100
AcDbEntity
8
0
100
AcDbPolyline
90
4
70
1
43
0.0
10
-306.99994003438229
20
50.000000834465027
10
-301.99994003438229
20
50.000000834465027
10
-301.99994003438229
20
58.000000923871994
10
-306.99994003438229
20
58.000000923871994
0
LWPOLYLINE
5
116
100
AcDbEntity
8
0
100
AcDbPolyline
90
4
70
1
43
0.0
10
-321.99994003438229
20
69.000001788139343
10
-316.99994003438229
20
69.000001788139343
10
-316.99994003438229
20
74.000001043081284
10
-321.99994003438229
20
74.000001043081284
0
LWPOLYLINE
5
117
100
AcDbEntity
8
0
100
AcDbPolyline
90
4
70
1
43
0.0
10
-321.99994003438229
20
116.00000178813934
10
-316.99994003438229
20
116.00000178813934
10
-316.99994003438229
20
121.0000018030405
10
-321.99994003438229
20
121.0000018030405
0
LWPOLYLINE
5
118
100
AcDbEntity
8
0
100
AcDbPolyline
90
4
70
1
43
0.0
10
-321.99994003438229
20
132.00000196695328
10
-316.99994003438229
20
132.00000196695328
10
-316.99994003438229
20
140.0000019967556
10
-321.99994003438229
20
140.0000019967556
0
LWPOLYLINE
5
119
100
AcDbEntity
8
0
100
AcDbPolyline
90
4
70
1
43
0.0
10
-321.99994003438229
20
50.000000834465027
10
-316.99994003438229
20
50.000000834465027
10
-316.99994003438229
20
58.000000923871994
10
-321.99994003438229
20
58.000000923871994
0
LWPOLYLINE
5
120
100
AcDbEntity
8
0
100
AcDbPolyline
90
4
70
1
43
0.0
10
-336.99994003438229
20
50.000000834465027
10
-331.99994003438229
20
50.000000834465027
10
-331.99994003438229
20
58.000000923871994
10
-336.99994003438229
20
58.000000923871994
0
LWPOLYLINE
5
121
100
AcDbEntity
8
0
100
AcDbPolyline
90
4
70
1
43
0.0
10
-336.99994003438229
20
132.00000196695328
10
-331.99994003438229
20
132.00000196695328
10
-331.99994003438229
20
140.0000019967556
10
-336.99994003438229
20
140.0000019967556
0
CIRCLE
5
122
100
AcDbEntity
8
0
100
AcDbCircle
10
-334.49996627886236
20
63.500000201165676
30
0
40
1.5000015872032433
210
0
220
0
230
1
0
CIRCLE
5
123
100
AcDbEntity
8
0
100
AcDbCircle
10
-334.49994003438229
20
126.50000178813934
30
0
40
1.4999999999999858
210
0
220
0
230
1
0
LWPOLYLINE
5
124
100
AcDbEntity
8
0
100
AcDbPolyline
90
4
70
1
43
0.0
10
-336.99994003438229
20
116.00000178813934
10
-331.99994003438229
20
116.00000178813934
10
-331.99994003438229
20
121.0000018030405
10
-336.99994003438229
20
121.0000018030405
0
LWPOLYLINE
5
125
100
AcDbEntity
8
0
100
AcDbPolyline
90
4
70
1
43
0.0
10
-336.99994003438229
20
69.000001788139343
10
-331.99994003438229
20
69.000001788139343
10
-331.99994003438229
20
74.000001043081284
10
-336.99994003438229
20
74.000001043081284
0
LWPOLYLINE
5
126
100
AcDbEntity
8
0
100
AcDbPolyline
90
25
70
1
43
0.0
10
-336.9999400343533
20
-5.5511151231257827e-16
42
-0.41421356237597073
10
-339.99994003435296
20
3.0000000000289972
10
-339.99994003294711
20
147.00551421576208
42
-0.41421356236691059
10
-336.99994003298178
20
150.00551421573209
10
-286.32429148018889
20
150.00551421630544
42
-0.41421356237502704
10
-283.32429148017445
20
147.00551421630587
10
-283.32429148020816
20
109.03271310049459
42
0.41421356237334472
10
-279.32429148020822
20
105.03271310049104
10
-240.26490959763356
20
105.03271310049102
10
-174.72671739435759
20
105.03452454873015
10
-164.73533115970042
20
105.03452454873015
42
-0.41421356237310752
10
-159.73533115970042
20
100.03452454873
10
-159.73533115970039
20
99.352837883622428
42
0.41421356237309509
10
-89.735331159700408
20
29.352837883622414
10
-88.334726261795595
20
29.35283788362436
42
0.39884916155424327
10
-24.406612660484896
20
91.944715168856902
10
-18.410289856554524
20
91.944715168856902
10
-18.410289856554524
20
96.844715168856908
10
-24.410384572724588
20
96.844715168856794
42
0.37400484887692775
10
-82.825673448158938
20
159.01520802246912
42
-0.95086031350500144
10
-82.523983460067001
20
165.00000000032833
10
-2.9999999999880531
20
165.00000000001194
42
-0.41421356237188905
10
8.8817841970012523e-15
20
162.00000000001177
10
-5.5511151231257827e-16
20
3.0000000000000249
42
-0.41421356237309864
10
-3.0000000000000426
20
5.5511151231257847e-16
0
CIRCLE
5
127
100
AcDbEntity
8
0
100
AcDbCircle
10
-244.00000363588333
20
95.000001415610313
30
0
40
1.5000000000000213
210
0
220
0
230
1
0
CIRCLE
5
128
100
AcDbEntity
8
0
100
AcDbCircle
10
-170.0000025331974
20
95.000001415610313
30
0
40
1.4999999999999858
210
0
220
0
230
1
0
CIRCLE
5
129
100
AcDbEntity
8
0
100
AcDbCircle
10
-50.50000075250864
20
15.500000230967999
30
0
40
1.5000000223517418
210
0
220
0
230
1
0
LWPOLYLINE
5
130
100
AcDbEntity
8
0
100
AcDbPolyline
90
4
70
1
43
0.0
10
-30.004146771290028
20
13
10
-30.004146771290028
20
18
10
-40.004146771290024
20
18
10
-40.004146771290024
20
13
0
LWPOLYLINE
5
131
100
AcDbEntity
8
0
100
AcDbPolyline
90
4
70
1
43
0.0
10
-61.000000610947609
20
13
10
-61.000000610947609
20
18
10
-71.000000610947609
20
18
10
-71.000000610947609
20
13
0
LWPOLYLINE
5
132
100
AcDbEntity
8
0
100
AcDbPolyline
90
8
70
1
43
0.0
10
-283.32429148049749
20
78.49369608390306
10
-283.32429148026836
20
41.352865782357419
42
0.41421245798585166
10
-271.32436462548731
20
29.352837883595015
10
-243.97842396770778
20
29.352837883599356
42
0.3126015027886041
10
-178.43824058890138
20
74.766574184716887
42
0.52238860696440736
10
-187.76019718663969
20
88.278813820009873
10
-240.26387894863902
20
88.493696083893951
10
-273.3242914804938
20
88.493696083864563
42
0.41421356237219703
0
ENDSEC
0
SECTION
2
OBJECTS
0
DICTIONARY
5
C
100
AcDbDictionary
3
ACAD_GROUP
350
D
3
ACAD_MLINESTYLE
350
17
0
DICTIONARY
5
D
100
AcDbDictionary
0
DICTIONARY
5
1A
330
C
100
AcDbDictionary
0
DICTIONARY
5
17
100
AcDbDictionary
0
ENDSEC
0
EOF
