**ABCDEFGHIJKLMNOPQRSTUVWXYZabcdefghijklmnopqrstuvwxyz**************************
**PARASOLID !"#$%&'()*+,-./:;<=>?@[\]^_`{|}~0123456789**************************
**PART1;
MC=AMD64;
MC_MODEL=Intel64 Family 6 Model 62 Stepping 4, GenuineIntel;
MC_ID=unknown;
OS=Windows_NT;
OS_RELEASE=unknown;
FRU=Parasolid Version 31.0, build 290,  9- 1-2019;
APPL=SOLIDWORKS 2019-2019304;
SITE=;
USER=unknown;
FORMAT=text;
GUISE=transmit;
KEY=564110_2;
FILE=564110_2.x_t;
DATE=Sun Mar 22 16:19:55 2020;
**PART2;
SCH=SCH_3100290_31001;
USFLD_SIZE=0;
**PART3;
**END_OF_HEADER*****************************************************************
T51 : TRANSMIT FILE created by modeller version 310029023 SCH_3100290_31001_1300
6215 0 12 34 CCCCCCI4 mesh1006 0 I8 polyline1008 0 CCCCCCCDI5 owner1040 0 CCCCCC
I13 boundary_mesh1006 0 I17 boundary_polyline1008 0 CCCA16 index_map_offset0 0 1
 dA9 index_map82 0 A17 node_id_index_map82 0 A20 schema_embedding_map82 0 A5 chi
ld12 0 A14 lowest_node_id0 0 1 dA16 mesh_offset_data206 0 Z1 1135 2 3 0 0 0 0 0
 0 1e3 1e-8 0 4 0 1 0 1 1 5 6 7 8 0 0 9 10 11 0 0 0 0 0 0 0 81 255 2 2 1095 12 1
 13 0 0 0 0 14 70 11 CI9 list_type0 0 1 uI10 notransmit0 0 1 lCCCDCCDI12 finger_
index0 0 1 dI12 finger_block1012 0 CZ3 0 4 T1 0 0 10 20 1 15 15 13 255 5 351 0 1
 0 16 0 0 17 0 51 255 6 334 0 16 18 0 0 +-.00522263123628082 .1178082297971628 -
.005 0 0 1 .0035 1 0 0 30 255 7 350 0 19 20 0 0 +-.00522263123628082 .1213082297
971628 -.005 0 0 1 29 255 8 502 0 11 21 0 -.01513822803468365 .0688832302590771
 0 19 8 CCCCCCCA5 owner12 0 Z9 117 0 1 17 0 22 V0 16 255 10 271 0 ?23 0 24 25 0
 0 1 18 255 11 500 0 26 0 27 8 ?1 17 255 26 0 28 29 30 11 31 32 0 33 -18 27 494
 0 34 11 35 21 ?1 17 34 0 36 37 38 27 39 40 0 41 -18 35 488 0 42 27 43 44 ?1 29
 21 496 0 27 44 8 -.01613822803468365 .0647332302590771 0 29 44 490 0 35 45 21 -
.01513822803468365 .003883229335205075 0 29 45 484 0 43 46 44 -.0161382280346836
5 -.000266770664794927 0 18 43 482 0 47 35 48 45 ?1 29 46 255 0 49 50 45 -.00172
2631236280815 .1178082297971628 0 18 49 222 0 23 51 52 46 ?1 29 50 256 0 52 53 4
6 -.00172263123628056 .0688832302590771 0 18 52 223 0 54 49 55 50 ?1 29 53 259 0
 55 56 50 -.00172263123628056 .0637332302590771 0 18 55 226 0 57 52 58 53 ?1 29
 56 260 0 58 59 53 -.001722631236280555 .003883229335205075 0 18 58 227 0 60 55
 61 56 ?1 29 59 263 0 61 62 56 -.001722631236280555 -.001266770664794926 0 18 61
 230 0 63 58 64 59 ?1 29 62 264 0 64 65 59 -.001722631236280545 -.05031569891338
68 0 18 64 231 0 66 61 67 62 ?1 29 65 265 0 67 68 62 -.00522263123628056 -.05381
56989133868 0 18 67 232 0 69 64 70 65 ?1 29 68 266 0 70 71 65 -.0433386727500627
 -.0538156989133868 0 18 70 233 0 72 67 73 68 ?1 29 71 267 0 73 74 68 -.04658723
8263758 -.0490130776701223 0 18 73 234 0 75 70 76 71 ?1 29 74 268 0 76 77 71 -.0
464994908206109 .116237005792683 0 18 76 235 0 78 73 79 74 ?1 29 77 269 0 79 80
 74 -.04337199100005505 .121308229797163 0 18 79 236 0 81 76 82 77 ?1 29 80 270
 0 82 83 77 -.00522263123628082 .1213082297971628 0 18 82 237 0 84 79 85 80 ?1 2
9 83 116 0 48 86 80 -.001722631236280815 .1178082297971628 -.005 18 48 114 0 87
 43 88 83 ?1 29 86 113 0 88 89 83 -.00172263123628056 .0688832302590771 -.005 18
 88 111 0 90 48 91 86 ?1 29 89 104 0 91 92 86 -.00172263123628056 .0637332302590
771 -.005 18 91 102 0 93 88 94 89 ?1 29 92 101 0 94 95 89 -.001722631236280555 .
003883229335205075 -.005 18 94 99 0 96 91 97 92 ?1 29 95 92 0 97 98 92 -.0017226
31236280555 -.001266770664794926 -.005 18 97 90 0 99 94 100 95 ?1 29 98 89 0 100
 101 95 -.001722631236280545 -.0503156989133868 -.005 18 100 87 0 102 97 103 98
 ?1 29 101 86 0 103 104 98 -.00522263123628056 -.0538156989133868 -.005 18 103 8
4 0 105 100 106 101 ?1 29 104 83 0 106 107 101 -.0433386727500627 -.053815698913
3868 -.005 18 106 81 0 108 103 109 104 ?1 29 107 80 0 109 110 104 -.046587238263
758 -.0490130776701223 -.005 18 109 78 0 111 106 112 107 ?1 29 110 77 0 112 113
 107 -.0464994908206109 .116237005792683 -.005 18 112 75 0 114 109 115 110 ?1 29
 113 74 0 115 116 110 -.04337199100005505 .121308229797163 -.005 18 115 72 0 117
 112 51 113 ?1 29 116 71 0 51 118 113 -.00522263123628082 .1213082297971628 -.00
5 18 51 69 0 119 115 49 116 ?1 29 118 836 0 120 121 116 -.01613822803468365 -.00
02667706647949245 -.005 18 120 751 0 122 123 124 118 ?1 29 121 838 0 124 125 118
 -.01513822803468365 -.001266770664794926 -.005 18 124 748 0 126 120 127 121 ?1
 29 125 839 0 127 128 121 -.01513822803468365 -.001266770664794926 0 18 127 750
 0 129 124 0 125 ?1 29 128 842 0 130 131 125 -.01513822803468365 .00388322933520
5075 -.005 18 130 714 0 132 133 134 128 ?1 29 131 844 0 134 135 128 -.0161382280
3468365 .002883229335205075 -.005 18 134 711 0 136 130 123 131 ?1 29 135 845 0 1
23 137 131 -.01613822803468365 .002883229335205075 0 18 123 713 0 138 134 120 13
5 ?1 29 137 848 0 139 140 135 -.01613822803468365 .0647332302590771 -.005 18 139
 677 0 38 141 142 137 ?1 29 140 850 0 142 143 137 -.01513822803468365 .063733230
2590771 -.005 18 142 674 0 144 139 133 140 ?1 29 143 851 0 133 145 140 -.0151382
2803468365 .0637332302590771 0 18 133 676 0 37 142 130 143 ?1 29 145 854 0 85 14
6 143 -.01513822803468365 .0688832302590771 -.005 18 85 640 0 30 82 147 145 ?1 2
9 146 856 0 147 148 145 -.01613822803468365 .0678832302590771 -.005 18 147 637 0
 149 85 141 146 ?1 29 148 857 0 141 0 146 -.01613822803468365 .0678832302590771
 0 18 141 639 0 29 147 139 148 ?1 17 29 0 28 149 26 141 33 150 0 151 +15 255 28
 644 0 29 152 0 17 149 0 28 30 29 147 151 153 0 154 -17 33 0 155 54 156 11 29 15
0 0 157 -16 150 628 0 ?29 158 32 159 0 0 1 17 151 0 160 161 162 141 149 153 0 15
6 +15 160 612 0 151 163 0 17 161 0 160 39 151 27 156 164 0 0 -17 162 0 160 151 3
9 147 165 166 0 0 +16 153 625 0 ?151 32 167 168 0 0 1 17 156 0 155 33 41 141 161
 164 0 0 +15 155 522 0 33 169 0 17 41 0 155 156 170 27 37 171 0 161 -16 164 495
 0 ?156 172 173 174 0 0 1 16 172 501 0 ?54 175 164 176 0 0 1 16 173 170 0 ?170 1
64 177 178 0 0 1 30 174 241 0 164 178 176 0 +-.01613822803468365 .06888323025907
71 0 0 1 0 30 178 242 0 173 179 174 0 +-.01613822803468365 .0637332302590771 0 -
1 962692561528344e-30 0 30 176 240 0 172 174 180 0 +-.00172263123628056 .0688832
302590771 0 1 0 0 30 180 239 0 175 176 25 0 +-.001722631236280815 .1178082297971
628 0 -523430874928723e-29 1 0 16 175 158 0 ?181 182 172 180 0 0 1 30 25 335 0 1
0 180 183 0 +-.001722631236280815 .1178082297971628 -.005 0 0 1 30 183 336 0 24
 25 184 0 +-.00172263123628056 .0688832302590771 -.005 0 0 1 16 24 272 0 ?185 10
 186 183 0 0 1 30 184 339 0 186 183 187 0 +-.00172263123628056 .0637332302590771
 -.005 0 0 1 16 186 275 0 ?57 24 188 184 0 0 1 30 187 340 0 188 184 189 0 +-.001
722631236280555 .003883229335205075 -.005 0 0 1 16 188 276 0 ?190 186 191 187 0
 0 1 30 189 343 0 191 187 192 0 +-.001722631236280555 -.001266770664794926 -.005
 0 0 1 16 191 279 0 ?63 188 193 189 0 0 1 30 192 344 0 193 189 194 0 +-.00172263
1236280545 -.0503156989133868 -.005 0 0 1 16 193 280 0 ?66 191 195 192 0 0 1 30
 194 345 0 195 192 196 0 +-.00522263123628056 -.0538156989133868 -.005 0 0 1 16
 195 281 0 ?69 193 197 194 0 0 1 30 196 346 0 197 194 198 0 +-.0433386727500627
 -.0538156989133868 -.005 0 0 1 16 197 282 0 ?72 195 199 196 0 0 1 30 198 347 0
 199 196 200 0 +-.046587238263758 -.0490130776701223 -.005 0 0 1 16 199 283 0 ?7
5 197 201 198 0 0 1 30 200 348 0 201 198 20 0 +-.0464994908206109 .1162370057926
83 -.005 0 0 1 16 201 284 0 ?78 199 202 200 0 0 1 30 20 349 0 202 200 7 0 +-.043
37199100005505 .121308229797163 -.005 0 0 1 16 202 285 0 ?81 201 19 20 0 0 1 17
 81 0 203 204 205 79 117 202 0 206 +16 19 286 0 ?84 202 207 7 0 0 1 17 84 0 208
 209 210 82 119 19 0 204 +16 207 65 0 ?211 19 212 213 0 0 1 17 211 0 214 23 215
 48 216 207 0 0 +16 212 528 0 ?90 207 166 217 0 0 1 30 213 67 0 207 217 218 0 +-
.001722631236280815 .1178082297971628 -.005 -523430874928723e-29 1 0 30 217 63 0
 212 219 213 0 +-.00172263123628056 .0688832302590771 -.005 1 0 0 31 255 218 254
 0 220 213 221 0 +-.00522263123628082 .1178082297971628 0 0 0 1 1 0 0 .0035 16 2
20 218 0 ?222 223 158 218 0 0 1 30 221 253 0 223 218 224 0 +-.04337199100005505
 .121308229797163 0 -1 654795210424121e-29 0 16 223 214 0 ?225 226 220 221 0 0 1
 31 224 252 0 226 221 227 0 +-.04337199100005505 .1178082297971796 0 0 0 1 1 0 0
 .00349999999998338 16 226 210 0 ?228 229 223 224 0 0 1 31 227 251 0 229 224 230
 0 +-.210789903212151 .03369917862427505 0 0 0 -1 1 0 0 .1838581858864715 16 229
 206 0 ?231 232 226 227 0 0 1 31 230 250 0 232 227 233 0 +-.0433386727500628 -.0
503156989133687 0 0 0 1 1 0 0 .00350000000001808 16 232 202 0 ?234 235 229 230 0
 0 1 30 233 249 0 235 230 236 0 +-.00522263123628056 -.0538156989133868 0 1 0 0
 16 235 198 0 ?237 238 232 233 0 0 1 31 236 248 0 238 233 239 0 +-.0052226312362
8056 -.0503156989133868 0 0 0 1 1 0 0 .0035 16 238 194 0 ?240 241 235 236 0 0 1
 30 239 247 0 241 236 242 0 +-.001722631236280555 -.001266770664794926 0 -114943
414631827e-30 1 0 16 241 190 0 ?243 244 238 239 0 0 1 30 242 246 0 244 239 245 0
 +-.01613822803468365 -.001266770664794926 0 -1 -1504207127388035e-32 0 16 244 1
86 0 ?246 247 241 242 0 0 1 30 245 245 0 247 242 248 0 +-.01613822803468365 .003
883229335205075 0 0 1 0 16 247 483 0 ?249 250 244 245 0 0 1 30 248 244 0 250 245
 179 0 +-.001722631236280555 .003883229335205075 0 1 120336570191043e-30 0 16 25
0 489 0 ?60 177 247 248 0 0 1 30 179 243 0 177 248 178 0 +-.00172263123628056 .0
637332302590771 0 -1123150102864734e-31 1 0 16 177 174 0 ?251 173 250 179 0 0 1
 17 251 0 155 170 60 55 252 177 0 0 +17 170 0 155 41 251 133 253 173 0 0 +17 60
 0 155 251 254 58 255 250 0 190 +17 252 0 256 257 57 58 251 177 0 0 -15 256 295
 0 252 258 0 17 257 0 256 259 252 94 190 188 0 260 -17 57 0 256 252 259 55 93 18
6 0 253 +17 259 0 256 57 257 91 260 261 0 0 +17 93 0 262 263 253 91 57 186 0 264
 -17 253 0 262 93 265 55 170 173 0 251 -15 262 600 0 265 266 0 17 265 0 262 253
 263 133 144 267 0 170 +17 263 0 262 265 93 142 264 268 0 0 +17 144 0 36 38 37 1
42 265 267 0 269 -16 267 662 0 ?265 40 270 271 0 0 1 16 40 661 0 ?39 171 267 272
 0 0 1 16 270 708 0 ?132 267 273 274 0 0 1 30 271 821 0 267 275 272 0 +-.0151382
2803468365 .0637332302590771 -.005001 0 0 1 31 275 826 0 158 159 271 0 --.016138
22803468365 .0688832302590771 -.005 0 0 1 1 0 0 .001 30 272 820 0 40 271 276 0 -
-.01613822803468365 .0647332302590771 -.005001 0 0 1 31 276 819 0 171 272 277 0
 +-.01613822803468365 .0637332302590771 0 0 0 1 1 0 0 .001 16 171 665 0 ?37 167
 40 276 0 0 1 31 277 817 0 167 276 278 0 --.01613822803468365 .0637332302590771
 -.005 0 0 1 1 0 0 .001 16 167 671 0 ?38 153 171 277 0 0 1 30 278 812 0 279 277
 280 0 +-.01613822803468365 .002883229335205075 -.005001 0 0 1 16 279 699 0 ?281
 282 283 278 0 0 1 30 280 811 0 282 278 284 0 --.01513822803468365 .003883229335
205075 -.005001 0 0 1 16 282 698 0 ?285 273 279 280 0 0 1 31 284 810 0 273 280 2
74 0 +-.01613822803468365 .003883229335205075 0 0 0 1 1 0 0 .001 16 273 702 0 ?1
38 270 282 284 0 0 1 31 274 808 0 270 284 286 0 --.01613822803468365 .0038832293
35205075 -.005 0 0 1 1 0 0 .001 30 286 803 0 287 274 288 0 +-.01513822803468365
 -.001266770664794926 -.005001 0 0 1 16 287 736 0 ?289 290 0 286 0 0 1 30 288 80
2 0 290 286 291 0 --.01613822803468365 -.0002667706647949245 -.005001 0 0 1 16 2
90 735 0 ?292 293 287 288 0 0 1 31 291 801 0 293 288 294 0 +-.01613822803468365
 -.001266770664794926 0 0 0 1 1 0 0 .001 16 293 739 0 ?129 283 290 291 0 0 1 31
 294 799 0 283 291 295 0 --.01613822803468365 -.001266770664794926 -.005 0 0 1 1
 0 0 .001 16 283 745 0 ?122 279 293 294 0 0 1 31 295 7 0 182 294 296 0 +-.005222
63123628082 .1178082297971628 -.005 0 0 1 1 0 0 .0035 16 182 5 0 ?210 297 175 29
5 0 0 1 30 296 11 0 297 295 298 0 +-.04337199100005505 .121308229797163 -.005 -1
 654795210424121e-29 0 16 297 9 0 ?205 299 182 296 0 0 1 31 298 15 0 299 296 300
 0 +-.04337199100005505 .1178082297971796 -.005 0 0 1 1 0 0 .00349999999998338 1
6 299 13 0 ?301 302 297 298 0 0 1 31 300 19 0 302 298 303 0 +-.210789903212151 .
03369917862427505 -.005 0 0 -1 1 0 0 .1838581858864715 16 302 17 0 ?304 305 299
 300 0 0 1 31 303 23 0 305 300 306 0 +-.0433386727500628 -.0503156989133687 -.00
5 0 0 1 1 0 0 .00350000000001808 16 305 21 0 ?307 308 302 303 0 0 1 30 306 27 0
 308 303 309 0 +-.00522263123628056 -.0538156989133868 -.005 1 0 0 16 308 25 0 ?
310 311 305 306 0 0 1 31 309 31 0 311 306 312 0 +-.00522263123628056 -.050315698
9133868 -.005 0 0 1 1 0 0 .0035 16 311 29 0 ?313 314 308 309 0 0 1 30 312 35 0 3
14 309 315 0 +-.001722631236280555 -.001266770664794926 -.005 -114943414631827e-
30 1 0 16 314 33 0 ?316 317 311 312 0 0 1 30 315 39 0 317 312 318 0 +-.016138228
03468365 -.001266770664794926 -.005 -1 -1504207127388035e-32 0 16 317 37 0 ?319
 320 314 315 0 0 1 30 318 43 0 320 315 321 0 +-.01613822803468365 .0038832293352
05075 -.005 0 1 0 16 320 543 0 ?322 323 317 318 0 0 1 30 321 47 0 323 318 324 0
 +-.001722631236280555 .003883229335205075 -.005 1 120336570191043e-30 0 16 323
 540 0 ?96 261 320 321 0 0 1 30 324 51 0 261 321 325 0 +-.00172263123628056 .063
7332302590771 -.005 -1123150102864734e-31 1 0 16 261 49 0 ?259 268 323 324 0 0 1
 30 325 55 0 268 324 219 0 +-.01613822803468365 .0637332302590771 -.005 -1 96269
2561528344e-30 0 16 268 53 0 ?263 166 261 325 0 0 1 30 219 59 0 166 325 217 0 +-
.01613822803468365 .0688832302590771 -.005 0 1 0 16 166 531 0 ?162 212 268 219 0
 0 1 17 96 0 326 190 285 94 327 323 0 257 +15 326 594 0 285 328 0 17 190 0 326 2
55 96 58 257 188 0 252 +17 285 0 326 96 255 130 42 282 0 327 +17 327 0 329 330 2
60 130 96 323 0 0 -15 329 4 0 331 332 0 17 330 0 329 333 327 134 132 270 0 322 -
17 260 0 329 327 264 94 259 261 0 0 -17 264 0 329 260 269 91 263 268 0 259 -17 2
69 0 329 264 165 142 38 167 0 263 -17 165 0 329 269 154 139 162 166 0 0 -17 38 0
 36 34 144 139 269 167 0 39 +15 36 681 0 37 334 0 17 39 0 160 162 161 139 34 40
 0 165 +17 37 0 36 144 34 133 41 171 0 265 +14 255 334 678 335 ?152 336 36 5 337
 -0 0 152 336 22 81 1 335 1096 338 334 339 0 0 340 341 14 152 641 340 ?0 334 28
 5 342 -0 0 0 334 22 14 336 715 343 ?334 344 345 5 346 -0 0 334 344 22 51 337 78
9 0 334 342 346 0 +-.01613822803468365 .0637332302590771 -.005001 0 0 1 .001 1 0
 0 13 22 118 0 0 0 0 0 0 9 16 14 16 318 347 ?348 0 208 5 6 +0 0 348 0 22 81 1 34
7 1100 338 16 349 0 343 350 351 14 348 288 350 ?352 16 214 5 353 +0 0 352 16 22
 15 208 317 0 209 16 0 17 209 0 208 87 84 49 222 220 0 181 -17 87 0 208 210 209
 48 23 10 0 354 -17 222 0 155 225 181 82 209 220 0 0 +17 181 0 155 222 54 49 355
 175 0 0 +17 54 0 155 181 33 52 157 172 0 185 +17 355 0 214 215 23 52 181 175 0
 0 -15 214 287 0 355 348 0 17 215 0 214 211 355 88 185 24 0 216 -17 23 0 214 355
 211 49 87 10 0 209 +17 185 0 356 157 90 52 215 24 0 355 +17 216 0 329 331 354 8
8 211 207 0 0 -17 331 0 329 154 216 85 90 212 0 0 -17 354 0 329 216 357 48 210 1
82 0 211 -17 357 0 329 354 358 51 205 297 0 210 -17 210 0 208 84 87 51 354 182 0
 0 +17 358 0 329 357 359 115 301 299 0 205 -17 205 0 203 81 119 115 357 297 0 0
 +15 203 315 0 204 360 0 17 119 0 203 205 204 51 84 19 0 357 -17 204 0 203 119 8
1 82 225 223 0 222 -17 225 0 155 228 222 79 204 223 0 0 +17 228 0 155 231 225 76
 206 226 0 0 +17 231 0 155 234 228 73 361 229 0 0 +17 206 0 362 117 78 79 228 22
6 0 225 -15 362 313 0 206 363 0 17 117 0 362 301 206 115 81 202 0 358 -17 78 0 3
62 206 301 76 114 201 0 361 +17 301 0 362 78 117 112 358 299 0 0 +17 114 0 364 3
04 361 112 78 201 0 359 -17 361 0 364 114 75 76 231 229 0 228 -15 364 311 0 361
 365 0 17 75 0 364 361 304 73 111 199 0 366 +17 304 0 364 75 114 109 359 302 0 0
 +17 111 0 367 307 366 109 75 199 0 368 -17 366 0 367 111 72 73 234 232 0 231 -1
5 367 309 0 366 369 0 17 72 0 367 366 307 70 108 197 0 370 +17 234 0 155 237 231
 70 366 232 0 0 +17 237 0 155 240 234 67 370 235 0 0 +17 240 0 155 243 237 64 37
1 238 0 0 +17 370 0 372 108 69 70 237 235 0 234 -15 372 307 0 370 373 0 17 108 0
 372 310 370 106 72 197 0 374 -17 69 0 372 370 310 67 105 195 0 371 +17 310 0 37
2 69 108 103 374 308 0 0 +17 105 0 375 313 371 103 69 195 0 376 -17 371 0 375 10
5 66 67 240 238 0 237 -15 375 305 0 371 377 0 17 66 0 375 371 313 64 102 193 0 3
78 +17 313 0 375 66 105 100 376 311 0 0 +17 102 0 379 316 378 100 66 193 0 380 -
17 378 0 379 102 63 64 243 241 0 240 -15 379 303 0 378 381 0 17 63 0 379 378 316
 61 99 191 0 382 +17 243 0 155 246 240 61 378 241 0 0 +17 246 0 155 383 243 127
 382 244 0 0 +17 383 0 155 249 246 43 129 293 0 384 -17 382 0 385 99 289 61 246
 244 0 243 -15 385 576 0 289 386 0 17 99 0 385 319 382 97 63 191 0 387 -17 289 0
 385 382 319 127 126 287 0 246 +17 319 0 385 289 99 124 387 317 0 0 +17 126 0 38
8 122 129 124 289 287 0 389 -15 388 755 0 129 344 0 17 122 0 388 47 126 120 389
 283 0 292 +17 129 0 388 126 47 127 383 293 0 289 +17 389 0 329 387 333 124 122
 283 0 319 -17 387 0 329 380 389 97 319 317 0 316 -17 333 0 329 389 330 120 322
 320 0 0 -17 322 0 390 281 292 134 333 320 0 0 +15 390 588 0 281 391 0 17 281 0
 390 384 322 123 136 279 0 249 +17 292 0 390 322 384 120 47 290 0 333 +17 384 0
 390 292 281 43 249 247 0 0 -17 47 0 388 129 122 43 292 290 0 383 -17 249 0 155
 254 383 123 384 247 0 0 +17 254 0 155 60 249 35 138 273 0 255 -17 138 0 345 136
 42 123 254 273 0 281 +17 255 0 326 285 190 35 60 250 0 0 -15 345 718 0 138 336
 0 17 136 0 345 132 138 134 281 279 0 330 -17 42 0 345 138 132 35 285 282 0 254
 -17 132 0 345 42 136 130 330 270 0 285 +14 391 300 392 ?386 328 390 5 393 +0 0
 386 328 22 81 1 392 1104 338 391 394 0 350 395 396 14 386 302 395 ?381 391 385
 5 397 +0 0 381 391 22 14 328 298 398 ?391 258 326 5 399 +0 0 391 258 22 50 255
 393 325 0 391 399 397 0 +-.01613822803468365 .003883229335205075 -.005 1 0 0 0
 0 -1 50 399 324 0 328 400 393 0 +-.001722631236280555 .003883229335205075 -.005
 120336570191043e-30 -1 0 1 120336570191043e-30 0 50 397 326 0 386 393 401 0 +-.
01613822803468365 -.001266770664794926 -.005 -1504207127388035e-32 1 0 -1 -15042
07127388035e-32 0 50 401 327 0 381 397 402 0 +-.001722631236280555 -.00126677066
4794926 -.005 1 114943414631827e-30 0 -114943414631827e-30 1 0 14 381 304 403 ?3
77 386 379 5 401 +0 0 377 386 22 51 402 328 0 377 401 404 0 +-.00522263123628056
 -.0503156989133868 -.005 0 0 1 .0035 1 0 0 14 377 306 405 ?373 381 375 5 402 +0
 0 373 381 22 50 404 329 0 373 402 406 0 +-.00522263123628056 -.0538156989133868
 -.005 0 -1 0 0 0 -1 14 373 308 407 ?369 377 372 5 404 +0 0 369 377 22 51 406 33
0 0 369 404 408 0 +-.0433386727500628 -.0503156989133687 -.005 0 0 1 .0035000000
0001808 1 0 0 14 369 310 409 ?365 373 367 5 406 +0 0 365 373 22 51 408 331 0 365
 406 410 0 --.210789903212151 .03369917862427505 -.005 0 0 1 .1838581858864715 1
 0 0 14 365 312 411 ?363 369 364 5 408 +0 0 363 369 22 51 410 332 0 363 408 18 0
 +-.04337199100005505 .1178082297971796 -.005 0 0 1 .00349999999998338 1 0 0 14
 363 314 412 ?360 365 362 5 410 +0 0 360 365 22 50 18 333 0 360 410 6 0 +-.04337
199100005505 .121308229797163 -.005 654795210424121e-29 1 0 -1 654795210424121e-
29 0 14 360 316 413 ?332 363 203 5 18 +0 0 332 363 22 81 1 413 1122 338 360 414
 0 412 415 416 14 332 1 415 ?169 360 329 5 417 -0 0 169 360 22 81 1 415 1124 338
 332 418 0 413 419 420 14 169 156 419 ?344 332 155 5 421 +0 0 344 332 22 50 417
 3 0 332 422 421 0 +-.00522263123628082 .1178082297971628 -.005 0 0 1 1 0 0 51 4
22 779 0 344 346 417 0 +-.01613822803468365 -.001266770664794926 -.005001 0 0 1
 .001 1 0 0 50 421 238 0 169 417 353 0 +-.00522263123628082 .1178082297971628 0
 0 0 1 1 0 0 50 353 319 0 348 421 423 0 +-.001722631236280815 .1178082297971628
 -.005 1 523430874928724e-29 0 -523430874928724e-29 1 0 50 423 320 0 352 353 424
 0 +-.00172263123628056 .0688832302590771 -.005 0 -1 0 0 0 -1 14 352 290 425 ?16
3 348 356 5 423 +0 0 163 348 22 50 424 321 0 163 423 426 0 +-.01613822803468365
 .0688832302590771 -.005 1 0 0 0 0 -1 14 163 292 427 ?266 352 160 5 424 +0 0 266
 352 22 50 426 322 0 266 424 400 0 +-.01613822803468365 .0637332302590771 -.005
 962692561528344e-30 1 0 -1 962692561528344e-30 0 14 266 294 428 ?258 163 262 5
 426 +0 0 258 163 22 50 400 323 0 258 426 399 0 +-.00172263123628056 .0637332302
590771 -.005 1 1123150102864734e-31 0 -1123150102864734e-31 1 0 14 258 296 429 ?
328 266 256 5 400 +0 0 328 266 22 81 1 429 1134 338 258 430 0 428 431 432 80 255
 1 338 433 434 9000 1 1 1 1 1 1 1 1 0 FFFFTFTFFFFFFF1 81 3 430 1133 435 258 436
 429 437 0 438 0 0 81 1 428 1132 338 266 437 0 427 429 439 81 1 431 1135 338 344
 440 0 429 0 441 82 255 1 432 1865285836 14 344 752 431 ?336 169 388 5 422 -0 0
 336 169 22 81 1 440 1027 442 344 0 431 443 444 445 82 1 441 -840302382 80 1 442
 0 446 8001 0 0 0 0 3 5 0 0 0 FFFFTFTFFFFFFF2 81 1 443 1026 442 169 0 447 448 44
0 449 81 1 444 1028 442 336 0 343 440 339 450 83 255 3 445 .752941176470588 .752
941176470588 .752941176470588 81 1 343 1098 338 336 444 0 340 347 451 81 1 339 1
029 442 334 0 335 444 452 453 83 3 450 .752941176470588 .752941176470588 .752941
176470588 81 1 452 1030 442 152 0 340 339 0 454 83 3 453 .752941176470588 .75294
1176470588 .752941176470588 81 1 340 1097 338 152 452 0 335 343 455 83 3 454 .75
2941176470588 .752941176470588 .752941176470588 82 1 455 -852164398 82 1 451 -84
4234542 81 3 447 1125 435 169 443 419 418 456 457 0 0 81 1 448 1025 442 332 0 41
8 458 443 459 83 3 449 .752941176470588 .752941176470588 .752941176470588 81 3 4
18 1123 435 332 448 415 414 447 460 0 0 81 1 458 1024 442 360 0 414 461 448 462
 83 3 459 .752941176470588 .752941176470588 .752941176470588 81 3 414 1121 435 3
60 458 413 463 418 464 0 0 81 1 461 1023 442 363 0 463 465 458 466 83 3 462 .752
941176470588 .752941176470588 .752941176470588 81 3 463 1119 435 363 461 412 467
 414 468 0 0 81 1 465 1022 442 365 0 467 469 461 470 83 3 466 .752941176470588 .
752941176470588 .752941176470588 81 3 467 1117 435 365 465 411 471 463 472 0 0 8
1 1 469 1021 442 369 0 471 473 465 474 83 3 470 .752941176470588 .75294117647058
8 .752941176470588 81 3 471 1115 435 369 469 409 475 467 476 0 0 81 1 473 1020 4
42 373 0 475 477 469 478 83 3 474 .752941176470588 .752941176470588 .75294117647
0588 81 3 475 1113 435 373 473 407 479 471 480 0 0 81 1 477 1019 442 377 0 479 4
81 473 482 83 3 478 .752941176470588 .752941176470588 .752941176470588 81 3 479
 1111 435 377 477 405 483 475 484 0 0 81 1 481 1018 442 381 0 483 485 477 486 83
 3 482 .752941176470588 .752941176470588 .752941176470588 81 3 483 1109 435 381
 481 403 487 479 488 0 0 81 1 485 1017 442 386 0 489 490 481 491 83 3 486 .75294
1176470588 .752941176470588 .752941176470588 81 3 489 1105 435 386 485 395 394 4
87 492 0 0 81 1 490 1016 442 391 0 394 493 485 494 83 3 491 .752941176470588 .75
2941176470588 .752941176470588 81 3 394 1103 435 391 490 392 495 489 496 0 0 81
 1 493 1015 442 328 0 487 436 490 497 83 3 494 .752941176470588 .752941176470588
 .752941176470588 81 3 487 1107 435 328 493 398 489 483 498 0 0 81 1 436 1014 44
2 258 0 430 499 493 500 83 3 497 .752941176470588 .752941176470588 .752941176470
588 81 1 499 1013 442 266 0 437 501 436 502 83 3 500 .752941176470588 .752941176
470588 .752941176470588 81 3 437 1131 435 266 499 428 503 430 504 0 0 81 1 501 1
012 442 163 0 503 505 499 506 83 3 502 .752941176470588 .752941176470588 .752941
176470588 81 3 503 1129 435 163 501 427 456 437 507 0 0 81 1 505 1011 442 352 0
 456 508 501 509 83 3 506 .752941176470588 .752941176470588 .752941176470588 81
 3 456 1127 435 352 505 425 447 503 510 0 0 81 1 508 1010 442 348 0 495 511 505
 512 83 3 509 .752941176470588 .752941176470588 .752941176470588 81 3 495 1101 4
35 348 508 350 349 394 513 0 0 81 1 511 1009 442 16 0 349 0 508 514 83 3 512 .75
2941176470588 .752941176470588 .752941176470588 81 3 349 1099 435 16 511 347 0 4
95 515 0 0 83 3 514 .752941176470588 .752941176470588 .752941176470588 80 3 435
 516 517 9000 0 0 0 0 3 6 0 0 0 FFTTTTTTFFFFTT1 1 1 82 3 515 738924 4 0 79 255 1
2 517 GENERIC_PERM81 1 350 1102 338 348 495 0 347 392 518 82 3 513 738924 4 0 82
 1 518 1864761548 81 1 425 1128 338 352 456 0 419 427 519 82 3 510 738924 4 0 81
 1 419 1126 338 169 447 0 415 425 520 81 1 427 1130 338 163 503 0 425 428 521 82
 1 519 1864892626 82 1 521 1865023698 82 1 520 1861484754 82 3 507 738924 4 0 82
 3 504 738924 4 0 81 1 398 1108 338 328 487 0 395 403 522 82 3 498 738924 4 0 81
 1 395 1106 338 386 489 0 392 398 523 81 1 403 1110 338 381 483 0 398 405 524 82
 1 522 1865416914 81 1 405 1112 338 377 479 0 403 407 525 82 1 524 1865810124 81
 1 407 1114 338 373 475 0 405 409 526 82 1 525 1865941196 81 1 409 1116 338 369
 471 0 407 411 527 82 1 526 1866072268 81 1 411 1118 338 365 467 0 409 412 528 8
2 1 527 1866203340 81 1 412 1120 338 363 463 0 411 413 529 82 1 528 1866334412 8
2 1 529 1866465484 82 1 523 1865679058 82 3 496 738924 4 0 82 3 492 738924 4 0 8
2 3 488 738924 4 0 82 3 484 738924 4 0 82 3 480 738924 4 0 82 3 476 738924 4 0 8
2 3 472 738924 4 0 82 3 468 738924 4 0 82 3 464 738924 4 0 82 3 460 738924 2 0 8
2 3 457 738924 3 0 79 15 446 SDL/TYSA_COLOUR82 1 439 1865154770 82 3 438 738924
 4 0 79 14 434 SWEntUnchanged15 356 618 0 31 352 0 17 31 0 356 90 157 85 26 32 0
 331 +17 90 0 356 185 31 88 331 212 0 215 +17 157 0 356 31 185 11 54 172 0 0 -16
 32 624 0 ?31 150 153 530 0 0 1 30 530 829 0 32 168 159 0 --.01513822803468365 .
0688832302590771 -.005001 0 0 1 30 168 830 0 153 0 530 0 +-.01613822803468365 .0
678832302590771 -.005001 0 0 1 31 159 828 0 150 530 275 0 +-.01613822803468365 .
0688832302590771 0 0 0 1 1 0 0 .001 51 346 784 0 336 337 422 0 +-.01613822803468
365 .003883229335205075 -.005001 0 0 1 .001 1 0 0 82 1 420 1841692882 82 1 416 1
866596556 82 1 396 1865547986 17 380 0 329 376 387 100 316 314 0 313 -17 316 0 3
79 63 102 97 380 314 0 0 +17 376 0 329 374 380 103 313 311 0 310 -17 374 0 329 3
68 376 106 310 308 0 307 -17 368 0 329 359 374 109 307 305 0 304 -17 307 0 367 7
2 111 106 368 305 0 0 +17 359 0 329 358 368 112 304 302 0 301 -17 154 0 329 165
 331 147 30 158 0 162 -17 30 0 28 26 149 85 154 158 0 31 +16 158 634 0 ?30 220 1
50 275 0 0 1 82 1 351 1866727628 51 342 794 0 152 0 337 0 +-.01613822803468365 .
0688832302590771 -.005001 0 0 1 .001 1 0 0 82 1 341 -848166702 19 17 352 0 1 0 9
 5 S0 74 4 CI16 index_map_offset0 0 1 dCCZ20 15 10 0 0 430 531 532 431 533 534 5
35 452 13 2 0 0 0 0 0 0 0 0 0 0 81 2 531 422 536 1 0 532 0 0 0 537 81 2 532 423
 538 1 531 533 0 0 0 539 81 1 533 891 540 1 532 534 0 0 541 81 2 534 968 542 1 5
33 535 0 0 0 543 81 2 535 971 544 1 534 13 0 0 0 0 81 2 13 1094 545 1 535 2 0 0
 546 0 80 2 545 547 548 8004 0 0 0 0 3 5 0 0 0 FFTFFFFFFFFFFF2 3 83 1 546 12e2 7
9 16 548 SDL/TYSA_DENSITY80 2 544 549 550 9000 0 0 0 0 3 5 0 0 0 FFTFFFFFFFFFFF9
 1 79 16 550 BODY_RECIPE_200180 2 542 551 552 9000 0 0 0 0 3 5 0 0 0 FFTFFFFFFFF
FFF9 1 82 1 543 1 79 24 552 BODY_IN_LIGHTWEIGHT_PERM80 1 540 553 554 9000 1 1 1
 1 1 1 1 1 0 FFTFFFFFFFFFFF1 82 1 541 3304900 79 10 554 BODY_MATCH80 2 538 555 5
56 9000 0 0 0 0 3 5 0 0 0 FFTFFFFFFFFFFF9 1 82 1 539 124 79 19 556 ENT_TIME_STAM
P_200180 2 536 557 558 9000 0 0 0 0 3 5 0 0 0 FFTFFFFFFFFFFF9 1 82 1 537 139 79
 30 558 LAST_BODY_MODIFYING_FEATURE_ID80 2 12 559 560 9000 0 0 0 0 3 5 0 0 0 FFT
FFFFFFFFFFF9 1 82 1 14 107 79 12 560 ATOM_ID_20011 0 
