**ABCDEFGHIJKLMNOPQRSTUVWXYZabcdefghijklmnopqrstuvwxyz**************************
**PARASOLID !"#$%&'()*+,-./:;<=>?@[\]^_`{|}~0123456789**************************
**PART1;
MC=AMD64;
MC_MODEL=Intel64 Family 6 Model 62 Stepping 4, GenuineIntel;
MC_ID=unknown;
OS=Windows_NT;
OS_RELEASE=unknown;
FRU=Parasolid Version 31.0, build 290,  9- 1-2019;
APPL=SOLIDWORKS 2019-2019304;
SITE=;
USER=unknown;
FORMAT=text;
GUISE=transmit;
KEY=564110_4;
FILE=564110_4.x_t;
DATE=Sun Mar 22 16:19:41 2020;
**PART2;
SCH=SCH_3100290_31001;
USFLD_SIZE=0;
**PART3;
**END_OF_HEADER*****************************************************************
T51 : TRANSMIT FILE created by modeller version 310029023 SCH_3100290_31001_1300
6215 0 12 34 CCCCCCI4 mesh1006 0 I8 polyline1008 0 CCCCCCCDI5 owner1040 0 CCCCCC
I13 boundary_mesh1006 0 I17 boundary_polyline1008 0 CCCA16 index_map_offset0 0 1
 dA9 index_map82 0 A17 node_id_index_map82 0 A20 schema_embedding_map82 0 A5 chi
ld12 0 A14 lowest_node_id0 0 1 dA16 mesh_offset_data206 0 Z1 2947 2 3 0 0 0 0 0
 0 1e3 1e-8 0 4 0 1 0 1 1 5 6 7 8 0 0 9 10 11 0 0 0 0 0 0 0 81 255 2 2 2859 12 1
 13 0 0 0 0 14 70 11 CI9 list_type0 0 1 uI10 notransmit0 0 1 lCCCDCCDI12 finger_
index0 0 1 dI12 finger_block1012 0 CZ3 0 4 T1 0 0 10 20 1 15 15 13 255 5 771 0 1
 0 16 0 0 17 0 51 255 6 2400 0 18 19 0 0 +.00280625431086546 .0321028511759813 -
.005 0 0 -1 .001 -1 0 0 31 255 7 2301 0 10 20 0 0 +.00280625431086546 .032102851
1759813 -.005 0 0 1 1 0 0 .001 29 255 8 2238 0 11 21 0 .00180625431086546 .03210
28511759813 -.005 19 8 CCCCCCCA5 owner12 0 Z9 257 0 1 17 0 22 V0 16 255 10 2288
 0 ?23 0 24 7 0 0 1 18 255 11 2236 0 25 0 26 8 ?1 17 255 25 0 27 28 29 11 30 31
 0 32 +18 26 2233 0 33 11 34 21 ?1 17 33 0 35 36 37 26 38 24 0 29 +18 34 2216 0
 23 26 39 40 ?1 29 21 2235 0 26 40 8 .00180625431086546 .0321028511759813 0 29 4
0 2218 0 34 41 21 .00280625431086546 .0311028511759813 -.005 29 41 2215 0 39 42
 40 .00380625431086545 .0311028511759813 -.005 18 39 2213 0 43 34 44 41 ?1 29 42
 2212 0 44 45 41 .00280625431086546 .0311028511759813 0 18 44 2210 0 38 39 46 42
 ?1 29 45 2209 0 46 47 42 .00380625431086545 .0311028511759813 0 18 46 2207 0 48
 44 49 45 ?1 29 47 2199 0 49 50 45 .00480625431086545 .0321028511759813 -.005 18
 49 2197 0 51 46 52 47 ?1 29 50 2196 0 52 53 47 .00480625431086545 .032102851175
9813 0 18 52 2194 0 54 49 55 50 ?1 29 53 2186 0 55 56 50 .00480625431086545 -.00
589714982239651 -.005 18 55 2184 0 57 52 58 53 ?1 29 56 2183 0 58 59 53 .0048062
5431086545 -.00589714982239651 0 18 58 2181 0 60 55 61 56 ?1 29 59 2166 0 61 62
 56 .00380625431086545 -.00489714982239651 -.005 18 61 2164 0 63 58 64 59 ?1 29
 62 2163 0 64 65 59 .00280625431086546 -.00489714982239651 -.005 18 64 2161 0 66
 61 67 62 ?1 29 65 2160 0 67 68 62 .00380625431086545 -.00489714982239651 0 18 6
7 2158 0 69 64 70 65 ?1 29 68 2157 0 70 71 65 .00280625431086546 -.0048971498223
9651 0 18 70 2155 0 72 67 73 68 ?1 29 71 2147 0 73 74 68 .00180625431086546 -.00
589714982239651 -.005 18 73 2145 0 75 70 76 71 ?1 29 74 2144 0 76 77 71 .0018062
5431086546 -.00589714982239651 0 18 76 2142 0 78 73 79 74 ?1 29 77 1714 0 79 80
 74 .01280418123069424 .0431028511759813 0 18 79 1712 0 81 76 82 77 ?1 29 80 170
8 0 82 83 77 .01380418123069424 -.0178971498223965 0 18 82 1706 0 84 79 85 80 ?1
 29 83 1702 0 85 86 80 -.00619167260896333 -.0168971498223965 0 18 85 1700 0 87
 82 88 83 ?1 29 86 1696 0 88 89 83 -.00719167260896334 .0441028511759813 0 18 88
 1694 0 90 85 91 86 ?1 29 89 556 0 92 93 86 .00180625431086546 .0431028511759813
 0 18 92 483 0 94 95 96 89 ?1 29 93 557 0 96 97 89 .00180625431086546 .037302851
1759813 0 18 96 484 0 98 92 99 93 ?1 29 97 558 0 99 100 93 .000606254310865445 .
0373028511759813 0 18 99 485 0 101 96 102 97 ?1 29 100 559 0 102 103 97 .0006062
54310865445 .0349028511759813 0 18 102 486 0 104 99 105 100 ?1 29 103 560 0 105
 106 100 .00180625431086546 .0349028511759813 0 18 105 487 0 36 102 107 103 ?1 2
9 106 563 0 107 108 103 .00480625431086545 .0349028511759813 0 18 107 490 0 109
 105 110 106 ?1 29 108 564 0 110 111 106 .00600625431086545 .0349028511759813 0
 18 110 491 0 112 107 113 108 ?1 29 111 565 0 113 114 108 .00600625431086545 .03
73028511759813 0 18 113 492 0 115 110 116 111 ?1 29 114 566 0 116 117 111 .00480
625431086545 .0373028511759813 0 18 116 493 0 118 113 119 114 ?1 29 117 567 0 11
9 120 114 .00480625431086545 .0431028511759813 0 18 119 494 0 121 116 122 117 ?1
 29 120 569 0 122 123 117 .01380418123069424 .0481028511759813 0 18 122 496 0 12
4 119 125 120 ?1 29 123 570 0 125 126 120 .02380418123069425 .0481028511759813 0
 18 125 497 0 127 122 128 123 ?1 29 126 571 0 128 129 123 .02380418123069425 -.0
218971498223965 0 18 128 498 0 130 125 131 126 ?1 29 129 572 0 131 132 126 .0138
0418123069424 -.0218971498223965 0 18 131 499 0 133 128 134 129 ?1 29 132 574 0
 134 135 129 .00480625431086545 -.0168971498223965 0 18 134 501 0 136 131 137 13
2 ?1 29 135 575 0 137 138 132 .00480625431086545 -.01109714982239652 0 18 137 50
2 0 139 134 140 135 ?1 29 138 576 0 140 141 135 .00600625431086545 -.01109714982
23965 0 18 140 503 0 142 137 143 138 ?1 29 141 577 0 143 144 138 .00600625431086
545 -.00869714982239651 0 18 143 504 0 145 140 146 141 ?1 29 144 578 0 146 147 1
41 .00480625431086545 -.00869714982239651 0 18 146 505 0 148 143 149 144 ?1 29 1
47 581 0 149 150 144 .00180625431086546 -.00869714982239651 0 18 149 508 0 151 1
46 152 147 ?1 29 150 582 0 152 153 147 .000606254310865459 -.00869714982239651 0
 18 152 509 0 154 149 155 150 ?1 29 153 583 0 155 156 150 .000606254310865459 -.
01109714982239652 0 18 155 510 0 157 152 158 153 ?1 29 156 584 0 158 159 153 .00
180625431086546 -.01109714982239652 0 18 158 511 0 160 155 161 156 ?1 29 159 585
 0 161 162 156 .00180625431086546 -.0168971498223965 0 18 161 512 0 163 158 164
 159 ?1 29 162 587 0 164 165 159 -.00719167260896334 -.0218971498223965 0 18 164
 514 0 166 161 167 162 ?1 29 165 588 0 167 168 162 -.01719167260896335 -.0218971
498223965 0 18 167 515 0 169 164 170 165 ?1 29 168 589 0 170 171 165 -.017191672
60896335 .0481028512504871 0 18 170 516 0 172 167 173 168 ?1 29 171 590 0 173 17
4 168 -.00719167260896334 .0481028512504871 0 18 173 517 0 175 170 176 171 ?1 29
 174 253 0 91 177 171 .00180625431086546 .0431028511759813 -.005 18 91 251 0 178
 88 179 174 ?1 29 177 250 0 179 180 174 .00180625431086546 .0373028511759813 -.0
05 18 179 248 0 181 91 182 177 ?1 29 180 247 0 182 183 177 .000606254310865445 .
0373028511759813 -.005 18 182 245 0 184 179 185 180 ?1 29 183 244 0 185 186 180
 .000606254310865445 .0349028511759813 -.005 18 185 242 0 187 182 188 183 ?1 29
 186 241 0 188 189 183 .00180625431086546 .0349028511759813 -.005 18 188 239 0 2
8 185 190 186 ?1 29 189 232 0 190 191 186 .00480625431086545 .0349028511759813 -
.005 18 190 230 0 192 188 193 189 ?1 29 191 229 0 193 194 189 .00600625431086545
 .0349028511759813 -.005 18 193 227 0 195 190 196 191 ?1 29 194 226 0 196 197 19
1 .00600625431086545 .0373028511759813 -.005 18 196 224 0 198 193 199 194 ?1 29
 197 223 0 199 200 194 .00480625431086545 .0373028511759813 -.005 18 199 221 0 2
01 196 202 197 ?1 29 200 220 0 202 203 197 .00480625431086545 .0431028511759813
 -.005 18 202 218 0 204 199 205 200 ?1 29 203 214 0 205 206 200 .013804181230694
24 .0481028511759813 -.005 18 205 212 0 207 202 208 203 ?1 29 206 211 0 208 209
 203 .02380418123069425 .0481028511759813 -.005 18 208 209 0 210 205 211 206 ?1
 29 209 208 0 211 212 206 .02380418123069425 -.0218971498223965 -.005 18 211 206
 0 213 208 214 209 ?1 29 212 205 0 214 215 209 .01380418123069424 -.021897149822
3965 -.005 18 214 203 0 216 211 217 212 ?1 29 215 199 0 217 218 212 .00480625431
086545 -.0168971498223965 -.005 18 217 197 0 219 214 220 215 ?1 29 218 196 0 220
 221 215 .00480625431086545 -.01109714982239652 -.005 18 220 194 0 222 217 223 2
18 ?1 29 221 193 0 223 224 218 .00600625431086545 -.0110971498223965 -.005 18 22
3 191 0 225 220 226 221 ?1 29 224 190 0 226 227 221 .00600625431086545 -.0086971
4982239651 -.005 18 226 188 0 228 223 229 224 ?1 29 227 187 0 229 230 224 .00480
625431086545 -.00869714982239651 -.005 18 229 185 0 231 226 232 227 ?1 29 230 17
8 0 232 233 227 .00180625431086546 -.00869714982239651 -.005 18 232 176 0 234 22
9 235 230 ?1 29 233 175 0 235 236 230 .000606254310865459 -.00869714982239651 -.
005 18 235 173 0 237 232 238 233 ?1 29 236 172 0 238 239 233 .000606254310865459
 -.01109714982239652 -.005 18 238 170 0 240 235 241 236 ?1 29 239 169 0 241 242
 236 .00180625431086546 -.01109714982239652 -.005 18 241 167 0 243 238 244 239 ?
1 29 242 166 0 244 245 239 .00180625431086546 -.0168971498223965 -.005 18 244 16
4 0 246 241 247 242 ?1 29 245 160 0 247 248 242 -.00719167260896334 -.0218971498
223965 -.005 18 247 158 0 249 244 250 245 ?1 29 248 157 0 250 251 245 -.01719167
260896335 -.0218971498223965 -.005 18 250 155 0 252 247 253 248 ?1 29 251 154 0
 253 254 248 -.01719167260896335 .0481028512504871 -.005 18 253 152 0 255 250 95
 251 ?1 29 254 151 0 95 256 251 -.00719167260896334 .0481028512504871 -.005 18 9
5 149 0 257 253 92 254 ?1 29 256 2079 0 176 258 254 -.00719167260896334 .0441028
511759813 -.005 18 176 1991 0 259 173 260 256 ?1 29 258 2081 0 260 261 256 -.006
19167260896334 .0431028511759813 -.005 18 260 1988 0 262 176 263 258 ?1 29 261 2
082 0 263 264 258 -.00619167260896334 .0431028511759813 0 18 263 1990 0 265 260
 266 261 ?1 29 264 2085 0 267 268 261 -.00619167260896334 -.0168971498223965 -.0
05 18 267 1871 0 269 270 271 264 ?1 29 268 2087 0 271 272 264 -.0071916726089633
4 -.0178971498223965 -.005 18 271 1868 0 273 267 274 268 ?1 29 272 2088 0 274 27
5 268 -.00719167260896334 -.0178971498223965 0 18 274 1870 0 276 271 0 272 ?1 29
 275 2091 0 277 278 272 .01380418123069424 -.0178971498223965 -.005 18 277 1911
 0 279 280 281 275 ?1 29 278 2093 0 281 282 275 .01280418123069424 -.01689714982
23965 -.005 18 281 1908 0 283 277 270 278 ?1 29 282 2094 0 270 284 278 .01280418
123069424 -.0168971498223965 0 18 270 1910 0 285 281 267 282 ?1 29 284 2097 0 26
6 286 282 .01280418123069424 .0431028511759813 -.005 18 266 1951 0 287 263 288 2
84 ?1 29 286 2099 0 288 289 284 .01380418123069424 .0441028511759813 -.005 18 28
8 1948 0 290 266 280 286 ?1 29 289 2100 0 280 0 286 .01380418123069424 .04410285
11759813 0 18 280 1950 0 291 288 277 289 ?1 17 291 0 292 290 81 280 293 294 0 29
5 +15 255 292 1955 0 291 296 0 17 290 0 292 287 291 288 295 297 0 298 -17 81 0 2
92 291 287 79 299 300 0 293 -17 293 0 35 121 301 79 291 294 0 302 -16 294 1939 0
 ?291 303 300 304 0 0 1 17 295 0 305 306 307 280 290 297 0 301 +15 305 1827 0 29
5 308 0 17 306 0 305 207 295 122 301 309 0 310 -17 307 0 305 295 207 288 311 312
 0 0 +16 297 1936 0 ?295 300 313 314 0 0 1 17 301 0 35 293 310 280 306 309 0 0 +
15 35 1740 0 315 316 0 17 310 0 35 301 317 122 318 319 0 0 +16 309 390 0 ?301 32
0 319 321 0 0 1 16 320 1713 0 ?121 322 309 323 0 0 1 16 319 394 0 ?310 309 324 3
25 0 0 1 30 255 321 532 0 309 325 323 0 +.01380418123069424 .0431028511759813 0
 0 -1 0 30 325 533 0 319 326 321 0 +.01380418123069424 .0481028511759813 0 -1 0
 0 30 323 531 0 320 321 327 0 +.00480625431086545 .0431028511759813 0 -1 0 0 30
 327 530 0 322 323 328 0 +.00480625431086545 .0373028511759813 0 0 -1 0 16 322 3
82 0 ?329 330 320 327 0 0 1 30 328 529 0 330 327 331 0 +.00600625431086545 .0373
028511759813 0 1 0 0 16 330 378 0 ?332 333 322 328 0 0 1 30 331 528 0 333 328 33
4 0 +.00600625431086545 .0349028511759813 0 0 -1 0 16 333 374 0 ?335 336 330 331
 0 0 1 30 334 527 0 336 331 337 0 +.00480625431086545 .0349028511759813 0 -1 0 0
 16 336 370 0 ?338 339 333 334 0 0 1 30 337 526 0 339 334 340 0 +.00480625431086
545 .0311028511759813 0 0 -1 0 16 339 366 0 ?341 342 336 337 0 0 1 30 340 525 0
 342 337 343 0 +.00180625431086546 .0311028511759813 0 -1 0 0 16 342 2208 0 ?37
 344 339 340 0 0 1 30 343 524 0 344 340 345 0 +.00180625431086546 .0349028511759
813 0 0 1 0 16 344 2234 0 ?36 346 342 343 0 0 1 30 345 523 0 346 343 347 0 +.000
606254310865445 .0349028511759813 0 -1 0 0 16 346 354 0 ?348 349 344 345 0 0 1 3
0 347 522 0 349 345 350 0 +.000606254310865445 .0373028511759813 0 0 1 0 16 349
 350 0 ?351 352 346 347 0 0 1 30 350 521 0 352 347 353 0 +.00180625431086546 .03
73028511759813 0 1 0 0 16 352 346 0 ?354 355 349 350 0 0 1 30 353 520 0 355 350
 356 0 +.00180625431086546 .0431028511759813 0 0 1 0 16 355 342 0 ?357 358 352 3
53 0 0 1 30 356 519 0 358 353 359 0 +-.00719167260896334 .0431028511759813 0 -1
 0 0 16 358 338 0 ?360 361 355 356 0 0 1 30 359 736 0 362 356 363 0 +.0018062543
1086546 .0431028511759813 -.005 0 0 1 16 362 592 0 ?94 364 365 359 0 0 1 30 363
 737 0 365 359 366 0 +.00180625431086546 .0373028511759813 -.005 0 0 1 16 365 59
3 0 ?98 362 367 363 0 0 1 30 366 738 0 367 363 368 0 +.000606254310865445 .03730
28511759813 -.005 0 0 1 16 367 594 0 ?101 365 369 366 0 0 1 30 368 739 0 369 366
 370 0 +.000606254310865445 .0349028511759813 -.005 0 0 1 16 369 595 0 ?104 367
 371 368 0 0 1 30 370 740 0 371 368 372 0 +.00180625431086546 .0349028511759813
 -.005 0 0 1 16 371 596 0 ?373 369 374 370 0 0 1 30 372 743 0 374 370 375 0 +.00
480625431086545 .0349028511759813 -.005 0 0 1 16 374 599 0 ?109 371 376 372 0 0
 1 30 375 744 0 376 372 377 0 +.00600625431086545 .0349028511759813 -.005 0 0 1
 16 376 600 0 ?112 374 378 375 0 0 1 30 377 745 0 378 375 379 0 +.00600625431086
545 .0373028511759813 -.005 0 0 1 16 378 601 0 ?115 376 380 377 0 0 1 30 379 746
 0 380 377 381 0 +.00480625431086545 .0373028511759813 -.005 0 0 1 16 380 602 0
 ?118 378 382 379 0 0 1 30 381 747 0 382 379 383 0 +.00480625431086545 .04310285
11759813 -.005 0 0 1 16 382 603 0 ?384 380 385 381 0 0 1 30 383 749 0 385 381 38
6 0 +.01380418123069424 .0481028511759813 -.005 0 0 1 16 385 605 0 ?124 382 387
 383 0 0 1 30 386 750 0 387 383 388 0 +.02380418123069425 .0481028511759813 -.00
5 0 0 1 16 387 606 0 ?127 385 389 386 0 0 1 30 388 751 0 389 386 390 0 +.0238041
8123069425 -.0218971498223965 -.005 0 0 1 16 389 607 0 ?130 387 391 388 0 0 1 30
 390 752 0 391 388 392 0 +.01380418123069424 -.0218971498223965 -.005 0 0 1 16 3
91 608 0 ?393 389 394 390 0 0 1 30 392 754 0 394 390 395 0 +.00480625431086545 -
.0168971498223965 -.005 0 0 1 16 394 610 0 ?136 391 396 392 0 0 1 30 395 755 0 3
96 392 397 0 +.00480625431086545 -.01109714982239652 -.005 0 0 1 16 396 611 0 ?1
39 394 398 395 0 0 1 30 397 756 0 398 395 399 0 +.00600625431086545 -.0110971498
223965 -.005 0 0 1 16 398 612 0 ?142 396 400 397 0 0 1 30 399 757 0 400 397 401
 0 +.00600625431086545 -.00869714982239651 -.005 0 0 1 16 400 613 0 ?145 398 402
 399 0 0 1 30 401 758 0 402 399 403 0 +.00480625431086545 -.00869714982239651 -.
005 0 0 1 16 402 614 0 ?404 400 405 401 0 0 1 30 403 761 0 405 401 406 0 +.00180
625431086546 -.00869714982239651 -.005 0 0 1 16 405 617 0 ?151 402 407 403 0 0 1
 30 406 762 0 407 403 408 0 +.000606254310865459 -.00869714982239651 -.005 0 0 1
 16 407 618 0 ?154 405 409 406 0 0 1 30 408 763 0 409 406 410 0 +.00060625431086
5459 -.01109714982239652 -.005 0 0 1 16 409 619 0 ?157 407 411 408 0 0 1 30 410
 764 0 411 408 412 0 +.00180625431086546 -.01109714982239652 -.005 0 0 1 16 411
 620 0 ?160 409 413 410 0 0 1 30 412 765 0 413 410 414 0 +.00180625431086546 -.0
168971498223965 -.005 0 0 1 16 413 621 0 ?415 411 416 412 0 0 1 30 414 767 0 416
 412 417 0 +-.00719167260896334 -.0218971498223965 -.005 0 0 1 16 416 623 0 ?166
 413 418 414 0 0 1 30 417 768 0 418 414 419 0 +-.01719167260896335 -.02189714982
23965 -.005 0 0 1 16 418 624 0 ?169 416 420 417 0 0 1 30 419 769 0 420 417 421 0
 +-.01719167260896335 .0481028512504871 -.005 0 0 1 16 420 625 0 ?172 418 422 41
9 0 0 1 30 421 770 0 422 419 423 0 +-.00719167260896334 .0481028512504871 -.005
 0 0 1 16 422 626 0 ?424 420 425 421 0 0 1 30 423 2150 0 364 421 426 0 +.0018062
5431086546 -.00589714982239651 0 0 0 1 16 364 2148 0 ?427 428 362 423 0 0 1 30 4
26 2169 0 428 423 429 0 +.00380625431086545 -.00489714982239651 0 0 0 1 16 428 2
167 0 ?430 431 364 426 0 0 1 30 429 2176 0 431 426 432 0 -.00280625431086546 -.0
0489714982239651 -.005 0 0 1 16 431 2174 0 ?66 433 428 429 0 0 1 30 432 2189 0 4
33 429 434 0 -.00480625431086545 -.00589714982239651 -.005 0 0 1 16 433 2187 0 ?
57 435 431 432 0 0 1 30 434 2202 0 435 432 436 0 +.00480625431086545 .0321028511
759813 0 0 0 1 16 435 2200 0 ?437 438 433 434 0 0 1 30 436 2221 0 438 434 439 0
 +.00280625431086546 .0311028511759813 0 0 0 1 16 438 2219 0 ?440 441 435 436 0
 0 1 30 439 2228 0 441 436 442 0 -.00380625431086545 .0311028511759813 -.005 0 0
 1 16 441 2226 0 ?43 31 438 439 0 0 1 30 442 2241 0 31 439 443 0 -.0018062543108
6546 .0321028511759813 -.005 0 0 1 16 31 2239 0 ?25 444 441 442 0 0 1 31 443 229
4 0 444 442 445 0 -.00280625431086546 -.00589714982239651 0 0 0 1 1 0 0 .001 16
 444 2246 0 ?72 446 31 443 0 0 1 31 445 2295 0 446 443 447 0 +.00280625431086546
 -.00589714982239651 -.005 0 0 1 1 0 0 .001 16 446 2252 0 ?75 448 444 445 0 0 1
 31 447 2296 0 448 445 449 0 -.00380625431086545 -.00589714982239651 0 0 0 1 1 0
 0 .001 16 448 2258 0 ?60 450 446 447 0 0 1 31 449 2297 0 450 447 451 0 +.003806
25431086545 -.00589714982239651 -.005 0 0 1 1 0 0 .001 16 450 2264 0 ?63 452 448
 449 0 0 1 31 451 2298 0 452 449 453 0 -.00380625431086545 .0321028511759813 0 0
 0 1 1 0 0 .001 16 452 2270 0 ?48 454 450 451 0 0 1 31 453 2299 0 454 451 20 0 +
.00380625431086545 .0321028511759813 -.005 0 0 1 1 0 0 .001 16 454 2276 0 ?51 24
 452 453 0 0 1 31 20 2300 0 24 453 7 0 -.00280625431086546 .0321028511759813 0 0
 0 1 1 0 0 .001 16 24 2282 0 ?33 10 454 20 0 0 1 17 51 0 455 456 457 49 458 454
 0 459 +15 455 4 0 460 461 0 17 456 0 455 462 51 190 459 463 0 464 -17 457 0 455
 51 23 39 465 466 0 458 -17 458 0 467 468 469 39 51 454 0 0 -17 459 0 470 437 19
2 49 456 463 0 469 +15 470 641 0 459 471 0 17 437 0 470 472 459 52 469 435 0 341
 +17 192 0 470 459 472 190 109 374 0 456 -16 463 117 0 ?459 466 473 474 0 0 1 17
 469 0 467 458 54 49 437 435 0 0 -15 467 2368 0 458 475 0 17 54 0 467 469 468 52
 48 452 0 437 -17 468 0 467 54 458 46 43 441 0 0 -17 48 0 35 37 341 46 54 452 0
 476 +17 37 0 35 33 48 44 476 342 0 0 +17 341 0 35 48 338 52 472 339 0 0 +17 476
 0 477 43 440 46 37 342 0 468 -15 477 639 0 476 478 0 17 43 0 477 465 476 39 468
 441 0 457 +17 440 0 477 476 465 44 479 438 0 37 +17 465 0 477 440 43 34 457 466
 0 479 +17 479 0 480 481 38 34 440 438 0 0 -15 480 2389 0 481 18 0 17 481 0 480
 30 479 11 23 10 0 0 -17 38 0 480 479 30 44 33 24 0 440 -17 30 0 480 38 481 26 2
5 31 0 0 -17 23 0 455 457 32 34 481 10 0 465 +17 32 0 455 23 482 11 28 483 0 481
 -17 482 0 455 32 484 188 485 486 0 0 -17 28 0 27 373 25 188 32 483 0 487 +16 48
3 2237 0 ?28 486 466 488 0 0 1 16 486 129 0 ?485 489 483 490 0 0 1 16 466 2214 0
 ?465 483 463 491 0 0 1 30 488 127 0 483 491 490 0 +.00180625431086546 .03490285
11759813 -.005 0 1 0 30 491 123 0 466 474 488 0 +.00180625431086546 .03110285117
59813 -.005 -1 0 0 30 490 131 0 486 488 492 0 +.000606254310865445 .034902851175
9813 -.005 -1 0 0 30 492 135 0 489 490 493 0 +.000606254310865445 .0373028511759
813 -.005 0 1 0 16 489 133 0 ?494 495 486 492 0 0 1 30 493 139 0 495 492 496 0 +
.00180625431086546 .0373028511759813 -.005 1 0 0 16 495 137 0 ?497 498 489 493 0
 0 1 30 496 143 0 498 493 499 0 +.00180625431086546 .0431028511759813 -.005 0 1
 0 16 498 141 0 ?500 425 495 496 0 0 1 30 499 147 0 425 496 501 0 +-.00719167260
896334 .0431028511759813 -.005 -1 0 0 16 425 145 0 ?502 422 498 499 0 0 1 30 501
 554 0 503 499 504 0 +-.00719167260896334 .0481028512504871 0 0 1 0 16 503 1695
 0 ?175 505 506 501 0 0 1 30 504 553 0 505 501 507 0 +-.01719167260896335 .04810
28512504871 0 -1 0 0 16 505 474 0 ?508 509 503 504 0 0 1 30 507 552 0 509 504 51
0 0 +-.01719167260896335 -.0218971498223965 0 0 -1 0 16 509 470 0 ?511 512 505 5
07 0 0 1 30 510 551 0 512 507 513 0 +-.00719167260896334 -.0218971498223965 0 1
 0 0 16 512 466 0 ?514 515 509 510 0 0 1 30 513 550 0 515 510 516 0 +-.007191672
60896334 -.0168971498223965 0 0 1 0 16 515 462 0 ?517 518 512 513 0 0 1 30 516 5
49 0 518 513 519 0 +.00180625431086546 -.0168971498223965 0 1 0 0 16 518 1701 0
 ?163 520 515 516 0 0 1 30 519 548 0 520 516 521 0 +.00180625431086546 -.0110971
4982239652 0 0 1 0 16 520 454 0 ?522 523 518 519 0 0 1 30 521 547 0 523 519 524
 0 +.000606254310865459 -.01109714982239652 0 -1 0 0 16 523 450 0 ?525 526 520 5
21 0 0 1 30 524 546 0 526 521 527 0 +.000606254310865459 -.00869714982239651 0 0
 1 0 16 526 446 0 ?528 529 523 524 0 0 1 30 527 545 0 529 524 530 0 +.0018062543
1086546 -.00869714982239651 0 1 0 0 16 529 442 0 ?531 532 526 527 0 0 1 30 530 5
44 0 532 527 533 0 +.00180625431086546 -.00489714982239651 0 0 1 0 16 532 438 0
 ?534 535 529 530 0 0 1 30 533 543 0 535 530 536 0 +.00480625431086545 -.0048971
4982239651 0 1 0 0 16 535 2156 0 ?537 538 532 533 0 0 1 30 536 542 0 538 533 539
 0 +.00480625431086545 -.00869714982239651 0 0 -1 0 16 538 2182 0 ?148 540 535 5
36 0 0 1 30 539 541 0 540 536 541 0 +.00600625431086545 -.00869714982239651 0 1
 0 0 16 540 426 0 ?542 543 538 539 0 0 1 30 541 540 0 543 539 544 0 +.0060062543
1086545 -.0110971498223965 0 0 -1 0 16 543 422 0 ?545 546 540 541 0 0 1 30 544 5
39 0 546 541 547 0 +.00480625431086545 -.01109714982239652 0 -1 -722801448323666
e-29 0 16 546 418 0 ?548 549 543 544 0 0 1 30 547 538 0 549 544 550 0 +.00480625
431086545 -.0168971498223965 0 0 -1 0 16 549 414 0 ?551 552 546 547 0 0 1 30 550
 537 0 552 547 553 0 +.01380418123069424 -.0168971498223965 0 1 0 0 16 552 410 0
 ?554 555 549 550 0 0 1 30 553 536 0 555 550 556 0 +.01380418123069424 -.0218971
498223965 0 0 -1 0 16 555 1707 0 ?133 557 552 553 0 0 1 30 556 535 0 557 553 326
 0 +.02380418123069425 -.0218971498223965 0 1 0 0 16 557 402 0 ?558 324 555 556
 0 0 1 30 326 534 0 324 556 325 0 +.02380418123069425 .0481028511759813 0 0 1 0
 16 324 398 0 ?317 319 557 326 0 0 1 17 317 0 35 310 558 125 559 324 0 0 +17 558
 0 35 317 133 128 560 557 0 0 +17 559 0 561 213 127 128 317 324 0 558 -15 561 65
7 0 559 562 0 17 213 0 561 563 559 211 130 389 0 564 -17 127 0 561 559 563 125 2
10 387 0 318 +17 563 0 561 127 213 208 564 565 0 0 +17 210 0 566 567 318 208 127
 387 0 568 -17 318 0 566 210 124 125 310 319 0 317 -15 566 655 0 318 569 0 17 12
4 0 566 318 567 122 207 385 0 306 +17 567 0 566 124 210 205 568 570 0 0 +17 207
 0 305 307 306 205 124 385 0 311 -17 311 0 455 568 298 205 307 312 0 567 -17 568
 0 455 564 311 208 567 570 0 563 -17 298 0 455 311 571 288 287 303 0 307 -16 312
 93 0 ?307 572 570 573 0 0 1 16 572 1753 0 ?204 574 312 575 0 0 1 16 570 89 0 ?5
67 312 565 576 0 0 1 30 573 95 0 312 576 575 0 +.01380418123069424 .043102851175
9813 -.005 0 -1 0 30 576 91 0 570 577 573 0 +.01380418123069424 .048102851175981
3 -.005 -1 0 0 30 575 99 0 572 573 578 0 +.00480625431086545 .0431028511759813 -
.005 -1 0 0 30 578 103 0 574 575 579 0 +.00480625431086545 .0373028511759813 -.0
05 0 -1 0 16 574 101 0 ?580 581 572 578 0 0 1 30 579 107 0 581 578 582 0 +.00600
625431086545 .0373028511759813 -.005 1 0 0 16 581 105 0 ?583 584 574 579 0 0 1 3
0 582 111 0 584 579 585 0 +.00600625431086545 .0349028511759813 -.005 0 -1 0 16
 584 109 0 ?586 473 581 582 0 0 1 30 585 115 0 473 582 474 0 +.00480625431086545
 .0349028511759813 -.005 -1 0 0 16 473 113 0 ?464 463 584 585 0 0 1 30 474 119 0
 463 585 491 0 +.00480625431086545 .0311028511759813 -.005 0 -1 0 17 464 0 587 1
09 195 190 462 473 0 0 +15 587 643 0 588 589 0 17 109 0 587 588 464 107 192 374
 0 472 +17 195 0 587 464 588 193 112 376 0 462 -17 462 0 455 590 456 193 464 473
 0 586 -17 590 0 455 591 462 196 586 584 0 583 -17 586 0 592 112 198 193 590 584
 0 0 +15 592 645 0 593 594 0 17 112 0 592 593 586 110 195 376 0 588 +17 198 0 59
2 586 593 196 115 378 0 590 -17 593 0 592 198 112 113 335 333 0 332 -17 115 0 59
5 596 583 113 198 378 0 593 +15 595 647 0 596 597 0 17 596 0 595 201 115 116 332
 330 0 329 -17 583 0 595 115 201 196 591 581 0 0 +17 201 0 595 583 596 199 118 3
80 0 591 -17 591 0 455 598 590 199 583 581 0 580 -17 598 0 455 571 591 202 580 5
74 0 0 -17 580 0 599 118 600 199 598 574 0 0 +15 599 649 0 601 602 0 17 118 0 59
9 601 580 116 201 380 0 596 +17 600 0 599 580 601 202 384 382 0 598 -17 601 0 59
9 600 118 119 329 322 0 0 -17 384 0 603 302 204 119 600 382 0 601 +15 603 1834 0
 299 604 0 17 302 0 603 299 384 79 121 320 0 0 -17 204 0 603 384 299 202 571 572
 0 600 +17 299 0 603 204 302 266 81 300 0 571 +17 571 0 455 298 598 266 204 572
 0 0 -16 300 1935 0 ?299 294 297 605 0 0 1 30 605 2072 0 300 314 304 0 -.0128041
8123069424 .0431028511759813 -.005001 0 0 1 30 314 2073 0 297 0 605 0 +.01380418
123069424 .0441028511759813 -.005001 0 0 1 31 304 2071 0 294 605 606 0 +.0138041
8123069424 .0431028511759813 0 0 0 1 1 0 0 .001 31 606 2069 0 303 304 607 0 -.01
380418123069424 .0431028511759813 -.005 0 0 1 1 0 0 .001 16 303 1945 0 ?287 608
 294 606 0 0 1 30 607 2064 0 609 606 610 0 +.01280418123069424 -.016897149822396
5 -.005001 0 0 1 16 609 1896 0 ?611 612 613 607 0 0 1 30 610 2063 0 612 607 614
 0 -.01380418123069424 -.0178971498223965 -.005001 0 0 1 16 612 1895 0 ?615 616
 609 610 0 0 1 31 614 2062 0 616 610 617 0 +.01380418123069424 -.016897149822396
5 0 0 0 1 1 0 0 .001 16 616 1899 0 ?285 313 612 614 0 0 1 31 617 2060 0 313 614
 618 0 -.01380418123069424 -.0168971498223965 -.005 0 0 1 1 0 0 .001 16 313 1905
 0 ?279 297 616 617 0 0 1 30 618 2055 0 619 617 620 0 +-.00719167260896334 -.017
8971498223965 -.005001 0 0 1 16 619 1856 0 ?621 622 0 618 0 0 1 30 620 2054 0 62
2 618 623 0 --.00619167260896334 -.0168971498223965 -.005001 0 0 1 16 622 1855 0
 ?624 625 619 620 0 0 1 31 623 2053 0 625 620 626 0 +-.00719167260896334 -.01689
71498223965 0 0 0 1 1 0 0 .001 16 625 1859 0 ?276 613 622 623 0 0 1 31 626 2051
 0 613 623 627 0 --.00719167260896334 -.0168971498223965 -.005 0 0 1 1 0 0 .001
 16 613 1865 0 ?269 609 625 626 0 0 1 30 627 2046 0 608 626 628 0 +-.00619167260
896334 .0431028511759813 -.005001 0 0 1 16 608 1976 0 ?629 630 303 627 0 0 1 30
 628 2045 0 630 627 631 0 --.00719167260896334 .0441028511759813 -.005001 0 0 1
 16 630 1975 0 ?632 633 608 628 0 0 1 31 631 2044 0 633 628 634 0 +-.00719167260
896334 .0431028511759813 0 0 0 1 1 0 0 .001 16 633 1979 0 ?265 506 630 631 0 0 1
 31 634 2042 0 506 631 635 0 --.00719167260896334 .0431028511759813 -.005 0 0 1
 1 0 0 .001 16 506 1985 0 ?259 503 633 634 0 0 1 30 635 7 0 361 634 636 0 +-.007
19167260896334 .0481028512504871 -.005 0 1 0 16 361 1747 0 ?257 637 358 635 0 0
 1 30 636 11 0 637 635 638 0 +-.01719167260896335 .0481028512504871 -.005 -1 0 0
 16 637 9 0 ?639 640 361 636 0 0 1 30 638 15 0 640 636 641 0 +-.0171916726089633
5 -.0218971498223965 -.005 0 -1 0 16 640 13 0 ?642 643 637 638 0 0 1 30 641 19 0
 643 638 644 0 +-.00719167260896334 -.0218971498223965 -.005 1 0 0 16 643 17 0 ?
645 646 640 641 0 0 1 30 644 23 0 646 641 647 0 +-.00719167260896334 -.016897149
8223965 -.005 0 1 0 16 646 21 0 ?648 649 643 644 0 0 1 30 647 27 0 649 644 650 0
 +.00180625431086546 -.0168971498223965 -.005 1 0 0 16 649 1765 0 ?246 651 646 6
47 0 0 1 30 650 31 0 651 647 652 0 +.00180625431086546 -.01109714982239652 -.005
 0 1 0 16 651 29 0 ?653 654 649 650 0 0 1 30 652 35 0 654 650 655 0 +.0006062543
10865459 -.01109714982239652 -.005 -1 0 0 16 654 33 0 ?656 657 651 652 0 0 1 30
 655 39 0 657 652 658 0 +.000606254310865459 -.00869714982239651 -.005 0 1 0 16
 657 37 0 ?659 660 654 655 0 0 1 30 658 43 0 660 655 661 0 +.00180625431086546 -
.00869714982239651 -.005 1 0 0 16 660 41 0 ?662 663 657 658 0 0 1 30 661 47 0 66
3 658 664 0 +.00180625431086546 -.00489714982239651 -.005 0 1 0 16 663 45 0 ?665
 666 660 661 0 0 1 30 664 51 0 666 661 667 0 +.00480625431086545 -.0048971498223
9651 -.005 1 0 0 16 666 2162 0 ?668 669 663 664 0 0 1 30 667 55 0 669 664 670 0
 +.00480625431086545 -.00869714982239651 -.005 0 -1 0 16 669 2185 0 ?231 671 666
 667 0 0 1 30 670 59 0 671 667 672 0 +.00600625431086545 -.00869714982239651 -.0
05 1 0 0 16 671 57 0 ?673 674 669 670 0 0 1 30 672 63 0 674 670 675 0 +.00600625
431086545 -.0110971498223965 -.005 0 -1 0 16 674 61 0 ?676 677 671 672 0 0 1 30
 675 67 0 677 672 678 0 +.00480625431086545 -.01109714982239652 -.005 -1 -722801
448323666e-29 0 16 677 65 0 ?679 680 674 675 0 0 1 30 678 71 0 680 675 681 0 +.0
0480625431086545 -.0168971498223965 -.005 0 -1 0 16 680 69 0 ?682 683 677 678 0
 0 1 30 681 75 0 683 678 684 0 +.01380418123069424 -.0168971498223965 -.005 1 0
 0 16 683 73 0 ?685 686 680 681 0 0 1 30 684 79 0 686 681 687 0 +.01380418123069
424 -.0218971498223965 -.005 0 -1 0 16 686 1759 0 ?216 688 683 684 0 0 1 30 687
 83 0 688 684 577 0 +.02380418123069425 -.0218971498223965 -.005 1 0 0 16 688 81
 0 ?689 565 686 687 0 0 1 30 577 87 0 565 687 576 0 +.02380418123069425 .0481028
511759813 -.005 0 1 0 16 565 85 0 ?563 570 688 577 0 0 1 17 689 0 690 130 691 21
1 692 688 0 0 +15 690 659 0 560 693 0 17 130 0 690 560 689 128 213 389 0 559 +17
 691 0 690 689 560 214 393 391 0 692 -17 692 0 455 694 564 214 689 688 0 0 -17 6
94 0 455 695 692 277 216 686 0 0 -17 564 0 455 692 568 211 563 565 0 689 -17 695
 0 455 696 694 281 279 313 0 685 -17 216 0 697 393 615 214 694 686 0 691 +15 697
 1820 0 615 698 0 17 393 0 697 699 216 131 691 391 0 560 +17 615 0 697 216 699 2
77 84 612 0 694 +17 699 0 697 615 393 82 133 555 0 0 -17 84 0 700 285 279 82 615
 612 0 701 -15 700 1915 0 285 702 0 17 285 0 700 283 84 270 701 616 0 611 +17 27
9 0 700 84 283 277 695 313 0 615 +17 701 0 35 133 554 82 285 616 0 699 -17 133 0
 35 558 701 131 699 555 0 393 +17 554 0 35 701 551 270 703 552 0 0 +17 551 0 35
 554 548 134 704 549 0 0 +17 703 0 705 219 611 134 554 552 0 551 -15 705 1813 0
 611 706 0 17 219 0 705 685 703 217 136 394 0 696 -17 611 0 705 703 685 270 283
 609 0 554 +17 685 0 705 611 219 281 696 683 0 0 +17 283 0 700 279 285 281 611 6
09 0 695 -17 696 0 455 707 695 217 685 683 0 682 -17 707 0 455 708 696 220 682 6
80 0 679 -17 682 0 709 136 222 217 707 680 0 0 +15 709 665 0 704 710 0 17 136 0
 709 704 682 134 219 394 0 703 +17 222 0 709 682 704 220 139 396 0 707 -17 704 0
 709 222 136 137 551 549 0 548 -17 139 0 711 712 679 137 222 396 0 704 +15 711 6
67 0 712 713 0 17 712 0 711 225 139 140 548 546 0 545 -17 679 0 711 139 225 220
 708 677 0 0 +17 225 0 711 679 712 223 142 398 0 708 -17 708 0 455 714 707 223 6
79 677 0 676 -17 714 0 455 715 708 226 676 674 0 673 -17 676 0 716 142 228 223 7
14 674 0 0 +15 716 669 0 717 718 0 17 142 0 716 717 676 140 225 398 0 712 +17 22
8 0 716 676 717 226 145 400 0 714 -17 717 0 716 228 142 143 545 543 0 542 -17 14
5 0 719 720 673 143 228 400 0 717 +15 719 671 0 720 721 0 17 720 0 719 722 145 1
46 542 540 0 0 -17 673 0 719 145 722 226 715 671 0 0 +17 722 0 719 673 720 229 4
04 402 0 715 -17 715 0 455 723 714 229 673 671 0 0 -17 723 0 455 63 715 55 231 6
69 0 724 -17 63 0 455 725 723 61 724 450 0 668 +17 231 0 726 404 57 229 723 669
 0 722 +17 724 0 727 728 729 55 63 450 0 0 -15 727 2347 0 724 730 0 17 728 0 727
 69 724 58 57 433 0 0 -17 729 0 727 724 69 61 430 428 0 0 -17 69 0 727 729 728 6
7 60 448 0 430 -17 430 0 731 732 668 67 729 428 0 537 +15 731 675 0 732 733 0 17
 732 0 731 66 430 70 537 535 0 734 -17 668 0 731 430 66 61 725 666 0 729 +17 537
 0 35 60 72 67 732 535 0 0 +17 60 0 35 148 537 58 69 448 0 735 +17 72 0 35 537 5
34 70 78 444 0 732 +17 534 0 35 72 531 76 736 532 0 0 +17 78 0 737 738 734 76 72
 444 0 427 -15 737 2326 0 739 740 0 17 738 0 737 739 78 73 427 364 0 0 -17 734 0
 737 78 739 70 66 431 0 0 -17 427 0 741 736 665 76 738 364 0 534 +15 741 677 0 6
65 742 0 17 736 0 741 234 427 149 534 532 0 531 -17 665 0 741 427 234 73 743 663
 0 738 +17 234 0 741 665 736 232 151 405 0 743 -17 743 0 455 744 75 232 665 663
 0 662 -17 744 0 455 745 743 235 662 660 0 659 -17 75 0 455 743 725 73 739 446 0
 665 +17 662 0 746 151 237 232 744 660 0 0 +15 746 679 0 747 748 0 17 151 0 746
 747 662 149 234 405 0 736 +17 237 0 746 662 747 235 154 407 0 744 -17 747 0 746
 237 151 152 531 529 0 528 -17 154 0 749 750 659 152 237 407 0 747 +15 749 681 0
 750 751 0 17 750 0 749 240 154 155 528 526 0 525 -17 659 0 749 154 240 235 745
 657 0 0 +17 240 0 749 659 750 238 157 409 0 745 -17 745 0 455 752 744 238 659 6
57 0 656 -17 752 0 455 753 745 241 656 654 0 653 -17 656 0 754 157 243 238 752 6
54 0 0 +15 754 683 0 755 756 0 17 157 0 754 755 656 155 240 409 0 750 +17 243 0
 754 656 755 241 160 411 0 752 -17 755 0 754 243 157 158 525 523 0 522 -17 160 0
 757 758 653 158 243 411 0 755 +15 757 685 0 758 759 0 17 758 0 757 760 160 161
 522 520 0 0 -17 653 0 757 160 760 241 753 651 0 0 +17 760 0 757 653 758 244 415
 413 0 753 -17 753 0 455 460 752 244 653 651 0 0 -17 460 0 455 761 753 267 246 6
49 0 0 -17 761 0 455 762 460 271 269 613 0 648 -17 246 0 763 415 624 244 460 649
 0 760 +15 763 1806 0 624 764 0 17 415 0 763 765 246 161 760 413 0 758 +17 624 0
 763 246 765 267 87 622 0 460 +17 765 0 763 624 415 85 163 518 0 0 -17 87 0 766
 276 269 85 624 622 0 315 -15 766 1875 0 276 767 0 17 276 0 766 273 87 274 315 6
25 0 621 +17 269 0 766 87 273 267 761 613 0 624 +17 315 0 35 163 517 85 276 625
 0 765 -17 163 0 35 522 315 161 765 518 0 415 +17 517 0 35 315 514 274 768 515 0
 0 +17 514 0 35 517 511 164 769 512 0 0 +17 768 0 770 249 621 164 517 515 0 514
 -15 770 1799 0 621 771 0 17 249 0 770 648 768 247 166 416 0 762 -17 621 0 770 7
68 648 274 273 619 0 517 +17 648 0 770 621 249 271 762 646 0 0 +17 273 0 766 269
 276 271 621 619 0 761 -17 762 0 455 772 761 247 648 646 0 645 -17 772 0 455 773
 762 250 645 643 0 642 -17 645 0 774 166 252 247 772 643 0 0 +15 774 691 0 769 7
75 0 17 166 0 774 769 645 164 249 416 0 768 +17 252 0 774 645 769 250 169 418 0
 772 -17 769 0 774 252 166 167 514 512 0 511 -17 169 0 776 777 642 167 252 418 0
 769 +15 776 693 0 777 778 0 17 777 0 776 255 169 170 511 509 0 508 -17 642 0 77
6 169 255 250 773 640 0 0 +17 255 0 776 642 777 253 172 420 0 773 -17 773 0 455
 779 772 253 642 640 0 639 -17 779 0 455 780 773 95 639 637 0 0 -17 639 0 781 17
2 782 253 779 637 0 0 +15 781 695 0 783 784 0 17 172 0 781 783 639 170 255 420 0
 777 +17 782 0 781 639 783 95 424 422 0 779 -17 783 0 781 782 172 173 508 505 0
 0 -17 424 0 785 786 257 173 782 422 0 783 +15 785 1848 0 632 16 0 17 786 0 785
 632 424 88 175 503 0 0 -17 257 0 785 424 632 95 780 361 0 782 +17 632 0 785 257
 786 176 90 630 0 780 +17 780 0 455 787 779 176 257 361 0 0 -17 787 0 455 788 78
0 260 259 506 0 502 -17 788 0 455 789 787 91 502 425 0 0 -17 259 0 790 90 262 17
6 787 506 0 632 +17 502 0 791 629 178 260 788 425 0 0 +15 791 1841 0 629 792 0 1
7 629 0 791 793 502 263 262 608 0 360 +17 178 0 791 502 793 91 94 362 0 500 -17
 793 0 791 178 629 92 360 358 0 0 -17 94 0 794 795 500 92 178 362 0 357 +17 500
 0 794 94 181 91 789 498 0 788 +15 794 629 0 795 796 0 17 181 0 794 500 795 179
 98 365 0 789 -17 789 0 455 797 788 179 500 498 0 497 -17 797 0 455 484 789 182
 497 495 0 494 -17 497 0 798 98 184 179 797 495 0 0 +15 798 631 0 799 800 0 17 9
8 0 798 799 497 96 181 365 0 795 +17 184 0 798 497 799 182 101 367 0 797 -17 799
 0 798 184 98 99 354 352 0 351 -17 101 0 801 802 494 99 184 367 0 799 +15 801 63
3 0 802 803 0 17 802 0 801 187 101 102 351 349 0 348 -17 494 0 801 101 187 182 4
84 489 0 0 +17 187 0 801 494 802 185 104 369 0 484 -17 484 0 455 482 797 185 494
 489 0 485 -17 485 0 804 104 487 185 482 486 0 0 +15 804 635 0 805 806 0 17 104
 0 804 805 485 102 187 369 0 802 +17 487 0 804 485 805 188 373 371 0 482 -17 805
 0 804 487 104 105 348 346 0 0 -17 373 0 27 29 28 105 487 371 0 805 +15 27 637 0
 29 807 0 17 29 0 27 25 373 26 36 344 0 30 -17 36 0 35 348 33 105 29 344 0 373 +
17 348 0 35 351 36 102 805 346 0 0 +17 351 0 35 354 348 99 802 349 0 0 +17 354 0
 35 357 351 96 799 352 0 0 +17 357 0 35 360 354 92 795 355 0 793 +17 360 0 35 80
8 357 263 793 358 0 0 +17 795 0 794 181 94 96 357 355 0 354 -17 808 0 35 175 360
 88 265 633 0 786 -17 175 0 35 508 808 173 786 503 0 424 +17 265 0 790 262 90 26
3 808 633 0 629 +15 790 1995 0 265 809 0 17 262 0 790 259 265 260 629 608 0 787
 -17 90 0 790 265 259 88 632 630 0 808 -14 255 809 1992 810 ?296 316 790 5 811 -
0 0 296 316 22 81 1 810 2860 812 809 813 0 0 814 815 14 296 1952 814 ?702 809 29
2 5 816 -0 0 702 809 22 14 316 336 817 ?809 461 35 5 818 +0 0 809 461 22 51 811
 2022 0 809 819 820 0 +-.00719167260896334 .0431028511759813 -.005001 0 0 1 .001
 1 0 0 13 22 258 0 0 0 0 0 0 9 16 14 16 698 821 ?792 0 785 5 822 +0 0 792 0 22 8
1 1 821 2865 812 16 823 0 817 824 825 14 792 628 824 ?796 16 791 5 826 +0 0 796
 16 22 50 255 822 734 0 16 827 828 0 +-.00719167260896334 .0481028512504871 -.00
5 1 0 0 0 0 -1 50 827 733 0 784 829 822 0 +-.01719167260896335 .0481028512504871
 -.005 0 1 0 0 0 1 51 828 2337 0 740 822 830 0 +.00280625431086546 -.00589714982
239651 -.005 0 0 -1 .001 -1 0 0 14 740 2325 831 ?730 767 737 5 828 -0 0 730 767
 22 51 830 2358 0 730 828 19 0 +.00380625431086545 -.00589714982239651 -.005 0 0
 -1 .001 -1 0 0 14 730 2346 832 ?475 740 727 5 830 -0 0 475 740 22 51 19 2379 0
 475 830 6 0 +.00380625431086545 .0321028511759813 -.005 0 0 -1 .001 -1 0 0 14 4
75 2367 833 ?18 730 467 5 19 -0 0 18 730 22 81 1 833 2873 812 475 834 0 832 835
 836 14 18 2388 835 ?0 475 480 5 6 -0 0 0 475 22 81 1 835 2875 812 18 837 0 833
 838 839 80 255 1 812 840 841 9000 1 1 1 1 1 1 1 1 0 FFFFTFTFFFFFFF1 81 3 837 28
74 842 18 843 835 834 844 845 0 0 81 1 838 2877 812 461 844 0 835 846 847 82 255
 1 839 -222691099 14 461 1 838 ?316 784 455 5 820 -0 0 316 784 22 81 3 844 2876
 842 461 848 838 837 849 850 0 0 81 1 846 2879 812 742 849 0 838 851 852 82 1 84
7 -1196752667 14 742 678 846 ?748 733 741 5 853 +0 0 748 733 22 81 3 849 2878 84
2 742 854 846 844 855 856 0 0 81 1 851 2881 812 733 855 0 846 857 858 82 1 852 -
1198063387 14 733 676 851 ?742 859 731 5 860 +0 0 742 859 22 81 3 855 2880 842 7
33 861 851 849 862 863 0 0 81 1 857 2883 812 859 862 0 851 864 865 82 1 858 -119
8194459 14 859 674 857 ?733 721 726 5 866 +0 0 733 721 22 81 3 862 2882 842 859
 867 857 855 868 869 0 0 81 1 864 2885 812 471 868 0 857 870 871 82 1 865 -11983
25531 14 471 642 864 ?589 478 470 5 872 +0 0 589 478 22 81 3 868 2884 842 471 87
3 864 862 874 875 0 0 81 1 870 2887 812 478 874 0 864 876 877 82 1 871 -12004226
83 14 478 640 870 ?471 807 477 5 878 +0 0 471 807 22 81 3 874 2886 842 478 879 8
70 868 880 881 0 0 81 1 876 2889 812 807 880 0 870 882 883 82 1 877 -1200553755
 14 807 638 876 ?478 806 27 5 884 +0 0 478 806 22 81 3 880 2888 842 807 885 876
 874 886 887 0 0 81 1 882 2891 812 771 886 0 876 888 889 82 1 883 -1200684827 14
 771 690 882 ?775 764 770 5 890 +0 0 775 764 22 81 3 886 2890 842 771 891 882 88
0 892 893 0 0 81 1 888 2893 812 764 892 0 882 894 895 82 1 889 -1197276962 14 76
4 688 888 ?771 759 763 5 896 +0 0 771 759 22 81 3 892 2892 842 764 897 888 886 8
98 899 0 0 81 1 894 2895 812 706 898 0 888 900 901 82 1 895 -1197408034 14 706 6
64 894 ?710 698 705 5 902 +0 0 710 698 22 81 3 898 2894 842 706 903 894 892 904
 905 0 0 81 1 900 2897 812 698 904 0 894 906 907 82 1 901 -1198980898 14 698 662
 900 ?706 693 697 5 908 +0 0 706 693 22 81 3 904 2896 842 698 909 900 898 910 91
1 0 0 81 1 906 2899 812 308 910 0 900 912 913 82 1 907 -1199111970 14 308 654 90
6 ?569 604 305 5 914 +0 0 569 604 22 81 3 910 2898 842 308 915 906 904 916 917 0
 0 81 1 912 2901 812 604 916 0 906 918 919 82 1 913 -1199636258 14 604 652 912 ?
308 602 603 5 920 +0 0 308 602 22 81 3 916 2900 842 604 921 912 910 922 923 0 0
 81 1 918 2903 812 784 922 0 912 924 925 82 1 919 -1199767330 14 784 696 918 ?46
1 778 781 5 827 +0 0 461 778 22 81 3 922 2902 842 784 926 918 916 927 928 0 0 81
 1 924 2905 812 778 927 0 918 929 930 82 1 925 -153091882 14 778 694 924 ?784 77
5 776 5 829 +0 0 784 775 22 81 3 927 2904 842 778 931 924 922 932 933 0 0 81 1 9
29 2907 812 775 932 0 924 934 935 82 1 930 -153222954 14 775 692 929 ?778 771 77
4 5 936 +0 0 778 771 22 81 3 932 2906 842 775 937 929 927 938 939 0 0 81 1 934 2
909 812 759 938 0 929 940 941 82 1 935 -153354026 14 759 686 934 ?764 756 757 5
 942 +0 0 764 756 22 81 3 938 2908 842 759 943 934 932 944 945 0 0 81 1 940 2911
 812 756 944 0 934 946 947 82 1 941 -153747242 14 756 684 940 ?759 751 754 5 948
 +0 0 759 751 22 81 3 944 2910 842 756 949 940 938 950 951 0 0 81 1 946 2913 812
 751 950 0 940 952 953 82 1 947 -153878314 14 751 682 946 ?756 748 749 5 954 +0
 0 756 748 22 81 3 950 2912 842 751 955 946 944 956 957 0 0 81 1 952 2915 812 74
8 956 0 946 958 959 82 1 953 -154009386 14 748 680 952 ?751 742 746 5 960 +0 0 7
51 742 22 81 3 956 2914 842 748 961 952 950 962 963 0 0 81 1 958 2917 812 721 96
2 0 952 964 965 82 1 959 -154140458 14 721 672 958 ?859 718 719 5 966 +0 0 859 7
18 22 81 3 962 2916 842 721 967 958 956 968 969 0 0 81 1 964 2919 812 718 968 0
 958 970 971 82 1 965 -154664746 14 718 670 964 ?721 713 716 5 972 +0 0 721 713
 22 81 3 968 2918 842 718 973 964 962 974 975 0 0 81 1 970 2921 812 713 974 0 96
4 976 977 82 1 971 -154795818 14 713 668 970 ?718 710 711 5 978 +0 0 718 710 22
 81 3 974 2920 842 713 979 970 968 980 981 0 0 81 1 976 2923 812 710 980 0 970 9
82 983 82 1 977 -154926890 14 710 666 976 ?713 706 709 5 984 +0 0 713 706 22 81
 3 980 2922 842 710 985 976 974 986 987 0 0 81 1 982 2925 812 693 986 0 976 988
 989 82 1 983 -155057962 14 693 660 982 ?698 562 690 5 990 +0 0 698 562 22 81 3
 986 2924 842 693 991 982 980 992 993 0 0 81 1 988 2927 812 562 992 0 982 994 99
5 82 1 989 -155451178 14 562 658 988 ?693 569 561 5 996 +0 0 693 569 22 81 3 992
 2926 842 562 997 988 986 998 999 0 0 81 1 994 2929 812 569 998 0 988 1000 1001
 82 1 995 -155582250 14 569 656 994 ?562 308 566 5 1002 +0 0 562 308 22 81 3 998
 2928 842 569 1003 994 992 1004 1005 0 0 81 1 1000 2931 812 602 1004 0 994 1006
 1007 82 1 1001 -155713322 14 602 650 1000 ?604 597 599 5 1008 +0 0 604 597 22 8
1 3 1004 2930 842 602 1009 1000 998 1010 1011 0 0 81 1 1006 2933 812 597 1010 0
 1000 1012 1013 82 1 1007 -156106538 14 597 648 1006 ?602 594 595 5 1014 +0 0 60
2 594 22 81 3 1010 2932 842 597 1015 1006 1004 1016 1017 0 0 81 1 1012 2935 812
 594 1016 0 1006 1018 1019 82 1 1013 -156237610 14 594 646 1012 ?597 589 592 5 1
020 +0 0 597 589 22 81 3 1016 2934 842 594 1021 1012 1010 1022 1023 0 0 81 1 101
8 2937 812 589 1022 0 1012 1024 1025 82 1 1019 -156368682 14 589 644 1018 ?594 4
71 587 5 1026 +0 0 594 471 22 81 3 1022 2936 842 589 1027 1018 1016 1028 1029 0
 0 81 1 1024 2939 812 806 1028 0 1018 1030 1031 82 1 1025 -156499754 14 806 636
 1024 ?807 803 804 5 1032 +0 0 807 803 22 81 3 1028 2938 842 806 1033 1024 1022
 1034 1035 0 0 81 1 1030 2941 812 803 1034 0 1024 1036 1037 82 1 1031 -157024042
 14 803 634 1030 ?806 800 801 5 1038 +0 0 806 800 22 81 3 1034 2940 842 803 1039
 1030 1028 1040 1041 0 0 81 1 1036 2943 812 800 1040 0 1030 1042 1043 82 1 1037
 -157155114 14 800 632 1036 ?803 796 798 5 1044 +0 0 803 796 22 81 3 1040 2942 8
42 800 1045 1036 1034 1046 1047 0 0 81 1 1042 2945 812 796 1046 0 1036 1048 1049
 82 1 1043 -157286186 14 796 630 1042 ?800 792 794 5 1050 +0 0 800 792 22 81 3 1
046 2944 842 796 1051 1042 1040 0 1052 0 0 81 1 1048 2946 812 702 1053 0 1042 10
54 1055 82 1 1049 -157417258 14 702 1912 1048 ?767 296 700 5 1056 -0 0 767 296 2
2 81 1 1053 2718 1057 702 0 1048 1058 1059 1060 81 1 1054 2947 812 767 1059 0 10
48 0 1061 82 1 1055 -2003369762 14 767 1872 1054 ?740 702 766 5 819 -0 0 740 702
 22 81 1 1059 2719 1057 767 0 1054 1053 1062 1063 82 1 1061 -1999437602 80 1 105
7 0 1064 8001 0 0 0 0 3 5 0 0 0 FFFFTFTFFFFFFF2 81 1 1062 2720 1057 740 0 1065 1
059 1066 1067 83 255 3 1063 .752941176470588 .752941176470588 .752941176470588 8
1 3 1065 2868 842 740 1062 831 1068 1069 1070 0 0 81 1 1066 2721 1057 730 0 1069
 1062 1071 1072 83 3 1067 .752941176470588 .752941176470588 .752941176470588 81
 3 1069 2870 842 730 1066 832 1065 834 1073 0 0 81 1 1071 2722 1057 475 0 834 10
66 843 1074 83 3 1072 .752941176470588 .752941176470588 .752941176470588 81 3 83
4 2872 842 475 1071 833 1069 837 1075 0 0 81 1 843 2723 1057 18 0 837 1071 0 107
6 83 3 1074 .752941176470588 .752941176470588 .752941176470588 83 3 1076 .752941
176470588 .752941176470588 .752941176470588 80 3 842 1077 1078 9000 0 0 0 0 3 6
 0 0 0 FFTTTTTTFFFFTT1 1 1 82 3 1075 738924 4 0 79 255 12 1078 GENERIC_PERM81 1
 832 2871 812 730 1069 0 831 833 1079 82 3 1073 738924 4 0 81 1 831 2869 812 740
 1065 0 824 832 1080 82 1 1079 -226623259 81 1 824 2867 812 792 1068 0 821 831 1
081 82 1 1080 -228589339 81 3 1068 2866 842 792 1082 824 823 1065 1083 0 0 82 1
 1081 -1201667874 81 1 1082 2679 1057 792 0 1068 1084 1051 1085 81 3 823 2864 84
2 16 1084 821 1086 1068 1087 0 0 82 3 1083 738924 4 0 81 1 1084 2678 1057 16 0 8
23 0 1082 1088 81 3 1086 2862 842 316 1089 817 0 823 1090 0 0 82 3 1087 738924 4
 0 81 1 1089 2715 1057 316 0 1086 848 813 1091 81 1 817 2863 812 316 1086 0 814
 821 1092 82 3 1090 738924 3 0 81 1 814 2861 812 296 1058 0 810 817 1093 82 1 10
92 -1196621595 81 1 1058 2717 1057 296 0 814 813 1053 1094 82 1 1093 -2007301922
 81 1 813 2716 1057 809 0 810 1089 1058 1095 83 3 1094 .752941176470588 .7529411
76470588 .752941176470588 83 3 1095 .752941176470588 .752941176470588 .752941176
470588 81 1 848 2714 1057 461 0 844 926 1089 1096 83 3 1091 .752941176470588 .75
2941176470588 .752941176470588 81 1 926 2713 1057 784 0 922 931 848 1097 83 3 10
96 .752941176470588 .752941176470588 .752941176470588 81 1 931 2712 1057 778 0 9
27 937 926 1098 83 3 1097 .752941176470588 .752941176470588 .752941176470588 81
 1 937 2711 1057 775 0 932 891 931 1099 83 3 1098 .752941176470588 .752941176470
588 .752941176470588 81 1 891 2710 1057 771 0 886 897 937 1100 83 3 1099 .752941
176470588 .752941176470588 .752941176470588 81 1 897 2709 1057 764 0 892 943 891
 1101 83 3 1100 .752941176470588 .752941176470588 .752941176470588 81 1 943 2708
 1057 759 0 938 949 897 1102 83 3 1101 .752941176470588 .752941176470588 .752941
176470588 81 1 949 2707 1057 756 0 944 955 943 1103 83 3 1102 .752941176470588 .
752941176470588 .752941176470588 81 1 955 2706 1057 751 0 950 961 949 1104 83 3
 1103 .752941176470588 .752941176470588 .752941176470588 81 1 961 2705 1057 748
 0 956 854 955 1105 83 3 1104 .752941176470588 .752941176470588 .752941176470588
 81 1 854 2704 1057 742 0 849 861 961 1106 83 3 1105 .752941176470588 .752941176
470588 .752941176470588 81 1 861 2703 1057 733 0 855 867 854 1107 83 3 1106 .752
941176470588 .752941176470588 .752941176470588 81 1 867 2702 1057 859 0 862 967
 861 1108 83 3 1107 .752941176470588 .752941176470588 .752941176470588 81 1 967
 2701 1057 721 0 962 973 867 1109 83 3 1108 .752941176470588 .752941176470588 .7
52941176470588 81 1 973 2700 1057 718 0 968 979 967 1110 83 3 1109 .752941176470
588 .752941176470588 .752941176470588 81 1 979 2699 1057 713 0 974 985 973 1111
 83 3 1110 .752941176470588 .752941176470588 .752941176470588 81 1 985 2698 1057
 710 0 980 903 979 1112 83 3 1111 .752941176470588 .752941176470588 .75294117647
0588 81 1 903 2697 1057 706 0 898 909 985 1113 83 3 1112 .752941176470588 .75294
1176470588 .752941176470588 81 1 909 2696 1057 698 0 904 991 903 1114 83 3 1113
 .752941176470588 .752941176470588 .752941176470588 81 1 991 2695 1057 693 0 986
 997 909 1115 83 3 1114 .752941176470588 .752941176470588 .752941176470588 81 1
 997 2694 1057 562 0 992 1003 991 1116 83 3 1115 .752941176470588 .7529411764705
88 .752941176470588 81 1 1003 2693 1057 569 0 998 915 997 1117 83 3 1116 .752941
176470588 .752941176470588 .752941176470588 81 1 915 2692 1057 308 0 910 921 100
3 1118 83 3 1117 .752941176470588 .752941176470588 .752941176470588 81 1 921 269
1 1057 604 0 916 1009 915 1119 83 3 1118 .752941176470588 .752941176470588 .7529
41176470588 81 1 1009 2690 1057 602 0 1004 1015 921 1120 83 3 1119 .752941176470
588 .752941176470588 .752941176470588 81 1 1015 2689 1057 597 0 1010 1021 1009 1
121 83 3 1120 .752941176470588 .752941176470588 .752941176470588 81 1 1021 2688
 1057 594 0 1016 1027 1015 1122 83 3 1121 .752941176470588 .752941176470588 .752
941176470588 81 1 1027 2687 1057 589 0 1022 873 1021 1123 83 3 1122 .75294117647
0588 .752941176470588 .752941176470588 81 1 873 2686 1057 471 0 868 879 1027 112
4 83 3 1123 .752941176470588 .752941176470588 .752941176470588 81 1 879 2685 105
7 478 0 874 885 873 1125 83 3 1124 .752941176470588 .752941176470588 .7529411764
70588 81 1 885 2684 1057 807 0 880 1033 879 1126 83 3 1125 .752941176470588 .752
941176470588 .752941176470588 81 1 1033 2683 1057 806 0 1028 1039 885 1127 83 3
 1126 .752941176470588 .752941176470588 .752941176470588 81 1 1039 2682 1057 803
 0 1034 1045 1033 1128 83 3 1127 .752941176470588 .752941176470588 .752941176470
588 81 1 1045 2681 1057 800 0 1040 1051 1039 1129 83 3 1128 .752941176470588 .75
2941176470588 .752941176470588 81 1 1051 2680 1057 796 0 1046 1082 1045 1130 83
 3 1129 .752941176470588 .752941176470588 .752941176470588 83 3 1130 .7529411764
70588 .752941176470588 .752941176470588 83 3 1088 .752941176470588 .752941176470
588 .752941176470588 83 3 1085 .752941176470588 .752941176470588 .75294117647058
8 82 3 1070 738924 4 0 79 15 1064 SDL/TYSA_COLOUR51 819 2027 0 767 1056 811 0 +-
.00719167260896334 -.0168971498223965 -.005001 0 0 1 .001 1 0 0 51 1056 2032 0 7
02 816 819 0 +.01380418123069424 -.0168971498223965 -.005001 0 0 1 .001 1 0 0 51
 816 2037 0 296 0 1056 0 +.01380418123069424 .0431028511759813 -.005001 0 0 1 .0
01 1 0 0 83 3 1060 .752941176470588 .752941176470588 .752941176470588 82 3 1052
 738924 4 0 50 1050 700 0 796 826 1044 0 +.00180625431086546 .0431028511759813 -
.005 1 0 0 0 0 -1 50 826 699 0 792 818 1050 0 +-.00719167260896334 .043102851175
9813 -.005 0 1 0 0 0 1 50 1044 701 0 800 1050 1038 0 +.00180625431086546 .037302
8511759813 -.005 0 -1 0 0 0 -1 50 1038 702 0 803 1044 1032 0 +.00060625431086544
5 .0373028511759813 -.005 1 0 0 0 0 -1 50 1032 703 0 806 1038 884 0 +.0006062543
10865445 .0349028511759813 -.005 0 1 0 0 0 1 50 884 704 0 807 1032 878 0 +.00180
625431086546 .0349028511759813 -.005 1 0 0 0 0 -1 50 878 705 0 478 884 872 0 +.0
0180625431086546 .0311028511759813 -.005 0 1 0 0 0 1 50 872 706 0 471 878 1026 0
 +.00480625431086545 .0311028511759813 -.005 -1 0 0 0 0 1 50 1026 707 0 589 872
 1020 0 +.00480625431086545 .0349028511759813 -.005 0 1 0 0 0 1 50 1020 708 0 59
4 1026 1014 0 +.00600625431086545 .0349028511759813 -.005 -1 0 0 0 0 1 50 1014 7
09 0 597 1020 1008 0 +.00600625431086545 .0373028511759813 -.005 0 -1 0 0 0 -1 5
0 1008 710 0 602 1014 920 0 +.00480625431086545 .0373028511759813 -.005 -1 0 0 0
 0 1 50 920 711 0 604 1008 914 0 +.00480625431086545 .0431028511759813 -.005 0 1
 0 0 0 1 50 914 712 0 308 920 1002 0 +.01380418123069424 .0431028511759813 -.005
 -1 0 0 0 0 1 50 1002 713 0 569 914 996 0 +.01380418123069424 .0481028511759813
 -.005 0 1 0 0 0 1 50 996 714 0 562 1002 990 0 +.02380418123069425 .048102851175
9813 -.005 1 0 0 0 0 -1 50 990 715 0 693 996 908 0 +.02380418123069425 -.0218971
498223965 -.005 0 -1 0 0 0 -1 50 908 716 0 698 990 902 0 +.01380418123069424 -.0
218971498223965 -.005 -1 0 0 0 0 1 50 902 717 0 706 908 984 0 +.0138041812306942
4 -.0168971498223965 -.005 0 -1 0 0 0 -1 50 984 718 0 710 902 978 0 +.0048062543
1086545 -.0168971498223965 -.005 -1 0 0 0 0 1 50 978 719 0 713 984 972 0 +.00480
625431086545 -.01109714982239652 -.005 -722801448323666e-29 1 0 -1 -722801448323
666e-29 0 50 972 720 0 718 978 966 0 +.00600625431086545 -.0110971498223965 -.00
5 -1 0 0 0 0 1 50 966 721 0 721 972 866 0 +.00600625431086545 -.0086971498223965
1 -.005 0 -1 0 0 0 -1 50 866 722 0 859 966 860 0 +.00480625431086545 -.008697149
82239651 -.005 -1 0 0 0 0 1 50 860 723 0 733 866 853 0 +.00480625431086545 -.004
89714982239651 -.005 0 -1 0 0 0 -1 50 853 724 0 742 860 960 0 +.0018062543108654
6 -.00489714982239651 -.005 1 0 0 0 0 -1 50 960 725 0 748 853 954 0 +.0018062543
1086546 -.00869714982239651 -.005 0 -1 0 0 0 -1 50 954 726 0 751 960 948 0 +.000
606254310865459 -.00869714982239651 -.005 1 0 0 0 0 -1 50 948 727 0 756 954 942
 0 +.000606254310865459 -.01109714982239652 -.005 0 1 0 0 0 1 50 942 728 0 759 9
48 896 0 +.00180625431086546 -.01109714982239652 -.005 1 0 0 0 0 -1 50 896 729 0
 764 942 890 0 +.00180625431086546 -.0168971498223965 -.005 0 -1 0 0 0 -1 50 890
 730 0 771 896 936 0 +-.00719167260896334 -.0168971498223965 -.005 1 0 0 0 0 -1
 50 936 731 0 775 890 829 0 +-.00719167260896334 -.0218971498223965 -.005 0 -1 0
 0 0 -1 50 829 732 0 778 936 827 0 +-.01719167260896335 -.0218971498223965 -.005
 -1 0 0 0 0 1 50 818 518 0 316 820 826 0 +0 0 0 0 0 1 1 0 0 50 820 3 0 461 811 8
18 0 +0 0 -.005 0 0 1 1 0 0 82 3 1047 738924 4 0 82 3 1041 738924 4 0 82 3 1035
 738924 4 0 82 3 1029 738924 4 0 82 3 1023 738924 4 0 82 3 1017 738924 4 0 82 3
 1011 738924 4 0 82 3 1005 738924 4 0 82 3 999 738924 4 0 82 3 993 738924 4 0 82
 3 987 738924 4 0 82 3 981 738924 4 0 82 3 975 738924 4 0 82 3 969 738924 4 0 82
 3 963 738924 4 0 82 3 957 738924 4 0 82 3 951 738924 4 0 82 3 945 738924 4 0 82
 3 939 738924 4 0 82 3 933 738924 4 0 82 3 928 738924 4 0 82 3 923 738924 4 0 82
 3 917 738924 4 0 82 3 911 738924 4 0 82 3 905 738924 4 0 82 3 899 738924 4 0 82
 3 893 738924 4 0 82 3 887 738924 4 0 82 3 881 738924 4 0 82 3 875 738924 4 0 82
 3 869 738924 4 0 15 726 673 0 735 859 0 17 735 0 726 57 404 58 148 538 0 728 -1
7 57 0 726 231 735 55 728 433 0 723 +17 404 0 726 735 231 146 722 402 0 720 +17
 148 0 35 542 60 146 735 538 0 404 +17 542 0 35 545 148 143 720 540 0 0 +17 545
 0 35 548 542 140 717 543 0 0 +17 548 0 35 551 545 137 712 546 0 0 +82 3 863 738
924 4 0 82 3 856 738924 4 0 82 3 850 738924 2 0 82 3 845 738924 4 0 79 14 841 SW
EntUnchanged82 1 836 -224657179 82 1 825 -1201471266 82 1 815 -2011299618 17 508
 0 35 511 175 170 783 505 0 0 +17 511 0 35 514 508 167 777 509 0 0 +17 522 0 35
 525 163 158 758 520 0 0 +17 525 0 35 528 522 155 755 523 0 0 +17 528 0 35 531 5
25 152 750 526 0 0 +17 531 0 35 534 528 149 747 529 0 0 +17 725 0 455 75 63 64 6
68 666 0 739 -17 739 0 737 734 738 64 75 446 0 0 -17 66 0 731 668 732 64 734 431
 0 725 +17 560 0 690 691 130 131 558 557 0 0 -17 287 0 292 81 290 266 298 303 0
 299 +17 121 0 35 329 293 119 302 320 0 384 +17 329 0 35 332 121 116 601 322 0 0
 +17 332 0 35 335 329 113 596 330 0 0 +17 335 0 35 338 332 110 593 333 0 0 +17 3
38 0 35 341 335 107 588 336 0 0 +17 588 0 587 195 109 110 338 336 0 335 -17 472
 0 470 192 437 107 341 339 0 338 -19 17 772 0 1 0 9 5 S0 74 4 CI16 index_map_off
set0 0 1 dCCZ20 15 10 0 0 1046 1131 1132 1054 1133 1134 1135 13 843 2 0 0 0 0 0
 0 0 0 0 0 81 2 1131 922 1136 1 0 1132 0 0 0 1137 81 2 1132 923 1138 1 1131 1133
 0 0 0 1139 81 2 1133 1104 1140 1 1132 1134 0 0 0 1141 81 2 1134 1195 1142 1 113
3 1135 0 0 1143 0 81 1 1135 2430 1144 1 1134 13 0 0 1145 81 2 13 2636 1146 1 113
5 2 0 0 0 0 80 2 1146 1147 1148 9000 0 0 0 0 3 5 0 0 0 FFTFFFFFFFFFFF9 1 79 16 1
148 BODY_RECIPE_200180 1 1144 1149 1150 9000 1 1 1 1 1 1 1 1 0 FFTFFFFFFFFFFF1 8
2 1 1145 1488646 79 10 1150 BODY_MATCH80 2 1142 1151 1152 8004 0 0 0 0 3 5 0 0 0
 FFTFFFFFFFFFFF2 3 83 1 1143 12e2 79 16 1152 SDL/TYSA_DENSITY80 2 1140 1153 1154
 9000 0 0 0 0 3 5 0 0 0 FFTFFFFFFFFFFF9 1 82 1 1141 1 79 24 1154 BODY_IN_LIGHTWE
IGHT_PERM80 2 1138 1155 1156 9000 0 0 0 0 3 5 0 0 0 FFTFFFFFFFFFFF9 1 82 1 1139
 130 79 19 1156 ENT_TIME_STAMP_200180 2 1136 1157 1158 9000 0 0 0 0 3 5 0 0 0 FF
TFFFFFFFFFFF9 1 82 1 1137 134 79 30 1158 LAST_BODY_MODIFYING_FEATURE_ID80 2 12 1
159 1160 9000 0 0 0 0 3 5 0 0 0 FFTFFFFFFFFFFF9 1 82 1 14 107 79 12 1160 ATOM_ID
_20011 0 
