0
SECTION
2
HEADER
9
$INSUNITS
70
4
9
$ACADVER
1
AC1014
9
$HANDSEED
5
FFFF
0
ENDSEC
0
SECTION
2
TABLES
0
TABLE
2
VPORT
5
8
100
AcDbSymbolTable
0
ENDTAB
0
TABLE
2
LTYPE
5
5
100
AcDbSymbolTable
0
LTYPE
5
14
100
AcDbSymbolTableRecord
100
AcDbLinetypeTableRecord
2
BYBLOCK
70
0
0
LTYPE
5
15
100
AcDbSymbolTableRecord
100
AcDbLinetypeTableRecord
2
BYLAYER
70
0
0
ENDTAB
0
TABLE
2
LAYER
5
2
100
AcDbSymbolTable
70
2
0
LAYER
5
50
100
AcDbSymbolTableRecord
100
AcDbLayerTableRecord
2
0
70
0
6
CONTINUOUS
0
ENDTAB
0
TABLE
2
STYLE
5
3
100
AcDbSymbolTable
70
1
0
STYLE
5
11
100
AcDbSymbolTableRecord
100
AcDbTextStyleTableRecord
2
STANDARD
70
0
0
ENDTAB
0
TABLE
2
VIEW
5
6
100
AcDbSymbolTable
70
0
0
ENDTAB
0
TABLE
2
UCS
5
7
100
AcDbSymbolTable
70
0
0
ENDTAB
0
TABLE
2
APPID
5
9
100
AcDbSymbolTable
70
2
0
APPID
5
12
100
AcDbSymbolTableRecord
100
AcDbRegAppTableRecord
2
ACAD
70
0
0
ENDTAB
0
TABLE
2
DIMSTYLE
5
A
100
AcDbSymbolTable
70
1
0
ENDTAB
0
TABLE
2
BLOCK_RECORD
5
1
100
AcDbSymbolTable
70
1
0
BLOCK_RECORD
5
1F
100
AcDbSymbolTableRecord
100
AcDbBlockTableRecord
2
*MODEL_SPACE
0
BLOCK_RECORD
5
1B
100
AcDbSymbolTableRecord
100
AcDbBlockTableRecord
2
*PAPER_SPACE
0
ENDTAB
0
ENDSEC
0
SECTION
2
BLOCKS
0
BLOCK
5
20
100
AcDbEntity
100
AcDbBlockBegin
2
*MODEL_SPACE
0
ENDBLK
5
21
100
AcDbEntity
100
AcDbBlockEnd
0
BLOCK
5
1C
100
AcDbEntity
100
AcDbBlockBegin
2
*PAPER_SPACE
0
ENDBLK
5
1D
100
AcDbEntity
100
AcDbBlockEnd
0
ENDSEC
0
SECTION
2
ENTITIES
0
CIRCLE
5
100
100
AcDbEntity
8
0
100
AcDbCircle
10
28.750000506639477
20
100.75000141561031
30
0
40
1.4999999999999991
210
0
220
-0
230
1
0
CIRCLE
5
101
100
AcDbEntity
8
0
100
AcDbCircle
10
28.750000506639477
20
89.250001415610299
30
0
40
1.4999999999999991
210
0
220
-0
230
1
0
CIRCLE
5
102
100
AcDbEntity
8
0
100
AcDbCircle
10
40.250000506639481
20
89.250001415610299
30
0
40
1.4999999999999947
210
0
220
-0
230
1
0
CIRCLE
5
103
100
AcDbEntity
8
0
100
AcDbCircle
10
40.250000506639481
20
100.75000141561031
30
0
40
1.4999999999999947
210
0
220
-0
230
1
0
CIRCLE
5
104
100
AcDbEntity
8
0
100
AcDbCircle
10
34.500000506639481
20
95.000001415610313
30
0
40
5.349999999999997
210
0
220
-0
230
1
0
LWPOLYLINE
5
105
100
AcDbEntity
8
0
100
AcDbPolyline
90
28
70
1
43
0.0
10
52.500000804662704
20
100.00000149011612
10
52.500000804662704
20
90.000001341104507
10
56.500000834465027
20
90.000001341104507
10
56.500000834465027
20
87.000001296401024
10
62.500000923871994
20
87.000001296401024
10
62.500000923871994
20
79.000001177191734
10
56.500000834465027
20
79.000001177191734
10
56.500000834465027
20
75.000001057982445
10
12.500000178813933
20
75.000001057982445
10
12.500000178813933
20
79.000001177191734
10
6.5000000894069654
20
79.000001177191734
10
6.5000000894069654
20
87.000001296401024
10
12.500000178813933
20
87.000001296401024
10
12.500000178813933
20
90.000001341104507
10
16.500000208616257
20
90.000001341104507
10
16.500000208616257
20
100.00000149011612
10
12.500000178813933
20
100.00000149011612
10
12.500000178813933
20
103.0000015348196
10
6.5000000894069654
20
103.0000015348196
10
6.5000000894069654
20
111.00000165402889
10
12.500000178813933
20
111.00000165402889
10
12.500000178813933
20
115.00000177323818
10
56.500000834465027
20
115.00000177323818
10
56.500000834465027
20
111.00000165402889
10
62.500000923871994
20
111.00000165402889
10
62.500000923871994
20
103.0000015348196
10
56.500000834465027
20
103.0000015348196
10
56.500000834465027
20
100.00000149011612
0
ENDSEC
0
SECTION
2
OBJECTS
0
DICTIONARY
5
C
100
AcDbDictionary
3
ACAD_GROUP
350
D
3
ACAD_MLINESTYLE
350
17
0
DICTIONARY
5
D
100
AcDbDictionary
0
DICTIONARY
5
1A
330
C
100
AcDbDictionary
0
DICTIONARY
5
17
100
AcDbDictionary
0
ENDSEC
0
EOF
