0
SECTION
2
HEADER
9
$INSUNITS
70
4
9
$ACADVER
1
AC1014
9
$HANDSEED
5
FFFF
0
ENDSEC
0
SECTION
2
TABLES
0
TABLE
2
VPORT
5
8
100
AcDbSymbolTable
0
ENDTAB
0
TABLE
2
LTYPE
5
5
100
AcDbSymbolTable
0
LTYPE
5
14
100
AcDbSymbolTableRecord
100
AcDbLinetypeTableRecord
2
BYBLOCK
70
0
0
LTYPE
5
15
100
AcDbSymbolTableRecord
100
AcDbLinetypeTableRecord
2
BYLAYER
70
0
0
ENDTAB
0
TABLE
2
LAYER
5
2
100
AcDbSymbolTable
70
2
0
LAYER
5
50
100
AcDbSymbolTableRecord
100
AcDbLayerTableRecord
2
0
70
0
6
CONTINUOUS
0
ENDTAB
0
TABLE
2
STYLE
5
3
100
AcDbSymbolTable
70
1
0
STYLE
5
11
100
AcDbSymbolTableRecord
100
AcDbTextStyleTableRecord
2
STANDARD
70
0
0
ENDTAB
0
TABLE
2
VIEW
5
6
100
AcDbSymbolTable
70
0
0
ENDTAB
0
TABLE
2
UCS
5
7
100
AcDbSymbolTable
70
0
0
ENDTAB
0
TABLE
2
APPID
5
9
100
AcDbSymbolTable
70
2
0
APPID
5
12
100
AcDbSymbolTableRecord
100
AcDbRegAppTableRecord
2
ACAD
70
0
0
ENDTAB
0
TABLE
2
DIMSTYLE
5
A
100
AcDbSymbolTable
70
1
0
ENDTAB
0
TABLE
2
BLOCK_RECORD
5
1
100
AcDbSymbolTable
70
1
0
BLOCK_RECORD
5
1F
100
AcDbSymbolTableRecord
100
AcDbBlockTableRecord
2
*MODEL_SPACE
0
BLOCK_RECORD
5
1B
100
AcDbSymbolTableRecord
100
AcDbBlockTableRecord
2
*PAPER_SPACE
0
ENDTAB
0
ENDSEC
0
SECTION
2
BLOCKS
0
BLOCK
5
20
100
AcDbEntity
100
AcDbBlockBegin
2
*MODEL_SPACE
0
ENDBLK
5
21
100
AcDbEntity
100
AcDbBlockEnd
0
BLOCK
5
1C
100
AcDbEntity
100
AcDbBlockBegin
2
*PAPER_SPACE
0
ENDBLK
5
1D
100
AcDbEntity
100
AcDbBlockEnd
0
ENDSEC
0
SECTION
2
ENTITIES
0
CIRCLE
5
100
100
AcDbEntity
8
0
100
AcDbCircle
10
34.500000506639481
20
95.000001415610313
30
0
40
5.349999999999997
210
0
220
0
230
1
0
LWPOLYLINE
5
101
100
AcDbEntity
8
0
100
AcDbPolyline
90
44
70
1
43
0.0
10
52.500000804662704
20
90.000001341104507
10
56.500000834465027
20
90.000001341104507
10
56.500000834465027
20
68.000001013278961
10
62.500000923871994
20
68.000001013278961
10
62.500000923871994
20
58.000000864267349
10
6.5000000894069654
20
58.000000864267349
10
6.5000000894069654
20
68.000001013278961
10
12.500000178813933
20
68.000001013278961
10
12.500000178813933
20
90.000001341104507
10
16.500000208616257
20
90.000001341104507
10
16.500000208616257
20
100.00000149011612
10
12.500000178813933
20
100.00000149011612
10
12.500000178813933
20
112.00000166893005
10
19.300000327825543
20
112.00000166893005
10
19.300000327825543
20
110.90000172108412
10
21.700000327825542
20
110.90000172108412
10
21.700000327825542
20
112.00000166893005
10
22.500000327825546
20
112.00000166893005
10
22.500000327825546
20
115.00000177323818
10
21.700000327825542
20
115.00000177323818
10
21.700000327825542
20
116.10000172108413
10
19.300000327825543
20
116.10000172108413
10
19.300000327825543
20
115.00000177323818
10
12.500000178813933
20
115.00000177323818
10
12.500000178813933
20
120.00000178813934
10
6.5000000894069654
20
120.00000178813934
10
6.5000000894069654
20
130.00000193715096
10
62.500000923871994
20
130.00000193715096
10
62.500000923871994
20
120.00000178813934
10
56.500000834465027
20
120.00000178813934
10
56.500000834465027
20
115.00000177323818
10
49.700000685453418
20
115.00000177323818
10
49.700000685453418
20
116.10000172108413
10
47.300000685453412
20
116.10000172108413
10
47.300000685453412
20
115.00000177323818
10
46.500000685453415
20
115.00000177323818
10
46.500000685453415
20
112.00000166893005
10
47.300000685453412
20
112.00000166893005
10
47.300000685453412
20
110.90000172108412
10
49.700000685453418
20
110.90000172108412
10
49.700000685453418
20
112.00000166893005
10
56.500000834465027
20
112.00000166893005
10
56.500000834465027
20
100.00000149011612
10
52.500000804662704
20
100.00000149011612
0
ENDSEC
0
SECTION
2
OBJECTS
0
DICTIONARY
5
C
100
AcDbDictionary
3
ACAD_GROUP
350
D
3
ACAD_MLINESTYLE
350
17
0
DICTIONARY
5
D
100
AcDbDictionary
0
DICTIONARY
5
1A
330
C
100
AcDbDictionary
0
DICTIONARY
5
17
100
AcDbDictionary
0
ENDSEC
0
EOF
