0
SECTION
2
HEADER
9
$INSUNITS
70
4
9
$ACADVER
1
AC1014
9
$HANDSEED
5
FFFF
0
ENDSEC
0
SECTION
2
TABLES
0
TABLE
2
VPORT
5
8
100
AcDbSymbolTable
0
ENDTAB
0
TABLE
2
LTYPE
5
5
100
AcDbSymbolTable
0
LTYPE
5
14
100
AcDbSymbolTableRecord
100
AcDbLinetypeTableRecord
2
BYBLOCK
70
0
0
LTYPE
5
15
100
AcDbSymbolTableRecord
100
AcDbLinetypeTableRecord
2
BYLAYER
70
0
0
ENDTAB
0
TABLE
2
LAYER
5
2
100
AcDbSymbolTable
70
2
0
LAYER
5
50
100
AcDbSymbolTableRecord
100
AcDbLayerTableRecord
2
0
70
0
6
CONTINUOUS
0
ENDTAB
0
TABLE
2
STYLE
5
3
100
AcDbSymbolTable
70
1
0
STYLE
5
11
100
AcDbSymbolTableRecord
100
AcDbTextStyleTableRecord
2
STANDARD
70
0
0
ENDTAB
0
TABLE
2
VIEW
5
6
100
AcDbSymbolTable
70
0
0
ENDTAB
0
TABLE
2
UCS
5
7
100
AcDbSymbolTable
70
0
0
ENDTAB
0
TABLE
2
APPID
5
9
100
AcDbSymbolTable
70
2
0
APPID
5
12
100
AcDbSymbolTableRecord
100
AcDbRegAppTableRecord
2
ACAD
70
0
0
ENDTAB
0
TABLE
2
DIMSTYLE
5
A
100
AcDbSymbolTable
70
1
0
ENDTAB
0
TABLE
2
BLOCK_RECORD
5
1
100
AcDbSymbolTable
70
1
0
BLOCK_RECORD
5
1F
100
AcDbSymbolTableRecord
100
AcDbBlockTableRecord
2
*MODEL_SPACE
0
BLOCK_RECORD
5
1B
100
AcDbSymbolTableRecord
100
AcDbBlockTableRecord
2
*PAPER_SPACE
0
ENDTAB
0
ENDSEC
0
SECTION
2
BLOCKS
0
BLOCK
5
20
100
AcDbEntity
100
AcDbBlockBegin
2
*MODEL_SPACE
0
ENDBLK
5
21
100
AcDbEntity
100
AcDbBlockEnd
0
BLOCK
5
1C
100
AcDbEntity
100
AcDbBlockBegin
2
*PAPER_SPACE
0
ENDBLK
5
1D
100
AcDbEntity
100
AcDbBlockEnd
0
ENDSEC
0
SECTION
2
ENTITIES
0
CIRCLE
5
100
100
AcDbEntity
8
0
100
AcDbCircle
10
-37.000000551342964
20
104.50000141561031
30
0
40
1.6000000000000014
210
0
220
0
230
1
0
CIRCLE
5
101
100
AcDbEntity
8
0
100
AcDbCircle
10
-37.000000551342964
20
85.500001415610299
30
0
40
1.6000000000000014
210
0
220
0
230
1
0
CIRCLE
5
102
100
AcDbEntity
8
0
100
AcDbCircle
10
-42.750000506639481
20
89.250001694039184
30
0
40
1.5000000000000036
210
0
220
0
230
1
0
CIRCLE
5
103
100
AcDbEntity
8
0
100
AcDbCircle
10
-31.250000506639477
20
100.7500016940392
30
0
40
1.4999999999999991
210
0
220
0
230
1
0
CIRCLE
5
104
100
AcDbEntity
8
0
100
AcDbCircle
10
-31.250000506639477
20
89.250001694039184
30
0
40
1.4999999999999991
210
0
220
0
230
1
0
CIRCLE
5
105
100
AcDbEntity
8
0
100
AcDbCircle
10
-42.750000506639481
20
100.7500016940392
30
0
40
1.5000000000000036
210
0
220
0
230
1
0
LINE
5
106
100
AcDbEntity
8
0
100
AcDbLine
10
-18.800000774301097
20
82.000002051667281
30
0
11
-12.000000178813934
21
82.000002051667281
31
0
0
LINE
5
107
100
AcDbEntity
8
0
100
AcDbLine
10
-12.000000178813934
20
82.000002051667281
30
0
11
-12.000000178813934
21
79.00000145562062
31
0
0
LINE
5
108
100
AcDbEntity
8
0
100
AcDbLine
10
-12.000000178813934
20
79.00000145562062
30
0
11
-7.5000000894069663
21
79.000001455620691
31
0
0
LINE
5
109
100
AcDbEntity
8
0
100
AcDbLine
10
-7.5000000894069663
20
79.000001455620691
30
0
11
-7.5000000894069663
21
87.000001574829966
31
0
0
LINE
5
110
100
AcDbEntity
8
0
100
AcDbLine
10
-7.5000000894069663
20
87.000001574829966
30
0
11
-12.000000178813933
21
87.000001574829966
31
0
0
LINE
5
111
100
AcDbEntity
8
0
100
AcDbLine
10
-12.000000178813933
20
87.000001574829966
30
0
11
-12.000000178813933
21
90.00000161953345
31
0
0
LINE
5
112
100
AcDbEntity
8
0
100
AcDbLine
10
-12.000000178813933
20
90.00000161953345
30
0
11
-19.000000208616253
21
90.00000161953345
31
0
0
LINE
5
113
100
AcDbEntity
8
0
100
AcDbLine
10
-19.000000208616253
20
90.00000161953345
30
0
11
-19.000000208616253
21
100.00000176854506
31
0
0
LINE
5
114
100
AcDbEntity
8
0
100
AcDbLine
10
-19.000000208616253
20
100.00000176854506
30
0
11
-12.000000178813933
21
100.00000176854506
31
0
0
LINE
5
115
100
AcDbEntity
8
0
100
AcDbLine
10
-12.000000178813933
20
100.00000176854506
30
0
11
-12.000000178813933
21
103.00000181324855
31
0
0
LINE
5
116
100
AcDbEntity
8
0
100
AcDbLine
10
-12.000000178813933
20
103.00000181324855
30
0
11
-7.5000000894069663
21
103.00000181324855
31
0
0
LINE
5
117
100
AcDbEntity
8
0
100
AcDbLine
10
-7.5000000894069663
20
103.00000181324855
30
0
11
-7.5000000894069663
21
108.00000193245782
31
0
0
LINE
5
118
100
AcDbEntity
8
0
100
AcDbLine
10
-7.5000000894069663
20
108.00000193245782
30
0
11
-12.000000178813933
21
108.00000193245782
31
0
0
LINE
5
119
100
AcDbEntity
8
0
100
AcDbLine
10
-12.000000178813933
20
108.00000193245782
30
0
11
-12.000000178813933
21
110.5000019473591
31
0
0
LINE
5
120
100
AcDbEntity
8
0
100
AcDbLine
10
-12.000000178813933
20
110.5000019473591
30
0
11
-18.800000768788689
21
110.5000019473591
31
0
0
LINE
5
121
100
AcDbEntity
8
0
100
AcDbLine
10
-18.800000768788689
20
110.5000019473591
30
0
11
-18.800000768788689
21
109.30000200591556
31
0
0
LINE
5
122
100
AcDbEntity
8
0
100
AcDbLine
10
-18.800000768788689
20
109.30000200591556
30
0
11
-21.200000774860381
21
109.30000200591556
31
0
0
LINE
5
123
100
AcDbEntity
8
0
100
AcDbLine
10
-21.200000774860381
20
109.30000200591556
30
0
11
-21.200000774866478
21
110.5000019473591
31
0
0
LINE
5
124
100
AcDbEntity
8
0
100
AcDbLine
10
-21.200000774866478
20
110.5000019473591
30
0
11
-23.000000834465023
21
110.5000019473591
31
0
0
LINE
5
125
100
AcDbEntity
8
0
100
AcDbLine
10
-23.000000834465023
20
110.5000019473591
30
0
11
-23.000000834465023
21
113.50000205166728
31
0
0
LINE
5
126
100
AcDbEntity
8
0
100
AcDbLine
10
-23.000000834465023
20
113.50000205166728
30
0
11
-21.200000774881708
21
113.50000205166728
31
0
0
LINE
5
127
100
AcDbEntity
8
0
100
AcDbLine
10
-21.200000774881708
20
113.50000205166728
30
0
11
-21.200000774887826
21
114.70000199951318
31
0
0
LINE
5
128
100
AcDbEntity
8
0
100
AcDbLine
10
-21.200000774887826
20
114.70000199951318
30
0
11
-18.800000774887828
21
114.70000199951318
31
0
0
LINE
5
129
100
AcDbEntity
8
0
100
AcDbLine
10
-18.800000774887828
20
114.70000199951318
30
0
11
-18.800000768788689
21
113.50000205166728
31
0
0
LINE
5
130
100
AcDbEntity
8
0
100
AcDbLine
10
-18.800000768788689
20
113.50000205166728
30
0
11
-12.000000178813933
21
113.50000205166728
31
0
0
LINE
5
131
100
AcDbEntity
8
0
100
AcDbLine
10
-12.000000178813933
20
113.50000205166728
30
0
11
-12.000000178813933
21
120.00000205166712
31
0
0
LINE
5
132
100
AcDbEntity
8
0
100
AcDbLine
10
-12.000000178813933
20
120.00000205166712
30
0
11
-62.000000834465027
21
120.00000205166712
31
0
0
LINE
5
133
100
AcDbEntity
8
0
100
AcDbLine
10
-62.000000834465027
20
120.00000205166712
30
0
11
-62.000000834465027
21
113.50000205166722
31
0
0
LINE
5
134
100
AcDbEntity
8
0
100
AcDbLine
10
-62.000000834465027
20
113.50000205166722
30
0
11
-55.200000774902804
21
113.50000205166722
31
0
0
LINE
5
135
100
AcDbEntity
8
0
100
AcDbLine
10
-55.200000774902804
20
113.50000205166722
30
0
11
-55.200000774942183
21
114.70000199951313
31
0
0
LINE
5
136
100
AcDbEntity
8
0
100
AcDbLine
10
-55.200000774942183
20
114.70000199951313
30
0
11
-52.800000774942184
21
114.70000199951313
31
0
0
LINE
5
137
100
AcDbEntity
8
0
100
AcDbLine
10
-52.800000774942184
20
114.70000199951313
30
0
11
-52.800000774782553
21
113.50000205166722
31
0
0
LINE
5
138
100
AcDbEntity
8
0
100
AcDbLine
10
-52.800000774782553
20
113.50000205166722
30
0
11
-51.000000774860382
21
113.50000205166722
31
0
0
LINE
5
139
100
AcDbEntity
8
0
100
AcDbLine
10
-51.000000774860382
20
113.50000205166722
30
0
11
-51.000000774860382
21
110.50000194735904
31
0
0
LINE
5
140
100
AcDbEntity
8
0
100
AcDbLine
10
-51.000000774860382
20
110.50000194735904
30
0
11
-52.800000774448677
21
110.50000194735904
31
0
0
LINE
5
141
100
AcDbEntity
8
0
100
AcDbLine
10
-52.800000774448677
20
110.50000194735904
30
0
11
-52.800000774315464
21
109.30000199978004
31
0
0
LINE
5
142
100
AcDbEntity
8
0
100
AcDbLine
10
-52.800000774315464
20
109.30000199978004
30
0
11
-55.200000774860385
21
109.30000199951314
31
0
0
LINE
5
143
100
AcDbEntity
8
0
100
AcDbLine
10
-55.200000774860385
20
109.30000199951314
30
0
11
-55.2000007748725
21
110.50000194735904
31
0
0
LINE
5
144
100
AcDbEntity
8
0
100
AcDbLine
10
-55.2000007748725
20
110.50000194735904
30
0
11
-62.000000834465027
21
110.50000194735904
31
0
0
LINE
5
145
100
AcDbEntity
8
0
100
AcDbLine
10
-62.000000834465027
20
110.50000194735904
30
0
11
-62.000000834465027
21
108.00000193245782
31
0
0
LINE
5
146
100
AcDbEntity
8
0
100
AcDbLine
10
-62.000000834465027
20
108.00000193245782
30
0
11
-66.500000923871994
21
108.00000193245782
31
0
0
LINE
5
147
100
AcDbEntity
8
0
100
AcDbLine
10
-66.500000923871994
20
108.00000193245782
30
0
11
-66.500000923871994
21
103.00000181324855
31
0
0
LINE
5
148
100
AcDbEntity
8
0
100
AcDbLine
10
-66.500000923871994
20
103.00000181324855
30
0
11
-62.000000834465027
21
103.00000181324855
31
0
0
LINE
5
149
100
AcDbEntity
8
0
100
AcDbLine
10
-62.000000834465027
20
103.00000181324855
30
0
11
-62.000000834465027
21
100.00000176854506
31
0
0
LINE
5
150
100
AcDbEntity
8
0
100
AcDbLine
10
-62.000000834465027
20
100.00000176854506
30
0
11
-55.000000804662704
21
100.00000176854506
31
0
0
LINE
5
151
100
AcDbEntity
8
0
100
AcDbLine
10
-55.000000804662704
20
100.00000176854506
30
0
11
-55.000000804662704
21
90.00000161953345
31
0
0
LINE
5
152
100
AcDbEntity
8
0
100
AcDbLine
10
-55.000000804662704
20
90.00000161953345
30
0
11
-62.000000834465027
21
90.00000161953345
31
0
0
LINE
5
153
100
AcDbEntity
8
0
100
AcDbLine
10
-62.000000834465027
20
90.00000161953345
30
0
11
-62.000000834465027
21
87.000001574829966
31
0
0
LINE
5
154
100
AcDbEntity
8
0
100
AcDbLine
10
-62.000000834465027
20
87.000001574829966
30
0
11
-66.500000923871994
21
87.000001574829966
31
0
0
LINE
5
155
100
AcDbEntity
8
0
100
AcDbLine
10
-66.500000923871994
20
87.000001574829966
30
0
11
-66.500000923871994
21
79.000001455620691
31
0
0
LINE
5
156
100
AcDbEntity
8
0
100
AcDbLine
10
-66.500000923871994
20
79.000001455620691
30
0
11
-62.000000834465027
21
79.000001947359038
31
0
0
LINE
5
157
100
AcDbEntity
8
0
100
AcDbLine
10
-62.000000834465027
20
79.000001947359038
30
0
11
-62.000000834465027
21
82.000002051667224
31
0
0
LINE
5
158
100
AcDbEntity
8
0
100
AcDbLine
10
-62.000000834465027
20
82.000002051667224
30
0
11
-55.200000774881637
21
82.000002051667224
31
0
0
LINE
5
159
100
AcDbEntity
8
0
100
AcDbLine
10
-55.200000774881637
20
82.000002051667224
30
0
11
-55.200000774887712
21
83.20000199951312
31
0
0
LINE
5
160
100
AcDbEntity
8
0
100
AcDbLine
10
-55.200000774887712
20
83.20000199951312
30
0
11
-52.800000774887714
21
83.20000199951312
31
0
0
LINE
5
161
100
AcDbEntity
8
0
100
AcDbLine
10
-52.800000774887714
20
83.20000199951312
30
0
11
-52.800000774785417
21
82.000002051667224
31
0
0
LINE
5
162
100
AcDbEntity
8
0
100
AcDbLine
10
-52.800000774785417
20
82.000002051667224
30
0
11
-51.000000774860382
21
82.000002051667224
31
0
0
LINE
5
163
100
AcDbEntity
8
0
100
AcDbLine
10
-51.000000774860382
20
82.000002051667224
30
0
11
-51.000000774860382
21
79.000001947359038
31
0
0
LINE
5
164
100
AcDbEntity
8
0
100
AcDbLine
10
-51.000000774860382
20
79.000001947359038
30
0
11
-52.800000774459079
21
79.000001947359038
31
0
0
LINE
5
165
100
AcDbEntity
8
0
100
AcDbLine
10
-52.800000774459079
20
79.000001947359038
30
0
11
-52.800000774336617
21
77.800001999769592
31
0
0
LINE
5
166
100
AcDbEntity
8
0
100
AcDbLine
10
-52.800000774336617
20
77.800001999769592
30
0
11
-55.200000774860385
21
77.800001999513142
31
0
0
LINE
5
167
100
AcDbEntity
8
0
100
AcDbLine
10
-55.200000774860385
20
77.800001999513142
30
0
11
-55.20000077486646
21
79.000001947359038
31
0
0
LINE
5
168
100
AcDbEntity
8
0
100
AcDbLine
10
-55.20000077486646
20
79.000001947359038
30
0
11
-62.000000834465027
21
79.000001947359038
31
0
0
LINE
5
169
100
AcDbEntity
8
0
100
AcDbLine
10
-62.000000834465027
20
79.000001947359038
30
0
11
-62.000000834465027
21
71.000001336411401
31
0
0
LINE
5
170
100
AcDbEntity
8
0
100
AcDbLine
10
-62.000000834465027
20
71.000001336411401
30
0
11
-12.000000178813934
21
71.000001336411401
31
0
0
LINE
5
171
100
AcDbEntity
8
0
100
AcDbLine
10
-12.000000178813934
20
71.000001336411401
30
0
11
-12.000000178813934
21
79.00000145562062
31
0
0
LINE
5
172
100
AcDbEntity
8
0
100
AcDbLine
10
-12.000000178813934
20
79.00000145562062
30
0
11
-18.800000773790938
21
79.000001947359095
31
0
0
LINE
5
173
100
AcDbEntity
8
0
100
AcDbLine
10
-18.800000773790938
20
79.000001947359095
30
0
11
-18.800000773586873
21
77.800001999921321
31
0
0
LINE
5
174
100
AcDbEntity
8
0
100
AcDbLine
10
-18.800000773586873
20
77.800001999921321
30
0
11
-21.200000774860385
21
77.800001999513185
31
0
0
LINE
5
175
100
AcDbEntity
8
0
100
AcDbLine
10
-21.200000774860385
20
77.800001999513185
30
0
11
-21.200000774866474
21
79.000001947359095
31
0
0
LINE
5
176
100
AcDbEntity
8
0
100
AcDbLine
10
-21.200000774866474
20
79.000001947359095
30
0
11
-23.000000834465023
21
79.000001947359095
31
0
0
LINE
5
177
100
AcDbEntity
8
0
100
AcDbLine
10
-23.000000834465023
20
79.000001947359095
30
0
11
-23.000000834465023
21
82.000002051667281
31
0
0
LINE
5
178
100
AcDbEntity
8
0
100
AcDbLine
10
-23.000000834465023
20
82.000002051667281
30
0
11
-21.200000774881687
21
82.000002051667281
31
0
0
LINE
5
179
100
AcDbEntity
8
0
100
AcDbLine
10
-21.200000774881687
20
82.000002051667281
30
0
11
-21.200000774887773
21
83.200001999513177
31
0
0
LINE
5
180
100
AcDbEntity
8
0
100
AcDbLine
10
-21.200000774887773
20
83.200001999513177
30
0
11
-18.800000774887767
21
83.200001999513177
31
0
0
LINE
5
181
100
AcDbEntity
8
0
100
AcDbLine
10
-18.800000774887767
20
83.200001999513177
30
0
11
-18.800000774301097
21
82.000002051667281
31
0
0
CIRCLE
5
182
100
AcDbEntity
8
0
100
AcDbCircle
10
-37.000000506639481
20
95.000001694039199
30
0
40
5.349999999999997
210
0
220
-0
230
1
0
ENDSEC
0
SECTION
2
OBJECTS
0
DICTIONARY
5
C
100
AcDbDictionary
3
ACAD_GROUP
350
D
3
ACAD_MLINESTYLE
350
17
0
DICTIONARY
5
D
100
AcDbDictionary
0
DICTIONARY
5
1A
330
C
100
AcDbDictionary
0
DICTIONARY
5
17
100
AcDbDictionary
0
ENDSEC
0
EOF
