0
SECTION
2
HEADER
9
$INSUNITS
70
4
9
$ACADVER
1
AC1014
9
$HANDSEED
5
FFFF
0
ENDSEC
0
SECTION
2
TABLES
0
TABLE
2
VPORT
5
8
100
AcDbSymbolTable
0
ENDTAB
0
TABLE
2
LTYPE
5
5
100
AcDbSymbolTable
0
LTYPE
5
14
100
AcDbSymbolTableRecord
100
AcDbLinetypeTableRecord
2
BYBLOCK
70
0
0
LTYPE
5
15
100
AcDbSymbolTableRecord
100
AcDbLinetypeTableRecord
2
BYLAYER
70
0
0
ENDTAB
0
TABLE
2
LAYER
5
2
100
AcDbSymbolTable
70
2
0
LAYER
5
50
100
AcDbSymbolTableRecord
100
AcDbLayerTableRecord
2
0
70
0
6
CONTINUOUS
0
ENDTAB
0
TABLE
2
STYLE
5
3
100
AcDbSymbolTable
70
1
0
STYLE
5
11
100
AcDbSymbolTableRecord
100
AcDbTextStyleTableRecord
2
STANDARD
70
0
0
ENDTAB
0
TABLE
2
VIEW
5
6
100
AcDbSymbolTable
70
0
0
ENDTAB
0
TABLE
2
UCS
5
7
100
AcDbSymbolTable
70
0
0
ENDTAB
0
TABLE
2
APPID
5
9
100
AcDbSymbolTable
70
2
0
APPID
5
12
100
AcDbSymbolTableRecord
100
AcDbRegAppTableRecord
2
ACAD
70
0
0
ENDTAB
0
TABLE
2
DIMSTYLE
5
A
100
AcDbSymbolTable
70
1
0
ENDTAB
0
TABLE
2
BLOCK_RECORD
5
1
100
AcDbSymbolTable
70
1
0
BLOCK_RECORD
5
1F
100
AcDbSymbolTableRecord
100
AcDbBlockTableRecord
2
*MODEL_SPACE
0
BLOCK_RECORD
5
1B
100
AcDbSymbolTableRecord
100
AcDbBlockTableRecord
2
*PAPER_SPACE
0
ENDTAB
0
ENDSEC
0
SECTION
2
BLOCKS
0
BLOCK
5
20
100
AcDbEntity
100
AcDbBlockBegin
2
*MODEL_SPACE
0
ENDBLK
5
21
100
AcDbEntity
100
AcDbBlockEnd
0
BLOCK
5
1C
100
AcDbEntity
100
AcDbBlockBegin
2
*PAPER_SPACE
0
ENDBLK
5
1D
100
AcDbEntity
100
AcDbBlockEnd
0
ENDSEC
0
SECTION
2
ENTITIES
0
CIRCLE
5
100
100
AcDbEntity
8
0
100
AcDbCircle
10
21.500001072883595
20
79.322597393641715
30
0
40
1.5000000000000036
210
0
220
0
230
1
0
CIRCLE
5
101
100
AcDbEntity
8
0
100
AcDbCircle
10
37.000001072883599
20
94.822597393641701
30
0
40
11.499999999999995
210
0
220
0
230
1
0
CIRCLE
5
102
100
AcDbEntity
8
0
100
AcDbCircle
10
52.500001072883592
20
79.322597393641715
30
0
40
1.5000000000000036
210
0
220
0
230
1
0
CIRCLE
5
103
100
AcDbEntity
8
0
100
AcDbCircle
10
21.500001072883595
20
110.32259739364171
30
0
40
1.5000000000000036
210
0
220
0
230
1
0
CIRCLE
5
104
100
AcDbEntity
8
0
100
AcDbCircle
10
52.500001072883592
20
110.32259739364171
30
0
40
1.5000000000000036
210
0
220
0
230
1
0
LWPOLYLINE
5
105
100
AcDbEntity
8
0
100
AcDbPolyline
90
62
70
1
43
0.0
10
19.800000342726705
20
65.000001370527656
10
6.9999998704455146
20
65.000001370527656
10
2.0000015928637027
20
65.000001788139343
10
2.0000015928637027
20
74.000001043081284
10
13.000000104308128
20
74.000001043081284
10
13.000000104308128
20
116.00000178813934
10
2.0000015928637027
20
116.00000178813934
10
2.0000015928637027
20
125.00000178813934
10
19.800000342726708
20
125.00000178813934
10
19.800000342726708
20
123.800001847744
10
22.200000342726707
20
123.800001847744
10
22.200000342726707
20
125.00000178813934
10
23.000000342726707
20
125.00000178813934
10
23.000000342726707
20
128.00000190734863
10
22.200000342726707
20
128.00000190734863
10
22.200000342726707
20
129.20000184774398
10
19.800000342726708
20
129.20000184774398
10
19.800000342726708
20
128.00000190734863
10
7.0000015928637023
20
128.00000190734863
10
7.0000015928637005
20
134.0000019967556
10
67.000001072883606
20
134.0000019967556
10
67.000000029802322
20
128.00000190734863
10
54.200000759959224
20
128.00000190734863
10
54.200000759959224
20
129.20000184774398
10
51.800000759959218
20
129.20000184774398
10
51.800000759959218
20
128.00000190734863
10
51.000000759959221
20
128.00000190734863
10
51.000000759959221
20
125.00000178813934
10
51.800000759959218
20
125.00000178813934
10
51.800000759959218
20
123.800001847744
10
54.200000759959224
20
123.800001847744
10
54.200000759959224
20
125.00000178813934
10
72.000001072883606
20
125.00000178813934
10
72.000000825398246
20
116.00000178813934
10
61.0000009983778
20
116.00000178813934
10
61.0000009983778
20
74.000001043081284
10
72.000001045242428
20
74.000001043081284
10
72.000001077678462
20
65.000000894069657
10
67.0000009983778
20
65.000001519539126
10
54.200000759959224
20
65.000001519539126
10
54.200000759959224
20
66.200001221705548
10
51.800000759959218
20
66.200001221705548
10
51.800000759959218
20
65.000001519539126
10
51.000000759959221
20
65.000001519539126
10
51.000000759959221
20
62.000000923871994
10
51.800000759959218
20
62.000000923871994
10
51.800000759959218
20
60.800001221705564
10
54.200000759959224
20
60.800001221705564
10
54.200000759959224
20
62.000000923871994
10
67.0000009983778
20
62.000000923871994
10
67.0000009983778
20
56.000000834465027
10
6.9999998704455146
20
56.000000834465027
10
6.9999998704455173
20
62.000000923871994
10
19.800000342726708
20
62.000000923871994
10
19.800000342726708
20
60.800001221705564
10
22.200000342726707
20
60.800001221705564
10
22.200000342726707
20
62.000000923871994
10
23.000000342726707
20
62.000000923871994
10
23.000000342726707
20
65.000001370527656
10
22.200000342726707
20
65.000001370527656
10
22.200000342726707
20
66.200001221705548
10
19.800000342726708
20
66.200001221705548
0
ENDSEC
0
SECTION
2
OBJECTS
0
DICTIONARY
5
C
100
AcDbDictionary
3
ACAD_GROUP
350
D
3
ACAD_MLINESTYLE
350
17
0
DICTIONARY
5
D
100
AcDbDictionary
0
DICTIONARY
5
1A
330
C
100
AcDbDictionary
0
DICTIONARY
5
17
100
AcDbDictionary
0
ENDSEC
0
EOF
