0
SECTION
2
HEADER
9
$INSUNITS
70
4
9
$ACADVER
1
AC1014
9
$HANDSEED
5
FFFF
0
ENDSEC
0
SECTION
2
TABLES
0
TABLE
2
VPORT
5
8
100
AcDbSymbolTable
0
ENDTAB
0
TABLE
2
LTYPE
5
5
100
AcDbSymbolTable
0
LTYPE
5
14
100
AcDbSymbolTableRecord
100
AcDbLinetypeTableRecord
2
BYBLOCK
70
0
0
LTYPE
5
15
100
AcDbSymbolTableRecord
100
AcDbLinetypeTableRecord
2
BYLAYER
70
0
0
ENDTAB
0
TABLE
2
LAYER
5
2
100
AcDbSymbolTable
70
2
0
LAYER
5
50
100
AcDbSymbolTableRecord
100
AcDbLayerTableRecord
2
0
70
0
6
CONTINUOUS
0
ENDTAB
0
TABLE
2
STYLE
5
3
100
AcDbSymbolTable
70
1
0
STYLE
5
11
100
AcDbSymbolTableRecord
100
AcDbTextStyleTableRecord
2
STANDARD
70
0
0
ENDTAB
0
TABLE
2
VIEW
5
6
100
AcDbSymbolTable
70
0
0
ENDTAB
0
TABLE
2
UCS
5
7
100
AcDbSymbolTable
70
0
0
ENDTAB
0
TABLE
2
APPID
5
9
100
AcDbSymbolTable
70
2
0
APPID
5
12
100
AcDbSymbolTableRecord
100
AcDbRegAppTableRecord
2
ACAD
70
0
0
ENDTAB
0
TABLE
2
DIMSTYLE
5
A
100
AcDbSymbolTable
70
1
0
ENDTAB
0
TABLE
2
BLOCK_RECORD
5
1
100
AcDbSymbolTable
70
1
0
BLOCK_RECORD
5
1F
100
AcDbSymbolTableRecord
100
AcDbBlockTableRecord
2
*MODEL_SPACE
0
BLOCK_RECORD
5
1B
100
AcDbSymbolTableRecord
100
AcDbBlockTableRecord
2
*PAPER_SPACE
0
ENDTAB
0
ENDSEC
0
SECTION
2
BLOCKS
0
BLOCK
5
20
100
AcDbEntity
100
AcDbBlockBegin
2
*MODEL_SPACE
0
ENDBLK
5
21
100
AcDbEntity
100
AcDbBlockEnd
0
BLOCK
5
1C
100
AcDbEntity
100
AcDbBlockBegin
2
*PAPER_SPACE
0
ENDBLK
5
1D
100
AcDbEntity
100
AcDbBlockEnd
0
ENDSEC
0
SECTION
2
ENTITIES
0
CIRCLE
5
100
100
AcDbEntity
8
0
100
AcDbCircle
10
-292.50000435858965
20
63.500000946223736
30
0
40
1.5000000223517418
210
0
220
0
230
1
0
CIRCLE
5
101
100
AcDbEntity
8
0
100
AcDbCircle
10
-244.00000363588333
20
95.000001415610313
30
0
40
1.5000000000000213
210
0
220
0
230
1
0
CIRCLE
5
102
100
AcDbEntity
8
0
100
AcDbCircle
10
-292.50000435858965
20
126.50000188499689
30
0
40
1.5000000223517418
210
0
220
0
230
1
0
CIRCLE
5
103
100
AcDbEntity
8
0
100
AcDbCircle
10
-170.0000025331974
20
95.000001415610313
30
0
40
1.4999999999999858
210
0
220
0
230
1
0
CIRCLE
5
104
100
AcDbEntity
8
0
100
AcDbCircle
10
-50.50000075250864
20
15.500000230967999
30
0
40
1.5000000223517418
210
0
220
0
230
1
0
LWPOLYLINE
5
105
100
AcDbEntity
8
0
100
AcDbPolyline
90
4
70
1
43
0.0
10
-30.004146771290028
20
13
10
-30.004146771290028
20
18
10
-40.004146771290024
20
18
10
-40.004146771290024
20
13
0
LWPOLYLINE
5
106
100
AcDbEntity
8
0
100
AcDbPolyline
90
4
70
1
43
0.0
10
-61.000000610947609
20
13
10
-61.000000610947609
20
18
10
-71.000000610947609
20
18
10
-71.000000610947609
20
13
0
LWPOLYLINE
5
107
100
AcDbEntity
8
0
100
AcDbPolyline
90
33
70
1
43
0.0
10
-82.825673448130601
20
159.01520802246918
42
-0.9508603135048187
10
-82.52398346003757
20
165.00000000032838
10
-2.9999999999880531
20
165.00000000001194
42
-0.41421356237188905
10
8.8817841970012523e-15
20
162.00000000001177
10
-5.5511151231257827e-16
20
3.0000000000000249
42
-0.41421356237309864
10
-3.0000000000000426
20
5.5511151231257827e-16
10
-326.99994003439741
20
-2.2204460492503131e-15
42
-0.41421356237604695
10
-329.99994003439713
20
3.000000000029921
10
-329.99994003294717
20
147.00551421610078
42
-0.41421356236918427
10
-326.99994003295751
20
150.00551421606983
10
-286.36118465793527
20
150.0055142160808
42
-0.41421356237353729
10
-283.36118465793754
20
147.00551421608
10
-283.36118465799024
20
105.00036704127304
10
-240.26489399612069
20
105.00036704127299
42
-0.41421356237309404
10
-235.26489399612069
20
100.00036704127302
10
-235.26489399612063
20
90.000001266598701
42
-0.41421356237309603
10
-240.26489399612069
20
85.000001266598716
10
-283.3611846580153
20
85.000001266598701
10
-283.36118465813348
20
41.352837884079825
42
0.41421356237362461
10
-271.36118465778861
20
29.352837883726593
10
-193.91860064011007
20
29.352837883745231
42
0.41421356237273971
10
-179.91860064012698
20
43.352837883745217
10
-179.91860064012695
20
100.01568349730674
42
-0.41421356237309509
10
-174.91860064012701
20
105.01568349730674
10
-164.92520638442159
20
105.01568349730674
42
-0.4142135623730992
10
-159.92520638442161
20
100.01568349730675
10
-159.92520638442204
20
43.352837883789235
42
0.41421356237308421
10
-145.92520638442156
20
29.35283788378927
10
-90.389853462182117
20
29.352837883796195
42
0.40759157364275705
10
-24.410384572721604
20
91.844715168856908
10
-14.410289856554517
20
91.844715168856908
10
-14.410289856554517
20
96.844715168856908
10
-24.410384572721597
20
96.844715168856993
42
0.37400484887680369
0
ENDSEC
0
SECTION
2
OBJECTS
0
DICTIONARY
5
C
100
AcDbDictionary
3
ACAD_GROUP
350
D
3
ACAD_MLINESTYLE
350
17
0
DICTIONARY
5
D
100
AcDbDictionary
0
DICTIONARY
5
1A
330
C
100
AcDbDictionary
0
DICTIONARY
5
17
100
AcDbDictionary
0
ENDSEC
0
EOF
