0
SECTION
2
HEADER
9
$INSUNITS
70
4
9
$ACADVER
1
AC1014
9
$HANDSEED
5
FFFF
0
ENDSEC
0
SECTION
2
TABLES
0
TABLE
2
VPORT
5
8
100
AcDbSymbolTable
0
ENDTAB
0
TABLE
2
LTYPE
5
5
100
AcDbSymbolTable
0
LTYPE
5
14
100
AcDbSymbolTableRecord
100
AcDbLinetypeTableRecord
2
BYBLOCK
70
0
0
LTYPE
5
15
100
AcDbSymbolTableRecord
100
AcDbLinetypeTableRecord
2
BYLAYER
70
0
0
ENDTAB
0
TABLE
2
LAYER
5
2
100
AcDbSymbolTable
70
2
0
LAYER
5
50
100
AcDbSymbolTableRecord
100
AcDbLayerTableRecord
2
0
70
0
6
CONTINUOUS
0
ENDTAB
0
TABLE
2
STYLE
5
3
100
AcDbSymbolTable
70
1
0
STYLE
5
11
100
AcDbSymbolTableRecord
100
AcDbTextStyleTableRecord
2
STANDARD
70
0
0
ENDTAB
0
TABLE
2
VIEW
5
6
100
AcDbSymbolTable
70
0
0
ENDTAB
0
TABLE
2
UCS
5
7
100
AcDbSymbolTable
70
0
0
ENDTAB
0
TABLE
2
APPID
5
9
100
AcDbSymbolTable
70
2
0
APPID
5
12
100
AcDbSymbolTableRecord
100
AcDbRegAppTableRecord
2
ACAD
70
0
0
ENDTAB
0
TABLE
2
DIMSTYLE
5
A
100
AcDbSymbolTable
70
1
0
ENDTAB
0
TABLE
2
BLOCK_RECORD
5
1
100
AcDbSymbolTable
70
1
0
BLOCK_RECORD
5
1F
100
AcDbSymbolTableRecord
100
AcDbBlockTableRecord
2
*MODEL_SPACE
0
BLOCK_RECORD
5
1B
100
AcDbSymbolTableRecord
100
AcDbBlockTableRecord
2
*PAPER_SPACE
0
ENDTAB
0
ENDSEC
0
SECTION
2
BLOCKS
0
BLOCK
5
20
100
AcDbEntity
100
AcDbBlockBegin
2
*MODEL_SPACE
0
ENDBLK
5
21
100
AcDbEntity
100
AcDbBlockEnd
0
BLOCK
5
1C
100
AcDbEntity
100
AcDbBlockBegin
2
*PAPER_SPACE
0
ENDBLK
5
1D
100
AcDbEntity
100
AcDbBlockEnd
0
ENDSEC
0
SECTION
2
ENTITIES
0
ARC
5
100
100
AcDbEntity
8
0
100
AcDbCircle
10
-2.458908168000038
20
-47.538912578743634
30
0
40
2.5000000000000178
210
0
220
0
230
1
100
AcDbArc
50
270
51
360
0
LINE
5
101
100
AcDbEntity
8
0
100
AcDbLine
10
0.041091831999979789
20
-47.538912578743648
30
0
11
0.04109183200000853
21
-6.538911774080951
31
0
0
ARC
5
102
100
AcDbEntity
8
0
100
AcDbCircle
10
-0.95890816800003575
20
-6.5389117740809555
30
0
40
1.0000000000000444
210
0
220
-0
230
1
100
AcDbArc
50
0
51
90.000000000000057
0
LINE
5
103
100
AcDbEntity
8
0
100
AcDbLine
10
-0.95890816800003653
20
-5.5389117740809111
30
0
11
-15.077741854343195
21
-5.5389117740809368
31
0
0
ARC
5
104
100
AcDbEntity
8
0
100
AcDbCircle
10
-15.077741854343195
20
-5.2389117740809432
30
0
40
0.29999999999999361
210
0
220
0
230
1
100
AcDbArc
50
180
51
270
0
LINE
5
105
100
AcDbEntity
8
0
100
AcDbLine
10
-15.377741854343189
20
-5.2389117740809432
30
0
11
-15.377741854343189
21
-5.0389117740809377
31
0
0
LINE
5
106
100
AcDbEntity
8
0
100
AcDbLine
10
-15.377741854343189
20
-5.0389117740809377
30
0
11
-18.077741854343195
21
-5.0389117740809368
31
0
0
ARC
5
107
100
AcDbEntity
8
0
100
AcDbCircle
10
-18.077741854343195
20
-4.7389117740809432
30
0
40
0.29999999999999361
210
0
220
0
230
1
100
AcDbArc
50
180
51
270
0
LINE
5
108
100
AcDbEntity
8
0
100
AcDbLine
10
-18.377741854343189
20
-4.7389117740809432
30
0
11
-18.377741854343189
21
-0.3389118038832567
31
0
0
ARC
5
109
100
AcDbEntity
8
0
100
AcDbCircle
10
-18.077741854343184
20
-0.33891180388325676
30
0
40
0.30000000000000249
210
0
220
-0
230
1
100
AcDbArc
50
90
51
180
0
LINE
5
110
100
AcDbEntity
8
0
100
AcDbLine
10
-18.077741854343184
20
-0.038911803883254284
30
0
11
-0.95890816800003664
21
-0.0389118038832581
31
0
0
ARC
5
111
100
AcDbEntity
8
0
100
AcDbCircle
10
-0.95890816800004275
20
0.96108819611674723
30
0
40
1.0000000000000053
210
-0
220
0
230
1
100
AcDbArc
50
270.00000000000034
51
360
0
LINE
5
112
100
AcDbEntity
8
0
100
AcDbLine
10
0.04109183199996258
20
0.96108819611674623
30
0
11
0.041091831999979955
21
72.961088225919084
31
0
0
ARC
5
113
100
AcDbEntity
8
0
100
AcDbCircle
10
-0.95890816799999889
20
72.961088225919084
30
0
40
0.99999999999997879
210
0
220
-0
230
1
100
AcDbArc
50
0
51
89.999999999999986
0
LINE
5
114
100
AcDbEntity
8
0
100
AcDbLine
10
-0.95890816799999867
20
73.96108822591907
30
0
11
-18.077741854343181
21
73.96108822591907
31
0
0
ARC
5
115
100
AcDbEntity
8
0
100
AcDbCircle
10
-18.077741854343181
20
74.261088225919053
30
0
40
0.29999999999999361
210
0
220
0
230
1
100
AcDbArc
50
180
51
270
0
LINE
5
116
100
AcDbEntity
8
0
100
AcDbLine
10
-18.377741854343171
20
74.261088225919053
30
0
11
-18.377741854343171
21
78.661088196116737
31
0
0
ARC
5
117
100
AcDbEntity
8
0
100
AcDbCircle
10
-18.077741854343166
20
78.661088196116737
30
0
40
0.30000000000000249
210
0
220
-0
230
1
100
AcDbArc
50
90
51
180
0
LINE
5
118
100
AcDbEntity
8
0
100
AcDbLine
10
-18.077741854343166
20
78.961088196116748
30
0
11
-15.377741854343171
21
78.961088196116748
31
0
0
LINE
5
119
100
AcDbEntity
8
0
100
AcDbLine
10
-15.377741854343171
20
78.961088196116748
30
0
11
-15.377741854343171
21
79.161088196116737
31
0
0
ARC
5
120
100
AcDbEntity
8
0
100
AcDbCircle
10
-15.077741854343166
20
79.161088196116737
30
0
40
0.30000000000000249
210
0
220
-0
230
1
100
AcDbArc
50
90
51
180
0
LINE
5
121
100
AcDbEntity
8
0
100
AcDbLine
10
-15.077741854343166
20
79.461088196116748
30
0
11
-0.95890816799992784
21
79.461088196116748
31
0
0
ARC
5
122
100
AcDbEntity
8
0
100
AcDbCircle
10
-0.95890816799992717
20
80.461088196116748
30
0
40
1.0000000000000053
210
0
220
0
230
1
100
AcDbArc
50
-90.000000000000057
51
0
0
LINE
5
123
100
AcDbEntity
8
0
100
AcDbLine
10
0.041091832000078182
20
80.461088196116748
30
0
11
0.041091832000015316
21
121.4610900140584
31
0
0
ARC
5
124
100
AcDbEntity
8
0
100
AcDbCircle
10
-2.4589081680000024
20
121.4610900140584
30
0
40
2.5000000000000178
210
0
220
-0
230
1
100
AcDbArc
50
0
51
89.999999999999588
0
LINE
5
125
100
AcDbEntity
8
0
100
AcDbLine
10
-2.4589081679999847
20
123.96109001405841
30
0
11
-40.309998182058358
21
123.96109001405841
31
0
0
ARC
5
126
100
AcDbEntity
8
0
100
AcDbCircle
10
-40.309998182058344
20
121.4610900140584
30
0
40
2.5000000000000178
210
0
220
0
230
1
100
AcDbArc
50
90.000000000000327
51
207.72261755147815
0
ARC
5
127
100
AcDbEntity
8
0
100
AcDbCircle
10
-201.10452705936811
20
36.961088761233114
30
0
40
179.14561855340722
210
-0
220
0
230
1
100
AcDbArc
50
-27.722617573686467
51
27.722617551478063
0
ARC
5
128
100
AcDbEntity
8
0
100
AcDbCircle
10
-40.309998182058393
20
-47.538912572150032
30
0
40
2.5000000070682278
210
0
220
0
230
1
100
AcDbArc
50
152.2773824056145
51
270
0
LINE
5
129
100
AcDbEntity
8
0
100
AcDbLine
10
-40.309998182058393
20
-50.038912579218277
30
0
11
-2.4589081680000384
21
-50.038912578743648
31
0
0
ENDSEC
0
SECTION
2
OBJECTS
0
DICTIONARY
5
C
100
AcDbDictionary
3
ACAD_GROUP
350
D
3
ACAD_MLINESTYLE
350
17
0
DICTIONARY
5
D
100
AcDbDictionary
0
DICTIONARY
5
1A
330
C
100
AcDbDictionary
0
DICTIONARY
5
17
100
AcDbDictionary
0
ENDSEC
0
EOF
