0
SECTION
2
HEADER
9
$INSUNITS
70
4
9
$ACADVER
1
AC1014
9
$HANDSEED
5
FFFF
0
ENDSEC
0
SECTION
2
TABLES
0
TABLE
2
VPORT
5
8
100
AcDbSymbolTable
0
ENDTAB
0
TABLE
2
LTYPE
5
5
100
AcDbSymbolTable
0
LTYPE
5
14
100
AcDbSymbolTableRecord
100
AcDbLinetypeTableRecord
2
BYBLOCK
70
0
0
LTYPE
5
15
100
AcDbSymbolTableRecord
100
AcDbLinetypeTableRecord
2
BYLAYER
70
0
0
ENDTAB
0
TABLE
2
LAYER
5
2
100
AcDbSymbolTable
70
2
0
LAYER
5
50
100
AcDbSymbolTableRecord
100
AcDbLayerTableRecord
2
0
70
0
6
CONTINUOUS
0
ENDTAB
0
TABLE
2
STYLE
5
3
100
AcDbSymbolTable
70
1
0
STYLE
5
11
100
AcDbSymbolTableRecord
100
AcDbTextStyleTableRecord
2
STANDARD
70
0
0
ENDTAB
0
TABLE
2
VIEW
5
6
100
AcDbSymbolTable
70
0
0
ENDTAB
0
TABLE
2
UCS
5
7
100
AcDbSymbolTable
70
0
0
ENDTAB
0
TABLE
2
APPID
5
9
100
AcDbSymbolTable
70
2
0
APPID
5
12
100
AcDbSymbolTableRecord
100
AcDbRegAppTableRecord
2
ACAD
70
0
0
ENDTAB
0
TABLE
2
DIMSTYLE
5
A
100
AcDbSymbolTable
70
1
0
ENDTAB
0
TABLE
2
BLOCK_RECORD
5
1
100
AcDbSymbolTable
70
1
0
BLOCK_RECORD
5
1F
100
AcDbSymbolTableRecord
100
AcDbBlockTableRecord
2
*MODEL_SPACE
0
BLOCK_RECORD
5
1B
100
AcDbSymbolTableRecord
100
AcDbBlockTableRecord
2
*PAPER_SPACE
0
ENDTAB
0
ENDSEC
0
SECTION
2
BLOCKS
0
BLOCK
5
20
100
AcDbEntity
100
AcDbBlockBegin
2
*MODEL_SPACE
0
ENDBLK
5
21
100
AcDbEntity
100
AcDbBlockEnd
0
BLOCK
5
1C
100
AcDbEntity
100
AcDbBlockBegin
2
*PAPER_SPACE
0
ENDBLK
5
1D
100
AcDbEntity
100
AcDbBlockEnd
0
ENDSEC
0
SECTION
2
ENTITIES
0
CIRCLE
5
100
100
AcDbEntity
8
0
100
AcDbCircle
10
-13.430001072883595
20
71.252597393641679
30
0
40
1.9999999999999996
210
0
220
0
230
1
0
CIRCLE
5
101
100
AcDbEntity
8
0
100
AcDbCircle
10
-13.430001072883595
20
118.39259739364168
30
0
40
1.9999999999999996
210
0
220
0
230
1
0
CIRCLE
5
102
100
AcDbEntity
8
0
100
AcDbCircle
10
-37.000001072883599
20
94.822597393641686
30
0
40
19.049999999999997
210
0
220
0
230
1
0
CIRCLE
5
103
100
AcDbEntity
8
0
100
AcDbCircle
10
-60.570001072883599
20
71.252597393641679
30
0
40
2.0000000000000018
210
0
220
0
230
1
0
CIRCLE
5
104
100
AcDbEntity
8
0
100
AcDbCircle
10
-60.570001072883599
20
118.39259739364168
30
0
40
2.0000000000000018
210
0
220
0
230
1
0
LWPOLYLINE
5
105
100
AcDbEntity
8
0
100
AcDbPolyline
90
76
70
1
43
0.0
10
-74.499901020318461
20
137.00000320374963
10
-62.199999657273295
20
137.00000524852553
10
-62.199999657273295
20
135.80000184774397
10
-59.79999965727329
20
135.80000184774397
10
-59.79999965727329
20
137.00000902349336
10
-57.999999657275566
20
137.00001043910635
10
-57.999999657275566
20
140.00000060063246
10
-59.799999657273297
20
140.00000060063246
10
-59.799999657273297
20
141.20000184774395
10
-62.199999657273295
20
141.20000184774395
10
-62.199999657273295
20
140.0000019073486
10
-74.499900136220788
20
139.9999433858541
10
-74.499897784791273
20
143.97348994665435
10
-79.499897516868486
20
143.97152793668573
10
-79.499894147159793
20
151.99994649921928
10
5.5001063705308457
20
151.99989592850912
10
5.5001016363630502
20
143.99989610378063
10
0.50010312491949982
20
143.9998990626346
10
0.50010075783557539
20
139.99989900303066
10
-11.799999240040783
20
140.0000019073486
10
-11.799999240040783
20
141.20000184774395
10
-14.199999240040786
20
141.20000184774395
10
-14.199999240040786
20
140.0000019073486
10
-15.999999240040783
20
140.0000019073486
10
-15.999999240040783
20
137.00000178813931
10
-14.199999240040803
20
137.00000178813931
10
-14.199999240040803
20
135.80000184774397
10
-11.799999240040783
20
135.80000184774397
10
-11.799999240040783
20
137.00000178813931
10
0.50009890518423861
20
136.99996139469087
10
0.50009643493110101
20
132.9999614095928
10
5.500094946374567
20
132.99995832177729
10
5.5000931300119511
20
122.99995830687283
10
-8.0000010948155662
20
123.00000320374963
10
-8.0000010948155662
20
67.000002458691597
10
5.5000615979163676
20
66.999892416003817
10
5.5000554223241931
20
56.999958306890612
10
0.50006455550278606
20
56.999961394701408
10
0.50006208523090789
20
52.999931066253765
10
-11.799999240040783
20
53.000001519539104
10
-11.799999240040783
20
54.200001221705534
10
-14.199999240040786
20
54.200001221705534
10
-14.199999240040786
20
53.000001519539104
10
-15.999999240040783
20
53.000001519539104
10
-15.999999240040783
20
50.000063927070045
10
-14.199999240040786
20
50.000063927070045
10
-14.199999240040786
20
48.800001221705536
10
-11.799999240040783
20
48.800001221705536
10
-11.799999240040783
20
50.000063927070045
10
0.50006023255924514
20
49.999960530435395
10
0.50005776230609644
20
45.999960530436148
10
5.5000577623051399
20
45.99995744261971
10
5.5000528217987821
20
37.999957353214278
10
-79.499948306117091
20
38.000009846094358
10
-79.499943365611657
20
46.000008446544058
10
-74.499917960780721
20
46.000005140631963
10
-74.49991391367287
20
50.000006847665937
10
-62.19999965727331
20
50.000000923871973
10
-62.19999965727331
20
48.800001221705536
10
-59.799999657273297
20
48.800001221705536
10
-59.799999657273297
20
50.000000923871973
10
-57.9999996572733
20
50.000000923871973
10
-57.9999996572733
20
53.000001370527634
10
-59.799999657273297
20
53.000001370527634
10
-59.799999657273297
20
54.200001221705534
10
-62.199999657273295
20
54.200001221705534
10
-62.199999657273295
20
53.000001370527634
10
-74.499902873110059
20
53.000007443326815
10
-74.499898099365126
20
57.000005473302828
10
-79.50043716743798
20
57.000001028180101
10
-79.50043716743798
20
67.000001043081284
10
-65.999932239068343
20
67.000001717601748
10
-66.000001988885245
20
123.00000320374963
10
-79.499906102506188
20
123.00001079975524
10
-79.49990428614359
20
133.00001075923703
10
-74.499904459142627
20
133.00000767409438
0
ENDSEC
0
SECTION
2
OBJECTS
0
DICTIONARY
5
C
100
AcDbDictionary
3
ACAD_GROUP
350
D
3
ACAD_MLINESTYLE
350
17
0
DICTIONARY
5
D
100
AcDbDictionary
0
DICTIONARY
5
1A
330
C
100
AcDbDictionary
0
DICTIONARY
5
17
100
AcDbDictionary
0
ENDSEC
0
EOF
