0
SECTION
2
HEADER
9
$INSUNITS
70
4
9
$ACADVER
1
AC1014
9
$HANDSEED
5
FFFF
0
ENDSEC
0
SECTION
2
TABLES
0
TABLE
2
VPORT
5
8
100
AcDbSymbolTable
0
ENDTAB
0
TABLE
2
LTYPE
5
5
100
AcDbSymbolTable
0
LTYPE
5
14
100
AcDbSymbolTableRecord
100
AcDbLinetypeTableRecord
2
BYBLOCK
70
0
0
LTYPE
5
15
100
AcDbSymbolTableRecord
100
AcDbLinetypeTableRecord
2
BYLAYER
70
0
0
ENDTAB
0
TABLE
2
LAYER
5
2
100
AcDbSymbolTable
70
2
0
LAYER
5
50
100
AcDbSymbolTableRecord
100
AcDbLayerTableRecord
2
0
70
0
6
CONTINUOUS
0
ENDTAB
0
TABLE
2
STYLE
5
3
100
AcDbSymbolTable
70
1
0
STYLE
5
11
100
AcDbSymbolTableRecord
100
AcDbTextStyleTableRecord
2
STANDARD
70
0
0
ENDTAB
0
TABLE
2
VIEW
5
6
100
AcDbSymbolTable
70
0
0
ENDTAB
0
TABLE
2
UCS
5
7
100
AcDbSymbolTable
70
0
0
ENDTAB
0
TABLE
2
APPID
5
9
100
AcDbSymbolTable
70
2
0
APPID
5
12
100
AcDbSymbolTableRecord
100
AcDbRegAppTableRecord
2
ACAD
70
0
0
ENDTAB
0
TABLE
2
DIMSTYLE
5
A
100
AcDbSymbolTable
70
1
0
ENDTAB
0
TABLE
2
BLOCK_RECORD
5
1
100
AcDbSymbolTable
70
1
0
BLOCK_RECORD
5
1F
100
AcDbSymbolTableRecord
100
AcDbBlockTableRecord
2
*MODEL_SPACE
0
BLOCK_RECORD
5
1B
100
AcDbSymbolTableRecord
100
AcDbBlockTableRecord
2
*PAPER_SPACE
0
ENDTAB
0
ENDSEC
0
SECTION
2
BLOCKS
0
BLOCK
5
20
100
AcDbEntity
100
AcDbBlockBegin
2
*MODEL_SPACE
0
ENDBLK
5
21
100
AcDbEntity
100
AcDbBlockEnd
0
BLOCK
5
1C
100
AcDbEntity
100
AcDbBlockBegin
2
*PAPER_SPACE
0
ENDBLK
5
1D
100
AcDbEntity
100
AcDbBlockEnd
0
ENDSEC
0
SECTION
2
ENTITIES
0
CIRCLE
5
100
100
AcDbEntity
8
0
100
AcDbCircle
10
-258.50000352412462
20
112.00000166893005
30
0
40
1.5000000000000213
210
0
220
0
230
1
0
CIRCLE
5
101
100
AcDbEntity
8
0
100
AcDbCircle
10
-243.5000033006072
20
112.00000166893005
30
0
40
1.5000000000000213
210
0
220
0
230
1
0
CIRCLE
5
102
100
AcDbEntity
8
0
100
AcDbCircle
10
-273.50000374764204
20
112.00000166893005
30
0
40
1.5000000223517418
210
0
220
0
230
1
0
CIRCLE
5
103
100
AcDbEntity
8
0
100
AcDbCircle
10
-228.50000307708979
20
112.00000166893005
30
0
40
1.5000000000000213
210
0
220
0
230
1
0
LWPOLYLINE
5
104
100
AcDbEntity
8
0
100
AcDbPolyline
90
16
70
1
43
0.0
10
-210.53931499043838
20
44.000000963484879
42
-0.1610497812759587
10
-213.81821701619828
20
45.084256236829816
42
0.090588289538888575
10
-262.80703160231582
20
69.235701132609222
42
0.069448295088371095
10
-268.28314818891977
20
70.000001323985131
10
-356.90362385871356
20
70.0000013247531
42
-0.4142135623175503
10
-362.053131627504
20
75.149509092670172
10
-362.0531316344227
20
113.69144973127868
42
-0.41421356241746249
10
-356.74457942421014
20
119.00000194259407
10
-269.16907301183369
20
119.00000194504108
42
0.08013255696232735
10
-262.88065045854472
20
120.01432993205728
42
0.060396713156641232
10
-213.78638127697974
20
143.15657042541631
42
-0.14121270341323644
10
-210.85954429763379
20
144.00000245025819
10
-181.69872615323624
20
144.00000244035354
42
-0.22702774515750709
10
-175.46720192327206
20
141.01678484917932
42
-0.3525119535045157
10
-175.46720192072769
20
46.983218542059568
42
-0.227027745372398
10
-181.6987261570699
20
44.000000950548184
0
LWPOLYLINE
5
105
100
AcDbEntity
8
0
100
AcDbPolyline
90
4
70
1
43
0.0
10
-348.00000259280068
20
91.000001694039241
42
-1.0002388294801214
10
-347.99809218517532
20
99.000001237831995
10
-170.00000259280202
20
99.000001753385988
42
-0.99999999999999989
10
-170.00000259280202
20
91.000001694039213
0
LWPOLYLINE
5
106
100
AcDbEntity
8
0
100
AcDbPolyline
90
4
70
1
43
0.0
10
-225.99999999999991
20
108.00000193245782
10
-230.99999999999991
20
108.00000193245782
10
-230.99999999999991
20
103.00000181324855
10
-225.99999999999991
20
103.00000181324855
0
CIRCLE
5
107
100
AcDbEntity
8
0
100
AcDbCircle
10
-177.50000263005492
20
124.50000213362345
30
0
40
1.5000000223517418
210
0
220
0
230
1
0
LWPOLYLINE
5
108
100
AcDbEntity
8
0
100
AcDbPolyline
90
4
70
1
43
0.0
10
-179.99999999999997
20
109.00000181324855
10
-174.99999999999997
20
109.00000181324855
10
-174.99999999999997
20
119.00000181324849
10
-179.99999999999997
20
119.00000181324849
0
LWPOLYLINE
5
109
100
AcDbEntity
8
0
100
AcDbPolyline
90
4
70
1
43
0.0
10
-179.99999999999997
20
66.000001455620691
10
-174.99999999999997
20
66.000001455620691
10
-174.99999999999997
20
71.000001574829966
10
-179.99999999999997
20
71.000001574829966
0
LWPOLYLINE
5
110
100
AcDbEntity
8
0
100
AcDbPolyline
90
4
70
1
43
0.0
10
-230.99999999999991
20
79.000001455620691
10
-225.99999999999991
20
79.000001455620691
10
-225.99999999999991
20
87.000001574829966
10
-230.99999999999991
20
87.000001574829966
0
LWPOLYLINE
5
111
100
AcDbEntity
8
0
100
AcDbPolyline
90
4
70
1
43
0.0
10
-179.99999999999997
20
130.00000205166708
10
-174.99999999999997
20
130.00000205166708
10
-174.99999999999997
20
135.00000205166708
10
-179.99999999999997
20
135.00000205166708
0
LWPOLYLINE
5
112
100
AcDbEntity
8
0
100
AcDbPolyline
90
4
70
1
43
0.0
10
-245.99999999999991
20
79.000001455620691
10
-240.99999999999991
20
79.000001455620691
10
-240.99999999999991
20
87.000001574829966
10
-245.99999999999991
20
87.000001574829966
0
LWPOLYLINE
5
113
100
AcDbEntity
8
0
100
AcDbPolyline
90
4
70
1
43
0.0
10
-245.99999999999991
20
103.00000181324855
10
-240.99999999999991
20
103.00000181324855
10
-240.99999999999991
20
108.00000193245782
10
-245.99999999999991
20
108.00000193245782
0
LWPOLYLINE
5
114
100
AcDbEntity
8
0
100
AcDbPolyline
90
4
70
1
43
0.0
10
-260.99999999999989
20
108.00000193245782
10
-260.99999999999989
20
103.00000181324855
10
-255.99999999999991
20
103.00000181324855
10
-255.99999999999991
20
108.00000193245782
0
LWPOLYLINE
5
115
100
AcDbEntity
8
0
100
AcDbPolyline
90
4
70
1
43
0.0
10
-260.99999999999989
20
79.000001455620691
10
-255.99999999999991
20
79.000001455620691
10
-255.99999999999991
20
87.000001574829966
10
-260.99999999999989
20
87.000001574829966
0
LWPOLYLINE
5
116
100
AcDbEntity
8
0
100
AcDbPolyline
90
4
70
1
43
0.0
10
-275.99999999999989
20
79.000001455620691
10
-270.99999999999989
20
79.000001455620691
10
-270.99999999999989
20
87.000001574829966
10
-275.99999999999989
20
87.000001574829966
0
LWPOLYLINE
5
117
100
AcDbEntity
8
0
100
AcDbPolyline
90
4
70
1
43
0.0
10
-275.99999999999989
20
103.00000181324855
10
-270.99999999999989
20
103.00000181324855
10
-270.99999999999989
20
108.00000193245782
10
-275.99999999999989
20
108.00000193245782
0
ENDSEC
0
SECTION
2
OBJECTS
0
DICTIONARY
5
C
100
AcDbDictionary
3
ACAD_GROUP
350
D
3
ACAD_MLINESTYLE
350
17
0
DICTIONARY
5
D
100
AcDbDictionary
0
DICTIONARY
5
1A
330
C
100
AcDbDictionary
0
DICTIONARY
5
17
100
AcDbDictionary
0
ENDSEC
0
EOF
