0
SECTION
2
HEADER
9
$INSUNITS
70
4
9
$ACADVER
1
AC1014
9
$HANDSEED
5
FFFF
0
ENDSEC
0
SECTION
2
TABLES
0
TABLE
2
VPORT
5
8
100
AcDbSymbolTable
0
ENDTAB
0
TABLE
2
LTYPE
5
5
100
AcDbSymbolTable
0
LTYPE
5
14
100
AcDbSymbolTableRecord
100
AcDbLinetypeTableRecord
2
BYBLOCK
70
0
0
LTYPE
5
15
100
AcDbSymbolTableRecord
100
AcDbLinetypeTableRecord
2
BYLAYER
70
0
0
ENDTAB
0
TABLE
2
LAYER
5
2
100
AcDbSymbolTable
70
2
0
LAYER
5
50
100
AcDbSymbolTableRecord
100
AcDbLayerTableRecord
2
0
70
0
6
CONTINUOUS
0
ENDTAB
0
TABLE
2
STYLE
5
3
100
AcDbSymbolTable
70
1
0
STYLE
5
11
100
AcDbSymbolTableRecord
100
AcDbTextStyleTableRecord
2
STANDARD
70
0
0
ENDTAB
0
TABLE
2
VIEW
5
6
100
AcDbSymbolTable
70
0
0
ENDTAB
0
TABLE
2
UCS
5
7
100
AcDbSymbolTable
70
0
0
ENDTAB
0
TABLE
2
APPID
5
9
100
AcDbSymbolTable
70
2
0
APPID
5
12
100
AcDbSymbolTableRecord
100
AcDbRegAppTableRecord
2
ACAD
70
0
0
ENDTAB
0
TABLE
2
DIMSTYLE
5
A
100
AcDbSymbolTable
70
1
0
ENDTAB
0
TABLE
2
BLOCK_RECORD
5
1
100
AcDbSymbolTable
70
1
0
BLOCK_RECORD
5
1F
100
AcDbSymbolTableRecord
100
AcDbBlockTableRecord
2
*MODEL_SPACE
0
BLOCK_RECORD
5
1B
100
AcDbSymbolTableRecord
100
AcDbBlockTableRecord
2
*PAPER_SPACE
0
ENDTAB
0
ENDSEC
0
SECTION
2
BLOCKS
0
BLOCK
5
20
100
AcDbEntity
100
AcDbBlockBegin
2
*MODEL_SPACE
0
ENDBLK
5
21
100
AcDbEntity
100
AcDbBlockEnd
0
BLOCK
5
1C
100
AcDbEntity
100
AcDbBlockBegin
2
*PAPER_SPACE
0
ENDBLK
5
1D
100
AcDbEntity
100
AcDbBlockEnd
0
ENDSEC
0
SECTION
2
ENTITIES
0
CIRCLE
5
100
100
AcDbEntity
8
0
100
AcDbCircle
10
37.000001072883599
20
94.822597393641701
30
0
40
19.049999999999997
210
0
220
-0
230
1
0
CIRCLE
5
101
100
AcDbEntity
8
0
100
AcDbCircle
10
60.570001072883599
20
118.39259739364169
30
0
40
2.0000000000000018
210
0
220
-0
230
1
0
CIRCLE
5
102
100
AcDbEntity
8
0
100
AcDbCircle
10
60.570001072883599
20
71.252597393641693
30
0
40
2.0000000000000018
210
0
220
-0
230
1
0
CIRCLE
5
103
100
AcDbEntity
8
0
100
AcDbCircle
10
13.430001072883595
20
118.39259739364169
30
0
40
1.9999999999999996
210
0
220
-0
230
1
0
CIRCLE
5
104
100
AcDbEntity
8
0
100
AcDbCircle
10
13.430001072883595
20
71.252597393641693
30
0
40
1.9999999999999996
210
0
220
-0
230
1
0
LWPOLYLINE
5
105
100
AcDbEntity
8
0
100
AcDbPolyline
90
76
70
1
43
0.0
10
5.8000013332341416
20
65.000002786137969
10
-0.99999913904704751
20
65.000003203749657
10
-0.99999913904704751
20
69.000003203749657
10
-5.9999974166288483
20
69.000003203749657
10
-5.9999974166288483
20
74.000002458691597
10
7.0000010948155644
20
74.000002458691597
10
7.0000010948155644
20
116.00000320374966
10
-5.9999974166288483
20
116.00000320374966
10
-5.9999974166288483
20
121.00000321865082
10
-0.9999989051844338
20
121.00000321865082
10
-0.9999989051844338
20
125.00000320374966
10
5.800001333234146
20
125.00000320374966
10
5.800001333234146
20
123.80000326335431
10
8.200001333234157
20
123.80000326335431
10
8.200001333234157
20
125.00000320374966
10
10.000001333234145
20
125.00000320374966
10
10.000001333234145
20
128.00000332295895
10
8.2000013332341446
20
128.00000332295895
10
8.2000013332341446
20
129.20000326335429
10
5.800001333234146
20
129.20000326335429
10
5.800001333234146
20
128.00000332295895
10
-0.9999989051844338
20
128.00000332295895
10
-0.9999989051844338
20
132.00000338256359
10
-5.9999974166288661
20
132.00000338256359
10
-5.9999974166288617
20
140.00000341236591
10
80.0000031010768
20
140.00000341236591
10
80.000001724689795
20
132.00000332295895
10
75.000001988885231
20
132.00000332295895
10
75.000001988885231
20
128.00000332295895
10
68.200001750466654
20
128.00000332295895
10
68.200001750466654
20
129.20000326335429
10
65.800001750466649
20
129.20000326335429
10
65.800001750466649
20
128.00000332295895
10
64.000001750466652
20
128.00000332295895
10
64.000001750466652
20
125.00000320374966
10
65.800001750466635
20
125.00000320374966
10
65.800001750466635
20
123.80000326335431
10
68.200001750466654
20
123.80000326335431
10
68.200001750466654
20
125.00000320374966
10
75.000001020309739
20
125.00000320374966
10
75.000001988885231
20
121.00000321865082
10
80.000001815905676
20
121.00000321865082
10
80.000001815905676
20
116.00000320374966
10
67.000001988885231
20
116.00000320374966
10
67.000001988885231
20
74.000002458691597
10
80.000002035749858
20
74.000002458691597
10
80.000002068185893
20
69.000002443790436
10
75.000001988885231
20
69.000002443790436
10
75.000001988885231
20
65.000002935149439
10
68.200001750466654
20
65.000002935149439
10
68.200001750466654
20
66.200002637315862
10
65.800001750466649
20
66.200002637315862
10
65.800001750466649
20
65.000002935149439
10
64.000001750466652
20
65.000002935149439
10
64.000001750466652
20
62.000002339482307
10
65.800001750466649
20
62.000002339482307
10
65.800001750466649
20
60.80000263731587
10
68.200001750466654
20
60.80000263731587
10
68.200001750466654
20
62.000002339482307
10
75.000001988885231
20
62.000002339482307
10
75.000001988885231
20
58.000002279877663
10
80.000001988885231
20
58.000002279877663
10
80.000001988885231
20
50.00000225007534
10
-5.9999991390470386
20
50.00000225007534
10
-5.9999991390470386
20
58.000002339482307
10
-0.99999913904704751
20
58.000002339482307
10
-0.99999913904704751
20
62.000002339482307
10
5.8000013332341371
20
62.000002339482307
10
5.8000013332341371
20
60.80000263731587
10
8.2000013332341446
20
60.80000263731587
10
8.2000013332341446
20
62.000002339482307
10
10.000001333234145
20
62.000002339482307
10
10.000001333234145
20
65.000002786137969
10
8.2000013332341446
20
65.000002786137969
10
8.2000013332341446
20
66.200002637315862
10
5.800001333234146
20
66.200002637315862
0
ENDSEC
0
SECTION
2
OBJECTS
0
DICTIONARY
5
C
100
AcDbDictionary
3
ACAD_GROUP
350
D
3
ACAD_MLINESTYLE
350
17
0
DICTIONARY
5
D
100
AcDbDictionary
0
DICTIONARY
5
1A
330
C
100
AcDbDictionary
0
DICTIONARY
5
17
100
AcDbDictionary
0
ENDSEC
0
EOF
