0
SECTION
2
HEADER
9
$INSUNITS
70
4
9
$ACADVER
1
AC1014
9
$HANDSEED
5
FFFF
0
ENDSEC
0
SECTION
2
TABLES
0
TABLE
2
VPORT
5
8
100
AcDbSymbolTable
0
ENDTAB
0
TABLE
2
LTYPE
5
5
100
AcDbSymbolTable
0
LTYPE
5
14
100
AcDbSymbolTableRecord
100
AcDbLinetypeTableRecord
2
BYBLOCK
70
0
0
LTYPE
5
15
100
AcDbSymbolTableRecord
100
AcDbLinetypeTableRecord
2
BYLAYER
70
0
0
ENDTAB
0
TABLE
2
LAYER
5
2
100
AcDbSymbolTable
70
2
0
LAYER
5
50
100
AcDbSymbolTableRecord
100
AcDbLayerTableRecord
2
0
70
0
6
CONTINUOUS
0
ENDTAB
0
TABLE
2
STYLE
5
3
100
AcDbSymbolTable
70
1
0
STYLE
5
11
100
AcDbSymbolTableRecord
100
AcDbTextStyleTableRecord
2
STANDARD
70
0
0
ENDTAB
0
TABLE
2
VIEW
5
6
100
AcDbSymbolTable
70
0
0
ENDTAB
0
TABLE
2
UCS
5
7
100
AcDbSymbolTable
70
0
0
ENDTAB
0
TABLE
2
APPID
5
9
100
AcDbSymbolTable
70
2
0
APPID
5
12
100
AcDbSymbolTableRecord
100
AcDbRegAppTableRecord
2
ACAD
70
0
0
ENDTAB
0
TABLE
2
DIMSTYLE
5
A
100
AcDbSymbolTable
70
1
0
ENDTAB
0
TABLE
2
BLOCK_RECORD
5
1
100
AcDbSymbolTable
70
1
0
BLOCK_RECORD
5
1F
100
AcDbSymbolTableRecord
100
AcDbBlockTableRecord
2
*MODEL_SPACE
0
BLOCK_RECORD
5
1B
100
AcDbSymbolTableRecord
100
AcDbBlockTableRecord
2
*PAPER_SPACE
0
ENDTAB
0
ENDSEC
0
SECTION
2
BLOCKS
0
BLOCK
5
20
100
AcDbEntity
100
AcDbBlockBegin
2
*MODEL_SPACE
0
ENDBLK
5
21
100
AcDbEntity
100
AcDbBlockEnd
0
BLOCK
5
1C
100
AcDbEntity
100
AcDbBlockBegin
2
*PAPER_SPACE
0
ENDBLK
5
1D
100
AcDbEntity
100
AcDbBlockEnd
0
ENDSEC
0
SECTION
2
ENTITIES
0
CIRCLE
5
100
100
AcDbEntity
8
0
100
AcDbCircle
10
36.999999493485575
20
95.000001415613227
30
-3.5527136788005009e-14
40
5.3499999999999925
210
4.0389678347315804e-28
220
4.0191315263944253e-37
230
1
0
CIRCLE
5
101
100
AcDbEntity
8
0
100
AcDbCircle
10
42.749999493485575
20
100.75000141561321
30
0
40
1.5000000000000036
210
6.2001588676316193e-62
220
4.0191315263944253e-37
230
1
0
CIRCLE
5
102
100
AcDbEntity
8
0
100
AcDbCircle
10
42.749999493485575
20
89.250001415613212
30
0
40
1.5000000000000036
210
6.2001588676316193e-62
220
4.0191315263944253e-37
230
1
0
CIRCLE
5
103
100
AcDbEntity
8
0
100
AcDbCircle
10
31.249999493485575
20
100.75000141561321
30
0
40
1.4999999999999991
210
6.2001588676316193e-62
220
4.0191315263944253e-37
230
1
0
CIRCLE
5
104
100
AcDbEntity
8
0
100
AcDbCircle
10
36.999999448782091
20
85.500001415613212
30
0
40
1.6000000000000014
210
6.2001588676316193e-62
220
4.0191315263944253e-37
230
1
0
CIRCLE
5
105
100
AcDbEntity
8
0
100
AcDbCircle
10
31.249999493485575
20
89.250001415613212
30
3.5527136788005009e-14
40
1.4999999999999991
210
6.2001588676316193e-62
220
4.0191315263944253e-37
230
1
0
CIRCLE
5
106
100
AcDbEntity
8
0
100
AcDbCircle
10
36.999999448782091
20
104.50000141561321
30
0
40
1.6000000000000014
210
6.2001588676316193e-62
220
4.0191315263944253e-37
230
1
0
LWPOLYLINE
5
107
100
AcDbEntity
8
0
100
AcDbPolyline
90
52
70
1
43
0.0
10
14.199999225342504
20
113.50000177324131
10
14.199999225346243
20
114.7000017210872
10
11.799999225346241
20
114.7000017210872
10
11.799999225222251
20
113.50000177324131
10
4.9999991656600313
20
113.50000177324131
10
4.999999165660034
20
120.00000177324119
10
68.999999821311121
20
120.00000177324119
10
68.999999821311121
20
113.50000177324135
10
62.199999231336378
20
113.50000177324135
10
62.199999225237164
20
114.70000172108726
10
59.79999922523718
20
114.70000172108726
10
59.799999225243347
20
113.50000177324135
10
57.999999165660043
20
113.50000177324135
10
57.999999165660043
20
110.50000166893318
10
59.799999225258588
20
110.50000166893318
10
59.799999225264678
20
109.30000172748963
10
62.199999231336378
20
109.30000172748963
10
62.199999231336378
20
110.50000166893318
10
68.999999225264673
20
110.50000166893318
10
68.999999821311121
20
108.00000165403191
10
73.499999910718088
20
108.00000165403191
10
73.499999910718088
20
103.00000153482262
10
68.999999821311121
20
103.00000153482262
10
68.999999821311121
20
100.00000149011913
10
61.999999791508806
20
100.00000149011913
10
61.999999791508806
20
90.00000134110752
10
68.999999821311121
20
90.00000134110752
10
68.999999821311121
20
87.000001296404037
10
73.499999910718088
20
87.000001296404037
10
73.499999910718088
20
79.000001177194747
10
68.999999821311121
20
79.000001177194747
10
68.999999821311121
20
71.000001057985457
10
4.9999991656600313
20
71.000001057985457
10
4.9999991656600313
20
79.000001177194747
10
0.49999907625305851
20
79.000001177194761
10
0.49999907625305873
20
87.000001296404037
10
4.9999991656600313
20
87.000001296404037
10
4.9999991656600322
20
90.00000134110752
10
11.999999195462355
20
90.00000134110752
10
11.999999195462355
20
100.00000149011913
10
4.9999991656600313
20
100.00000149011913
10
4.9999991656600313
20
103.00000153482262
10
0.49999907625305851
20
103.00000153482262
10
0.49999907625305873
20
108.00000165403191
10
4.9999991656600313
20
108.00000165403191
10
4.9999991656600322
20
110.50000166893312
10
11.799999225252556
20
110.50000166893312
10
11.799999225264671
20
109.30000172108721
10
14.199999225809588
20
109.30000172135411
10
14.199999225676379
20
110.50000166893312
10
15.99999922526467
20
110.50000166893312
10
15.99999922526467
20
113.50000177324131
0
ENDSEC
0
SECTION
2
OBJECTS
0
DICTIONARY
5
C
100
AcDbDictionary
3
ACAD_GROUP
350
D
3
ACAD_MLINESTYLE
350
17
0
DICTIONARY
5
D
100
AcDbDictionary
0
DICTIONARY
5
1A
330
C
100
AcDbDictionary
0
DICTIONARY
5
17
100
AcDbDictionary
0
ENDSEC
0
EOF
