0
SECTION
2
HEADER
9
$INSUNITS
70
4
9
$ACADVER
1
AC1014
9
$HANDSEED
5
FFFF
0
ENDSEC
0
SECTION
2
TABLES
0
TABLE
2
VPORT
5
8
100
AcDbSymbolTable
0
ENDTAB
0
TABLE
2
LTYPE
5
5
100
AcDbSymbolTable
0
LTYPE
5
14
100
AcDbSymbolTableRecord
100
AcDbLinetypeTableRecord
2
BYBLOCK
70
0
0
LTYPE
5
15
100
AcDbSymbolTableRecord
100
AcDbLinetypeTableRecord
2
BYLAYER
70
0
0
ENDTAB
0
TABLE
2
LAYER
5
2
100
AcDbSymbolTable
70
2
0
LAYER
5
50
100
AcDbSymbolTableRecord
100
AcDbLayerTableRecord
2
0
70
0
6
CONTINUOUS
0
ENDTAB
0
TABLE
2
STYLE
5
3
100
AcDbSymbolTable
70
1
0
STYLE
5
11
100
AcDbSymbolTableRecord
100
AcDbTextStyleTableRecord
2
STANDARD
70
0
0
ENDTAB
0
TABLE
2
VIEW
5
6
100
AcDbSymbolTable
70
0
0
ENDTAB
0
TABLE
2
UCS
5
7
100
AcDbSymbolTable
70
0
0
ENDTAB
0
TABLE
2
APPID
5
9
100
AcDbSymbolTable
70
2
0
APPID
5
12
100
AcDbSymbolTableRecord
100
AcDbRegAppTableRecord
2
ACAD
70
0
0
ENDTAB
0
TABLE
2
DIMSTYLE
5
A
100
AcDbSymbolTable
70
1
0
ENDTAB
0
TABLE
2
BLOCK_RECORD
5
1
100
AcDbSymbolTable
70
1
0
BLOCK_RECORD
5
1F
100
AcDbSymbolTableRecord
100
AcDbBlockTableRecord
2
*MODEL_SPACE
0
BLOCK_RECORD
5
1B
100
AcDbSymbolTableRecord
100
AcDbBlockTableRecord
2
*PAPER_SPACE
0
ENDTAB
0
ENDSEC
0
SECTION
2
BLOCKS
0
BLOCK
5
20
100
AcDbEntity
100
AcDbBlockBegin
2
*MODEL_SPACE
0
ENDBLK
5
21
100
AcDbEntity
100
AcDbBlockEnd
0
BLOCK
5
1C
100
AcDbEntity
100
AcDbBlockBegin
2
*PAPER_SPACE
0
ENDBLK
5
1D
100
AcDbEntity
100
AcDbBlockEnd
0
ENDSEC
0
SECTION
2
ENTITIES
0
CIRCLE
5
100
100
AcDbEntity
8
0
100
AcDbCircle
10
265.50000352412462
20
112.00000166893005
30
0
40
1.5000000000000213
210
0
220
-0
230
1
0
CIRCLE
5
101
100
AcDbEntity
8
0
100
AcDbCircle
10
250.5000033006072
20
112.00000166893005
30
0
40
1.5000000000000213
210
0
220
-0
230
1
0
CIRCLE
5
102
100
AcDbEntity
8
0
100
AcDbCircle
10
280.50000374764204
20
112.00000166893005
30
0
40
1.5000000223517418
210
0
220
-0
230
1
0
CIRCLE
5
103
100
AcDbEntity
8
0
100
AcDbCircle
10
235.50000307708979
20
112.00000166893005
30
0
40
1.5000000000000213
210
0
220
-0
230
1
0
LWPOLYLINE
5
104
100
AcDbEntity
8
0
100
AcDbPolyline
90
4
70
1
43
0.0
10
277.99999999999989
20
103.00000181324855
10
282.99999999999989
20
103.00000181324855
10
282.99999999999989
20
108.00000193245782
10
277.99999999999989
20
108.00000193245782
0
LWPOLYLINE
5
105
100
AcDbEntity
8
0
100
AcDbPolyline
90
4
70
1
43
0.0
10
277.99999999999989
20
79.000001455620691
10
282.99999999999989
20
79.000001455620691
10
282.99999999999989
20
87.000001574829966
10
277.99999999999989
20
87.000001574829966
0
LWPOLYLINE
5
106
100
AcDbEntity
8
0
100
AcDbPolyline
90
4
70
1
43
0.0
10
262.99999999999989
20
79.000001455620691
10
267.99999999999989
20
79.000001455620691
10
267.99999999999989
20
87.000001574829966
10
262.99999999999989
20
87.000001574829966
0
LWPOLYLINE
5
107
100
AcDbEntity
8
0
100
AcDbPolyline
90
4
70
1
43
0.0
10
267.99999999999989
20
103.00000181324855
10
267.99999999999989
20
108.00000193245782
10
262.99999999999989
20
108.00000193245782
10
262.99999999999989
20
103.00000181324855
0
LWPOLYLINE
5
108
100
AcDbEntity
8
0
100
AcDbPolyline
90
4
70
1
43
0.0
10
247.99999999999989
20
103.00000181324855
10
252.99999999999989
20
103.00000181324855
10
252.99999999999989
20
108.00000193245782
10
247.99999999999989
20
108.00000193245782
0
LWPOLYLINE
5
109
100
AcDbEntity
8
0
100
AcDbPolyline
90
4
70
1
43
0.0
10
247.99999999999989
20
79.000001455620691
10
252.99999999999989
20
79.000001455620691
10
252.99999999999989
20
87.000001574829966
10
247.99999999999989
20
87.000001574829966
0
LWPOLYLINE
5
110
100
AcDbEntity
8
0
100
AcDbPolyline
90
4
70
1
43
0.0
10
181.99999999999994
20
130.00000205166708
10
186.99999999999994
20
130.00000205166708
10
186.99999999999994
20
135.00000205166708
10
181.99999999999994
20
135.00000205166708
0
LWPOLYLINE
5
111
100
AcDbEntity
8
0
100
AcDbPolyline
90
14
70
1
43
0.0
10
230.00000275099501
20
70.989319762090844
10
230.00000278125788
20
48.000000954240363
42
-0.41421356275819476
10
226.0000027812579
20
44.000000948981125
10
185.00000211596486
20
44.000000948981111
42
-0.38213555972422891
10
185.00000211596486
20
144.00000243909727
10
226.0000027812579
20
144.00000243909727
42
-0.41421356203612603
10
230.00000278125788
20
140.00000244369915
10
230.00000280623931
20
119.00000192785595
42
0.41421356203613641
10
234.00000280623928
20
115.00000193245781
10
365.05313162801224
20
115.00000193245762
42
-0.41421356237309631
10
369.05313162801201
20
111.00000193245783
10
369.05313162801201
20
78.989319767385211
42
-0.41421356237310347
10
365.05313162801946
20
74.989319767392686
10
234.00000275103133
20
74.989319767392686
42
0.41421356275865456
0
LWPOLYLINE
5
112
100
AcDbEntity
8
0
100
AcDbPolyline
90
4
70
1
43
0.0
10
354.99809218517521
20
99.000001237831995
42
-1.0002388294800051
10
355.00000259280142
20
91.000001694039213
10
177.00000259280202
20
91.000001694039213
42
-0.99999999999999989
10
177.00000259280202
20
99.000001753385988
0
LWPOLYLINE
5
113
100
AcDbEntity
8
0
100
AcDbPolyline
90
4
70
1
43
0.0
10
181.99999999999994
20
66.000001455620691
10
186.99999999999994
20
66.000001455620691
10
186.99999999999994
20
71.000001574829966
10
181.99999999999994
20
71.000001574829966
0
LWPOLYLINE
5
114
100
AcDbEntity
8
0
100
AcDbPolyline
90
4
70
1
43
0.0
10
237.99999999999989
20
108.00000193245782
10
232.99999999999989
20
108.00000193245782
10
232.99999999999989
20
103.00000181324855
10
237.99999999999989
20
103.00000181324855
0
CIRCLE
5
115
100
AcDbEntity
8
0
100
AcDbCircle
10
184.50000263005492
20
124.50000213362345
30
0
40
1.5000000223517418
210
0
220
-0
230
1
0
LWPOLYLINE
5
116
100
AcDbEntity
8
0
100
AcDbPolyline
90
4
70
1
43
0.0
10
181.99999999999994
20
109.00000181324855
10
186.99999999999994
20
109.00000181324855
10
186.99999999999994
20
119.00000181324849
10
181.99999999999994
20
119.00000181324849
0
LWPOLYLINE
5
117
100
AcDbEntity
8
0
100
AcDbPolyline
90
4
70
1
43
0.0
10
232.99999999999989
20
79.000001455620691
10
237.99999999999989
20
79.000001455620691
10
237.99999999999989
20
87.000001574829966
10
232.99999999999989
20
87.000001574829966
0
ENDSEC
0
SECTION
2
OBJECTS
0
DICTIONARY
5
C
100
AcDbDictionary
3
ACAD_GROUP
350
D
3
ACAD_MLINESTYLE
350
17
0
DICTIONARY
5
D
100
AcDbDictionary
0
DICTIONARY
5
1A
330
C
100
AcDbDictionary
0
DICTIONARY
5
17
100
AcDbDictionary
0
ENDSEC
0
EOF
