0
SECTION
2
HEADER
9
$INSUNITS
70
4
9
$ACADVER
1
AC1014
9
$HANDSEED
5
FFFF
0
ENDSEC
0
SECTION
2
TABLES
0
TABLE
2
VPORT
5
8
100
AcDbSymbolTable
0
ENDTAB
0
TABLE
2
LTYPE
5
5
100
AcDbSymbolTable
0
LTYPE
5
14
100
AcDbSymbolTableRecord
100
AcDbLinetypeTableRecord
2
BYBLOCK
70
0
0
LTYPE
5
15
100
AcDbSymbolTableRecord
100
AcDbLinetypeTableRecord
2
BYLAYER
70
0
0
ENDTAB
0
TABLE
2
LAYER
5
2
100
AcDbSymbolTable
70
2
0
LAYER
5
50
100
AcDbSymbolTableRecord
100
AcDbLayerTableRecord
2
0
70
0
6
CONTINUOUS
0
ENDTAB
0
TABLE
2
STYLE
5
3
100
AcDbSymbolTable
70
1
0
STYLE
5
11
100
AcDbSymbolTableRecord
100
AcDbTextStyleTableRecord
2
STANDARD
70
0
0
ENDTAB
0
TABLE
2
VIEW
5
6
100
AcDbSymbolTable
70
0
0
ENDTAB
0
TABLE
2
UCS
5
7
100
AcDbSymbolTable
70
0
0
ENDTAB
0
TABLE
2
APPID
5
9
100
AcDbSymbolTable
70
2
0
APPID
5
12
100
AcDbSymbolTableRecord
100
AcDbRegAppTableRecord
2
ACAD
70
0
0
ENDTAB
0
TABLE
2
DIMSTYLE
5
A
100
AcDbSymbolTable
70
1
0
ENDTAB
0
TABLE
2
BLOCK_RECORD
5
1
100
AcDbSymbolTable
70
1
0
BLOCK_RECORD
5
1F
100
AcDbSymbolTableRecord
100
AcDbBlockTableRecord
2
*MODEL_SPACE
0
BLOCK_RECORD
5
1B
100
AcDbSymbolTableRecord
100
AcDbBlockTableRecord
2
*PAPER_SPACE
0
ENDTAB
0
ENDSEC
0
SECTION
2
BLOCKS
0
BLOCK
5
20
100
AcDbEntity
100
AcDbBlockBegin
2
*MODEL_SPACE
0
ENDBLK
5
21
100
AcDbEntity
100
AcDbBlockEnd
0
BLOCK
5
1C
100
AcDbEntity
100
AcDbBlockBegin
2
*PAPER_SPACE
0
ENDBLK
5
1D
100
AcDbEntity
100
AcDbBlockEnd
0
ENDSEC
0
SECTION
2
ENTITIES
0
CIRCLE
5
100
100
AcDbEntity
8
0
100
AcDbCircle
10
36.999999493360527
20
95.000001415610313
30
0
40
5.3499999999999881
210
-0
220
0
230
1
0
LWPOLYLINE
5
101
100
AcDbEntity
8
0
100
AcDbPolyline
90
58
70
1
43
0.0
10
73.499999910593033
20
119.0000015348196
10
73.499999910593033
20
109.00000153481966
10
68.999999821186066
20
109.0000015348196
10
68.999999821186066
20
100.00000149011618
10
61.99999979138375
20
100.00000149011618
10
61.99999979138375
20
90.000001341104564
10
68.999999821186066
20
90.000001341104507
10
68.999999821186066
20
71.000001057982502
10
73.499999910593033
20
71.000001296401081
10
73.499999910593033
20
66.000001177191791
10
68.999999979428509
20
66.00000141455547
10
68.999999821186066
20
63.00000166893021
10
68.999999821186066
20
58.000001057982509
10
4.9999991655349785
20
58.000001057982509
10
4.9999991655349794
20
63.000001668930153
10
4.9999990072925469
20
66.000001414555456
10
0.49999907612800709
20
66.000001177191791
10
0.49999907612800709
20
71.000001296401081
10
4.9999991655349794
20
71.000001057982502
10
4.9999991655349794
20
90.000001341104564
10
11.999999195337301
20
90.000001341104564
10
11.999999195337301
20
100.00000149011618
10
4.9999991655349794
20
100.00000149011618
10
4.9999991655349794
20
109.00000153481966
10
0.49999907612800709
20
109.00000153481966
10
0.49999907612800709
20
119.00000153481966
10
4.9999991655349794
20
119.00000153481966
10
4.9999991655349794
20
123.00000166886151
10
11.799999225127502
20
123.00000166893015
10
11.799999225139617
20
121.80000172108424
10
14.199999225684534
20
121.80000172135115
10
14.199999225551325
20
123.00000166893015
10
15.999999225139616
20
123.00000166893015
10
15.999999225139616
20
126.00000177323834
10
14.19999922521745
20
126.00000177323834
10
14.199999225085085
20
127.20000172108425
10
11.799999225085083
20
127.20000172108425
10
11.799999225097197
20
126.00000177323834
10
4.9999991655349794
20
126.00000177323834
10
4.9999991655349794
20
130.00000177323824
10
0.49999916553497781
20
130.00000177323824
10
0.4999991655349767
20
135.00000177323824
10
73.499999821186066
20
135.00000177323818
10
73.499999821186066
20
130.00000177323818
10
68.999999821186066
20
130.00000177323818
10
68.999999821186066
20
126.00000177323838
10
62.199999231211322
20
126.00000177323838
10
62.199999225112208
20
127.20000172108429
10
59.799999225112202
20
127.20000172108429
10
59.799999225118299
20
126.00000177323838
10
57.999999165534987
20
126.00000177323838
10
57.999999165534987
20
123.00000166893021
10
59.799999225133533
20
123.00000166893021
10
59.799999225139622
20
121.80000172748666
10
62.199999231211322
20
121.80000172748666
10
62.199999231211322
20
123.00000166893021
10
68.999999821186066
20
123.00000166893021
10
68.999999821186066
20
119.0000015348196
0
ENDSEC
0
SECTION
2
OBJECTS
0
DICTIONARY
5
C
100
AcDbDictionary
3
ACAD_GROUP
350
D
3
ACAD_MLINESTYLE
350
17
0
DICTIONARY
5
D
100
AcDbDictionary
0
DICTIONARY
5
1A
330
C
100
AcDbDictionary
0
DICTIONARY
5
17
100
AcDbDictionary
0
ENDSEC
0
EOF
