0
SECTION
2
HEADER
9
$INSUNITS
70
4
9
$ACADVER
1
AC1014
9
$HANDSEED
5
FFFF
0
ENDSEC
0
SECTION
2
TABLES
0
TABLE
2
VPORT
5
8
100
AcDbSymbolTable
0
ENDTAB
0
TABLE
2
LTYPE
5
5
100
AcDbSymbolTable
0
LTYPE
5
14
100
AcDbSymbolTableRecord
100
AcDbLinetypeTableRecord
2
BYBLOCK
70
0
0
LTYPE
5
15
100
AcDbSymbolTableRecord
100
AcDbLinetypeTableRecord
2
BYLAYER
70
0
0
ENDTAB
0
TABLE
2
LAYER
5
2
100
AcDbSymbolTable
70
2
0
LAYER
5
50
100
AcDbSymbolTableRecord
100
AcDbLayerTableRecord
2
0
70
0
6
CONTINUOUS
0
ENDTAB
0
TABLE
2
STYLE
5
3
100
AcDbSymbolTable
70
1
0
STYLE
5
11
100
AcDbSymbolTableRecord
100
AcDbTextStyleTableRecord
2
STANDARD
70
0
0
ENDTAB
0
TABLE
2
VIEW
5
6
100
AcDbSymbolTable
70
0
0
ENDTAB
0
TABLE
2
UCS
5
7
100
AcDbSymbolTable
70
0
0
ENDTAB
0
TABLE
2
APPID
5
9
100
AcDbSymbolTable
70
2
0
APPID
5
12
100
AcDbSymbolTableRecord
100
AcDbRegAppTableRecord
2
ACAD
70
0
0
ENDTAB
0
TABLE
2
DIMSTYLE
5
A
100
AcDbSymbolTable
70
1
0
ENDTAB
0
TABLE
2
BLOCK_RECORD
5
1
100
AcDbSymbolTable
70
1
0
BLOCK_RECORD
5
1F
100
AcDbSymbolTableRecord
100
AcDbBlockTableRecord
2
*MODEL_SPACE
0
BLOCK_RECORD
5
1B
100
AcDbSymbolTableRecord
100
AcDbBlockTableRecord
2
*PAPER_SPACE
0
ENDTAB
0
ENDSEC
0
SECTION
2
BLOCKS
0
BLOCK
5
20
100
AcDbEntity
100
AcDbBlockBegin
2
*MODEL_SPACE
0
ENDBLK
5
21
100
AcDbEntity
100
AcDbBlockEnd
0
BLOCK
5
1C
100
AcDbEntity
100
AcDbBlockBegin
2
*PAPER_SPACE
0
ENDBLK
5
1D
100
AcDbEntity
100
AcDbBlockEnd
0
ENDSEC
0
SECTION
2
ENTITIES
0
LWPOLYLINE
5
100
100
AcDbEntity
8
0
100
AcDbPolyline
90
36
70
1
43
0.0
10
52.00207369111881
20
87.5000009983778
10
61.000000610947609
20
87.5000009983778
10
61.000000610947609
20
92.500001072883606
10
71.000000610947609
20
92.500001072883606
10
71.000000610947609
20
-14.500000000000002
10
61.000000610947609
20
-14.500000000000002
10
61.000000610947609
20
-9.5
10
52.00207369111881
20
-9.5
10
52.00207369111881
20
-2.7000000000000024
10
53.202073691118812
20
-2.7000000000000024
10
53.202073691118812
20
-0.29999999999999805
10
52.00207369111881
20
-0.29999999999999805
10
52.00207369111881
20
2.4999999999999978
10
49.002073691118824
20
2.4999999999999978
10
49.002073691118824
20
-0.29999999999999805
10
47.802073691118814
20
-0.29999999999998639
10
47.802073691118814
20
-2.6999999999999877
10
49.002073691118824
20
-2.7000000000000024
10
49.002073691118824
20
-9.5
10
40.004146771290024
20
-9.5
10
40.004146771290024
20
-14.5
10
30.004146771290028
20
-14.499999999999993
10
30.004146771290028
20
92.5000009983778
10
40.004146771290024
20
92.5000009983778
10
40.004146771290024
20
87.5000009983778
10
49.002073691118824
20
87.5000009983778
10
49.002073691118824
20
80.700000998377817
10
47.802073691118807
20
80.700000998377817
10
47.802073691118807
20
78.300000998377811
10
49.002073691118824
20
78.300000998377811
10
49.002073691118824
20
75.5000009983778
10
52.00207369111881
20
75.5000009983778
10
52.00207369111881
20
78.300000998377811
10
53.202073691118827
20
78.300000998377811
10
53.202073691118827
20
80.700000998377817
10
52.00207369111881
20
80.700000998377817
0
ENDSEC
0
SECTION
2
OBJECTS
0
DICTIONARY
5
C
100
AcDbDictionary
3
ACAD_GROUP
350
D
3
ACAD_MLINESTYLE
350
17
0
DICTIONARY
5
D
100
AcDbDictionary
0
DICTIONARY
5
1A
330
C
100
AcDbDictionary
0
DICTIONARY
5
17
100
AcDbDictionary
0
ENDSEC
0
EOF
