0
SECTION
2
HEADER
9
$INSUNITS
70
4
9
$ACADVER
1
AC1014
9
$HANDSEED
5
FFFF
0
ENDSEC
0
SECTION
2
TABLES
0
TABLE
2
VPORT
5
8
100
AcDbSymbolTable
0
ENDTAB
0
TABLE
2
LTYPE
5
5
100
AcDbSymbolTable
0
LTYPE
5
14
100
AcDbSymbolTableRecord
100
AcDbLinetypeTableRecord
2
BYBLOCK
70
0
0
LTYPE
5
15
100
AcDbSymbolTableRecord
100
AcDbLinetypeTableRecord
2
BYLAYER
70
0
0
ENDTAB
0
TABLE
2
LAYER
5
2
100
AcDbSymbolTable
70
2
0
LAYER
5
50
100
AcDbSymbolTableRecord
100
AcDbLayerTableRecord
2
0
70
0
6
CONTINUOUS
0
ENDTAB
0
TABLE
2
STYLE
5
3
100
AcDbSymbolTable
70
1
0
STYLE
5
11
100
AcDbSymbolTableRecord
100
AcDbTextStyleTableRecord
2
STANDARD
70
0
0
ENDTAB
0
TABLE
2
VIEW
5
6
100
AcDbSymbolTable
70
0
0
ENDTAB
0
TABLE
2
UCS
5
7
100
AcDbSymbolTable
70
0
0
ENDTAB
0
TABLE
2
APPID
5
9
100
AcDbSymbolTable
70
2
0
APPID
5
12
100
AcDbSymbolTableRecord
100
AcDbRegAppTableRecord
2
ACAD
70
0
0
ENDTAB
0
TABLE
2
DIMSTYLE
5
A
100
AcDbSymbolTable
70
1
0
ENDTAB
0
TABLE
2
BLOCK_RECORD
5
1
100
AcDbSymbolTable
70
1
0
BLOCK_RECORD
5
1F
100
AcDbSymbolTableRecord
100
AcDbBlockTableRecord
2
*MODEL_SPACE
0
BLOCK_RECORD
5
1B
100
AcDbSymbolTableRecord
100
AcDbBlockTableRecord
2
*PAPER_SPACE
0
ENDTAB
0
ENDSEC
0
SECTION
2
BLOCKS
0
BLOCK
5
20
100
AcDbEntity
100
AcDbBlockBegin
2
*MODEL_SPACE
0
ENDBLK
5
21
100
AcDbEntity
100
AcDbBlockEnd
0
BLOCK
5
1C
100
AcDbEntity
100
AcDbBlockBegin
2
*PAPER_SPACE
0
ENDBLK
5
1D
100
AcDbEntity
100
AcDbBlockEnd
0
ENDSEC
0
SECTION
2
ENTITIES
0
LWPOLYLINE
5
100
100
AcDbEntity
8
0
100
AcDbPolyline
90
44
70
1
43
0.0
10
-181.0000027273361
20
44.000001206570417
42
-0.41421356224899453
10
-182.0000027269125
20
45.000001206570424
10
-182.0000027269125
20
54.000000804662704
10
-187.00000281631944
20
54.000000804662704
10
-187.00000281631944
20
64.000000953674316
10
-182.0000027269125
20
64.000000953674316
10
-182.0000027269125
20
68.000001057982445
10
-175.20000272691246
20
68.000001057982445
10
-175.20000272691246
20
66.800001057982442
10
-172.80000272691251
20
66.800001057982442
10
-172.80000272691251
20
68.000001057982445
10
-171.00000272691247
20
68.000001057982445
10
-171.00000272691247
20
71.000001057982445
10
-172.80000272691251
20
71.000001057982445
10
-172.80000272691251
20
72.200001057982433
10
-175.20000272691246
20
72.200001057982433
10
-175.20000272691246
20
71.000001057982445
10
-182.0000027269125
20
71.000001057982445
10
-182.0000027269125
20
75.00000111758709
10
-187.0000028014183
20
75.00000111758709
10
-187.0000028014183
20
85.000001266598701
10
-182.0000027269125
20
85.000001266598701
10
-182.0000027269125
20
112.00000105798246
10
-175.20000272691246
20
112.00000105798246
10
-175.20000272691246
20
110.80000105798246
10
-172.80000272691251
20
110.80000105798246
10
-172.80000272691251
20
112.00000105798246
10
-171.00000272691247
20
112.00000105798246
10
-171.00000272691247
20
115.00000105798244
10
-172.80000272691251
20
115.00000105798244
10
-172.80000272691251
20
116.20000105798243
10
-175.20000272691246
20
116.20000105798243
10
-175.20000272691246
20
115.00000105798244
10
-182.0000027269125
20
115.00000105798244
10
-182.0000027269125
20
131.00000195205212
10
-187.0000028014183
20
131.00000195205212
10
-187.0000028014183
20
139.00000207126141
10
-182.0000027269125
20
139.00000207126141
10
-182.0000027269125
20
143.00000216236666
42
-0.41421356247257313
10
-181.00000272657283
20
144.00000216236666
10
-180.69872615323621
20
144.00000216192467
42
-0.2229381024320751
10
-174.46720192327203
20
141.01678457075053
42
-0.35251101048061984
10
-174.46720192072769
20
46.983218263630668
42
-0.22603470426130315
10
-180.69872615706993
20
44.000000672119299
0
ENDSEC
0
SECTION
2
OBJECTS
0
DICTIONARY
5
C
100
AcDbDictionary
3
ACAD_GROUP
350
D
3
ACAD_MLINESTYLE
350
17
0
DICTIONARY
5
D
100
AcDbDictionary
0
DICTIONARY
5
1A
330
C
100
AcDbDictionary
0
DICTIONARY
5
17
100
AcDbDictionary
0
ENDSEC
0
EOF
