0
SECTION
2
HEADER
9
$INSUNITS
70
4
9
$ACADVER
1
AC1014
9
$HANDSEED
5
FFFF
0
ENDSEC
0
SECTION
2
TABLES
0
TABLE
2
VPORT
5
8
100
AcDbSymbolTable
0
ENDTAB
0
TABLE
2
LTYPE
5
5
100
AcDbSymbolTable
0
LTYPE
5
14
100
AcDbSymbolTableRecord
100
AcDbLinetypeTableRecord
2
BYBLOCK
70
0
0
LTYPE
5
15
100
AcDbSymbolTableRecord
100
AcDbLinetypeTableRecord
2
BYLAYER
70
0
0
ENDTAB
0
TABLE
2
LAYER
5
2
100
AcDbSymbolTable
70
2
0
LAYER
5
50
100
AcDbSymbolTableRecord
100
AcDbLayerTableRecord
2
0
70
0
6
CONTINUOUS
0
ENDTAB
0
TABLE
2
STYLE
5
3
100
AcDbSymbolTable
70
1
0
STYLE
5
11
100
AcDbSymbolTableRecord
100
AcDbTextStyleTableRecord
2
STANDARD
70
0
0
ENDTAB
0
TABLE
2
VIEW
5
6
100
AcDbSymbolTable
70
0
0
ENDTAB
0
TABLE
2
UCS
5
7
100
AcDbSymbolTable
70
0
0
ENDTAB
0
TABLE
2
APPID
5
9
100
AcDbSymbolTable
70
2
0
APPID
5
12
100
AcDbSymbolTableRecord
100
AcDbRegAppTableRecord
2
ACAD
70
0
0
ENDTAB
0
TABLE
2
DIMSTYLE
5
A
100
AcDbSymbolTable
70
1
0
ENDTAB
0
TABLE
2
BLOCK_RECORD
5
1
100
AcDbSymbolTable
70
1
0
BLOCK_RECORD
5
1F
100
AcDbSymbolTableRecord
100
AcDbBlockTableRecord
2
*MODEL_SPACE
0
BLOCK_RECORD
5
1B
100
AcDbSymbolTableRecord
100
AcDbBlockTableRecord
2
*PAPER_SPACE
0
ENDTAB
0
ENDSEC
0
SECTION
2
BLOCKS
0
BLOCK
5
20
100
AcDbEntity
100
AcDbBlockBegin
2
*MODEL_SPACE
0
ENDBLK
5
21
100
AcDbEntity
100
AcDbBlockEnd
0
BLOCK
5
1C
100
AcDbEntity
100
AcDbBlockBegin
2
*PAPER_SPACE
0
ENDBLK
5
1D
100
AcDbEntity
100
AcDbBlockEnd
0
ENDSEC
0
SECTION
2
ENTITIES
0
LWPOLYLINE
5
100
100
AcDbEntity
8
0
100
AcDbPolyline
90
16
70
1
43
0.0
10
-174.46720192327206
20
141.0167845707505
42
-0.3525119535045157
10
-174.46720192072769
20
46.983218263630661
42
-0.22702774537239873
10
-180.69872615706993
20
44.000000672119299
10
-209.53931499043841
20
44.000000685056015
42
-0.16104978127596153
10
-212.81821701619836
20
45.084255958400945
42
0.09058828953888802
10
-261.80703160231582
20
69.235700854180337
42
0.06944829508836875
10
-267.28314818891977
20
70.000001045556246
10
-355.9036238587135
20
70.000001046448517
42
-0.41421356231726053
10
-380.05313163091677
20
94.149508814580045
10
-380.05313163101403
20
94.691449452312355
42
-0.41421356241747992
10
-355.7445794242102
20
119.00000166416518
10
-268.16907301183369
20
119.00000166661218
42
0.080132556962327087
10
-261.88065045854478
20
120.01432965362841
42
0.060396713156641232
10
-212.78638127697974
20
143.15657014698741
42
-0.14121270341323813
10
-209.85954429763379
20
144.00000217182932
10
-180.69872615323621
20
144.00000216192467
42
-0.22702774515750665
0
LWPOLYLINE
5
101
100
AcDbEntity
8
0
100
AcDbPolyline
90
4
70
1
43
0.0
10
-278.99999999999369
20
108.00000165401345
10
-283.99999999999369
20
108.00000165401315
10
-283.99999999999369
20
103.00000153480386
10
-278.99999999999369
20
103.00000153480417
0
LWPOLYLINE
5
102
100
AcDbEntity
8
0
100
AcDbPolyline
90
4
70
1
43
0.0
10
-278.99999999999369
20
87.000001296385591
10
-283.99999999999369
20
87.000001296385278
10
-283.99999999999369
20
79.000001177176003
10
-278.99999999999369
20
79.000001177176301
0
CIRCLE
5
103
100
AcDbEntity
8
0
100
AcDbCircle
10
-281.50000419467688
20
112.00000166893005
30
0
40
1.5000000223517418
210
0
220
0
230
1
0
CIRCLE
5
104
100
AcDbEntity
8
0
100
AcDbCircle
10
-184.50000274926424
20
124.50000185519457
30
0
40
1.5000000223517418
210
0
220
0
230
1
0
LWPOLYLINE
5
105
100
AcDbEntity
8
0
100
AcDbPolyline
90
4
70
1
43
0.0
10
-238.99999999999991
20
108.00000193245782
10
-238.99999999999991
20
103.00000181324855
10
-233.99999999999991
20
103.00000181324855
10
-233.99999999999991
20
108.00000193245782
0
LWPOLYLINE
5
106
100
AcDbEntity
8
0
100
AcDbPolyline
90
4
70
1
43
0.0
10
-238.99999999999991
20
79.000001455620691
10
-233.99999999999991
20
79.000001455620691
10
-233.99999999999991
20
87.000001574829966
10
-238.99999999999991
20
87.000001574829966
0
LWPOLYLINE
5
107
100
AcDbEntity
8
0
100
AcDbPolyline
90
4
70
1
43
0.0
10
-253.99999999999991
20
79.000001455620691
10
-248.99999999999991
20
79.000001455620691
10
-248.99999999999991
20
87.000001574829966
10
-253.99999999999991
20
87.000001574829966
0
LWPOLYLINE
5
108
100
AcDbEntity
8
0
100
AcDbPolyline
90
4
70
1
43
0.0
10
-253.99999999999991
20
103.00000181324855
10
-248.99999999999991
20
103.00000181324855
10
-248.99999999999991
20
108.00000193245782
10
-253.99999999999991
20
108.00000193245782
0
CIRCLE
5
109
100
AcDbEntity
8
0
100
AcDbCircle
10
-251.50000374764204
20
112.00000166893005
30
0
40
1.5000000223517418
210
0
220
0
230
1
0
CIRCLE
5
110
100
AcDbEntity
8
0
100
AcDbCircle
10
-236.50000352412462
20
112.00000166893005
30
0
40
1.5000000000000213
210
0
220
0
230
1
0
LWPOLYLINE
5
111
100
AcDbEntity
8
0
100
AcDbPolyline
90
4
70
1
43
0.0
10
-186.99999999999994
20
64.000001177191791
10
-181.99999999999994
20
64.000001177191791
10
-181.99999999999994
20
75.000001296401081
10
-186.99999999999994
20
75.000001296401081
0
LWPOLYLINE
5
112
100
AcDbEntity
8
0
100
AcDbPolyline
90
4
70
1
43
0.0
10
-186.99999999999994
20
131.00000177323824
10
-181.99999999999994
20
131.00000177323824
10
-181.99999999999994
20
141.00000177323821
10
-186.99999999999994
20
141.00000177323821
0
LWPOLYLINE
5
113
100
AcDbEntity
8
0
100
AcDbPolyline
90
4
70
1
43
0.0
10
-186.99999999999994
20
109.00000153481966
10
-181.99999999999994
20
109.00000153481966
10
-181.99999999999994
20
119.00000153481966
10
-186.99999999999994
20
119.00000153481966
0
LWPOLYLINE
5
114
100
AcDbEntity
8
0
100
AcDbPolyline
90
4
70
1
43
0.0
10
-263.99999999999369
20
87.000001296385591
10
-268.99999999999369
20
87.000001296385278
10
-268.99999999999369
20
79.000001177176003
10
-263.99999999999369
20
79.000001177176301
0
LWPOLYLINE
5
115
100
AcDbEntity
8
0
100
AcDbPolyline
90
4
70
1
43
0.0
10
-263.99999999999369
20
108.00000165401345
10
-268.99999999999369
20
108.00000165401315
10
-268.99999999999369
20
103.00000153480386
10
-263.99999999999369
20
103.00000153480417
0
CIRCLE
5
116
100
AcDbEntity
8
0
100
AcDbCircle
10
-266.50000397115946
20
112.00000166893005
30
0
40
1.5000000223517418
210
0
220
0
230
1
0
LWPOLYLINE
5
117
100
AcDbEntity
8
0
100
AcDbPolyline
90
4
70
1
43
0.0
10
-362.00000259280358
20
91.000001415610313
10
-169.00000259280205
20
91.000001415610328
42
0.99999999999999989
10
-169.00000259280205
20
99.000001474957102
10
-361.99800890053046
20
99.00000091875917
42
1.000249242602661
0
ENDSEC
0
SECTION
2
OBJECTS
0
DICTIONARY
5
C
100
AcDbDictionary
3
ACAD_GROUP
350
D
3
ACAD_MLINESTYLE
350
17
0
DICTIONARY
5
D
100
AcDbDictionary
0
DICTIONARY
5
1A
330
C
100
AcDbDictionary
0
DICTIONARY
5
17
100
AcDbDictionary
0
ENDSEC
0
EOF
