0
SECTION
2
HEADER
9
$INSUNITS
70
4
9
$ACADVER
1
AC1014
9
$HANDSEED
5
FFFF
0
ENDSEC
0
SECTION
2
TABLES
0
TABLE
2
VPORT
5
8
100
AcDbSymbolTable
0
ENDTAB
0
TABLE
2
LTYPE
5
5
100
AcDbSymbolTable
0
LTYPE
5
14
100
AcDbSymbolTableRecord
100
AcDbLinetypeTableRecord
2
BYBLOCK
70
0
0
LTYPE
5
15
100
AcDbSymbolTableRecord
100
AcDbLinetypeTableRecord
2
BYLAYER
70
0
0
ENDTAB
0
TABLE
2
LAYER
5
2
100
AcDbSymbolTable
70
2
0
LAYER
5
50
100
AcDbSymbolTableRecord
100
AcDbLayerTableRecord
2
0
70
0
6
CONTINUOUS
0
ENDTAB
0
TABLE
2
STYLE
5
3
100
AcDbSymbolTable
70
1
0
STYLE
5
11
100
AcDbSymbolTableRecord
100
AcDbTextStyleTableRecord
2
STANDARD
70
0
0
ENDTAB
0
TABLE
2
VIEW
5
6
100
AcDbSymbolTable
70
0
0
ENDTAB
0
TABLE
2
UCS
5
7
100
AcDbSymbolTable
70
0
0
ENDTAB
0
TABLE
2
APPID
5
9
100
AcDbSymbolTable
70
2
0
APPID
5
12
100
AcDbSymbolTableRecord
100
AcDbRegAppTableRecord
2
ACAD
70
0
0
ENDTAB
0
TABLE
2
DIMSTYLE
5
A
100
AcDbSymbolTable
70
1
0
ENDTAB
0
TABLE
2
BLOCK_RECORD
5
1
100
AcDbSymbolTable
70
1
0
BLOCK_RECORD
5
1F
100
AcDbSymbolTableRecord
100
AcDbBlockTableRecord
2
*MODEL_SPACE
0
BLOCK_RECORD
5
1B
100
AcDbSymbolTableRecord
100
AcDbBlockTableRecord
2
*PAPER_SPACE
0
ENDTAB
0
ENDSEC
0
SECTION
2
BLOCKS
0
BLOCK
5
20
100
AcDbEntity
100
AcDbBlockBegin
2
*MODEL_SPACE
0
ENDBLK
5
21
100
AcDbEntity
100
AcDbBlockEnd
0
BLOCK
5
1C
100
AcDbEntity
100
AcDbBlockBegin
2
*PAPER_SPACE
0
ENDBLK
5
1D
100
AcDbEntity
100
AcDbBlockEnd
0
ENDSEC
0
SECTION
2
ENTITIES
0
CIRCLE
5
100
100
AcDbEntity
8
0
100
AcDbCircle
10
-62.569893888314461
20
118.57000246067571
30
0
40
1.9999999999999929
210
0
220
0
230
1
0
CIRCLE
5
101
100
AcDbEntity
8
0
100
AcDbCircle
10
-15.429893888314455
20
118.57000246067571
30
0
40
1.9999999999999929
210
0
220
0
230
1
0
CIRCLE
5
102
100
AcDbEntity
8
0
100
AcDbCircle
10
-62.569893888314461
20
71.430002460675709
30
0
40
1.9999999999999929
210
0
220
0
230
1
0
CIRCLE
5
103
100
AcDbEntity
8
0
100
AcDbCircle
10
-15.429893888314455
20
71.430002460675709
30
0
40
1.9999999999999929
210
0
220
0
230
1
0
CIRCLE
5
104
100
AcDbEntity
8
0
100
AcDbCircle
10
-38.99989388831446
20
95.000002460675702
30
0
40
19.249999999999993
210
0
220
0
230
1
0
LWPOLYLINE
5
105
100
AcDbEntity
8
0
100
AcDbPolyline
90
76
70
1
43
0.0
10
-87.499901020318461
20
137.00000320374966
10
-79.699999657273295
20
137.00000524852553
10
-79.699999657273295
20
135.800001847744
10
-77.29999965727329
20
135.800001847744
10
-77.29999965727329
20
137.00000902349339
10
-75.499999657275566
20
137.00001043910638
10
-75.499999657275566
20
140.00000060063246
10
-77.29999965727329
20
140.00000060063246
10
-77.29999965727329
20
141.20000184774398
10
-79.699999657273295
20
141.20000184774398
10
-79.699999657273295
20
140.00000190734863
10
-87.499900136220788
20
139.99994338585412
10
-87.499897784791273
20
143.97348994665438
10
-92.499897516868486
20
143.97152793668576
10
-92.499894147159694
20
151.99994670572499
10
14.500106370530787
20
151.99989660326216
10
14.500101636363054
20
143.99989610378066
10
9.5001031249195051
20
143.99989906263463
10
9.5001007579100101
20
139.99991898425759
10
1.7000007599592259
20
140.00000190734863
10
1.7000007599592259
20
141.20000184774398
10
-0.69999924004077618
20
141.20000184774398
10
-0.69999924004077618
20
140.00000190734863
10
-2.4999992400407733
20
140.00000190734863
10
-2.4999992400407733
20
137.00000178813934
10
-0.69999924004079395
20
137.00000178813934
10
-0.69999924004079395
20
135.800001847744
10
1.7000007599592259
20
135.800001847744
10
1.7000007599592259
20
137.00000178813934
10
9.5000989051977243
20
136.99996923800424
10
9.5000964349311108
20
132.99996140959283
10
14.500094946374571
20
132.99995832177731
10
14.500093130011955
20
122.99995830687286
10
-1.0948155604317833e-06
20
123.00000652942101
10
-1.0948155604317833e-06
20
67.000010609963965
10
14.50006159791638
20
66.999892416003831
10
14.5000554223242
20
56.999958306890626
10
9.5000645555027958
20
56.99996139470143
10
9.5000620852677393
20
52.999944746421903
10
1.7000007599592259
20
53.000001519539126
10
1.7000007599592259
20
54.200001221705556
10
-0.69999924004077618
20
54.200001221705556
10
-0.69999924004077618
20
53.000001519539126
10
-2.4999992400407733
20
53.000001519539126
10
-2.4999992400407733
20
50.000063927070066
10
-0.69999924004077618
20
50.000063927070066
10
-0.69999924004077618
20
48.800001221705557
10
1.7000007599592259
20
48.800001221705557
10
1.7000007599592259
20
50.000063927070066
10
9.5000602326346968
20
49.999980607335928
10
9.5000577623061062
20
45.999960530436169
10
14.500057762305138
20
45.999957442619731
10
14.500052821799088
20
37.999957839259473
10
-92.499948306117105
20
38.000009846094365
10
-92.499943365611657
20
46.000008446544072
10
-87.499917960780721
20
46.000005140631977
10
-87.49991391367287
20
50.000006847665958
10
-79.69999965727331
20
50.000000923871994
10
-79.69999965727331
20
48.800001221705557
10
-77.29999965727329
20
48.800001221705557
10
-77.29999965727329
20
50.000000923871994
10
-75.499999657273293
20
50.000000923871994
10
-75.499999657273293
20
53.000001370527656
10
-77.29999965727329
20
53.000001370527656
10
-77.29999965727329
20
54.200001221705556
10
-79.699999657273295
20
54.200001221705556
10
-79.699999657273295
20
53.000001370527656
10
-87.499902873110059
20
53.000007443326837
10
-87.499898099365112
20
57.000005473302842
10
-92.50043716743798
20
57.000001028180122
10
-92.50043716743798
20
67.000001043081298
10
-77.9999322390684
20
67.00000176756437
10
-78.000001988884534
20
123.00000264107857
10
-92.499906102506188
20
123.00001079975527
10
-92.49990428614359
20
133.00001075923706
10
-87.499904459142627
20
133.00000767409441
0
ENDSEC
0
SECTION
2
OBJECTS
0
DICTIONARY
5
C
100
AcDbDictionary
3
ACAD_GROUP
350
D
3
ACAD_MLINESTYLE
350
17
0
DICTIONARY
5
D
100
AcDbDictionary
0
DICTIONARY
5
1A
330
C
100
AcDbDictionary
0
DICTIONARY
5
17
100
AcDbDictionary
0
ENDSEC
0
EOF
