0
SECTION
2
HEADER
9
$INSUNITS
70
4
9
$ACADVER
1
AC1014
9
$HANDSEED
5
FFFF
0
ENDSEC
0
SECTION
2
TABLES
0
TABLE
2
VPORT
5
8
100
AcDbSymbolTable
0
ENDTAB
0
TABLE
2
LTYPE
5
5
100
AcDbSymbolTable
0
LTYPE
5
14
100
AcDbSymbolTableRecord
100
AcDbLinetypeTableRecord
2
BYBLOCK
70
0
0
LTYPE
5
15
100
AcDbSymbolTableRecord
100
AcDbLinetypeTableRecord
2
BYLAYER
70
0
0
ENDTAB
0
TABLE
2
LAYER
5
2
100
AcDbSymbolTable
70
2
0
LAYER
5
50
100
AcDbSymbolTableRecord
100
AcDbLayerTableRecord
2
0
70
0
6
CONTINUOUS
0
ENDTAB
0
TABLE
2
STYLE
5
3
100
AcDbSymbolTable
70
1
0
STYLE
5
11
100
AcDbSymbolTableRecord
100
AcDbTextStyleTableRecord
2
STANDARD
70
0
0
ENDTAB
0
TABLE
2
VIEW
5
6
100
AcDbSymbolTable
70
0
0
ENDTAB
0
TABLE
2
UCS
5
7
100
AcDbSymbolTable
70
0
0
ENDTAB
0
TABLE
2
APPID
5
9
100
AcDbSymbolTable
70
2
0
APPID
5
12
100
AcDbSymbolTableRecord
100
AcDbRegAppTableRecord
2
ACAD
70
0
0
ENDTAB
0
TABLE
2
DIMSTYLE
5
A
100
AcDbSymbolTable
70
1
0
ENDTAB
0
TABLE
2
BLOCK_RECORD
5
1
100
AcDbSymbolTable
70
1
0
BLOCK_RECORD
5
1F
100
AcDbSymbolTableRecord
100
AcDbBlockTableRecord
2
*MODEL_SPACE
0
BLOCK_RECORD
5
1B
100
AcDbSymbolTableRecord
100
AcDbBlockTableRecord
2
*PAPER_SPACE
0
ENDTAB
0
ENDSEC
0
SECTION
2
BLOCKS
0
BLOCK
5
20
100
AcDbEntity
100
AcDbBlockBegin
2
*MODEL_SPACE
0
ENDBLK
5
21
100
AcDbEntity
100
AcDbBlockEnd
0
BLOCK
5
1C
100
AcDbEntity
100
AcDbBlockBegin
2
*PAPER_SPACE
0
ENDBLK
5
1D
100
AcDbEntity
100
AcDbBlockEnd
0
ENDSEC
0
SECTION
2
ENTITIES
0
LWPOLYLINE
5
100
100
AcDbEntity
8
0
100
AcDbPolyline
90
4
70
1
43
0.0
10
-56.499999999999993
20
54.000000804662704
10
-51.499999999999993
20
54.000000804662704
10
-51.499999999999993
20
64.000000953674316
10
-56.499999999999993
20
64.000000953674316
0
LWPOLYLINE
5
101
100
AcDbEntity
8
0
100
AcDbPolyline
90
4
70
1
43
0.0
10
-26.499999999999993
20
75.00000111758709
10
-21.499999999999993
20
75.00000111758709
10
-21.499999999999993
20
85.000001266598701
10
-26.499999999999993
20
85.000001266598701
0
LWPOLYLINE
5
102
100
AcDbEntity
8
0
100
AcDbPolyline
90
4
70
1
43
0.0
10
-56.499999999999993
20
131.00000195205212
10
-51.499999999999993
20
131.00000195205212
10
-51.499999999999993
20
139.00000207126141
10
-56.499999999999993
20
139.00000207126141
0
LWPOLYLINE
5
103
100
AcDbEntity
8
0
100
AcDbPolyline
90
4
70
1
43
0.0
10
-26.499999999999993
20
131.00000195205212
10
-21.499999999999993
20
131.00000195205212
10
-21.499999999999993
20
139.00000207126141
10
-26.499999999999993
20
139.00000207126141
0
LWPOLYLINE
5
104
100
AcDbEntity
8
0
100
AcDbPolyline
90
4
70
1
43
0.0
10
-26.499999999999993
20
54.000000804662704
10
-21.499999999999993
20
54.000000804662704
10
-21.499999999999993
20
64.000000953674316
10
-26.499999999999993
20
64.000000953674316
0
LWPOLYLINE
5
105
100
AcDbEntity
8
0
100
AcDbPolyline
90
4
70
1
43
0.0
10
-56.499999999999993
20
75.00000111758709
10
-51.499999999999993
20
75.00000111758709
10
-51.499999999999993
20
85.000001266598701
10
-56.499999999999993
20
85.000001266598701
0
CIRCLE
5
106
100
AcDbEntity
8
0
100
AcDbCircle
10
-24.000000327825546
20
113.5000016912818
30
0
40
1.5000000223517418
210
0
220
0
230
1
0
CIRCLE
5
107
100
AcDbEntity
8
0
100
AcDbCircle
10
-24.000000327825546
20
69.500001035630703
30
0
40
1.5000000223517418
210
0
220
0
230
1
0
CIRCLE
5
108
100
AcDbEntity
8
0
100
AcDbCircle
10
-54.000000774860382
20
113.5000016912818
30
0
40
1.5000000223517418
210
0
220
0
230
1
0
CIRCLE
5
109
100
AcDbEntity
8
0
100
AcDbCircle
10
-54.000000774860382
20
69.500001035630703
30
0
40
1.5000000223517418
210
0
220
0
230
1
0
CIRCLE
5
110
100
AcDbEntity
8
0
100
AcDbCircle
10
-38.999999493360527
20
95.000001415610313
30
0
40
5.8499999999999996
210
0
220
0
230
1
0
LWPOLYLINE
5
111
100
AcDbEntity
8
0
100
AcDbPolyline
90
58
70
1
43
0.0
10
-85.499999910593019
20
109.00000153481966
10
-85.499999910593019
20
119.0000015348196
10
-80.999999821186066
20
119.0000015348196
10
-80.999999821186066
20
123.00000166893021
10
-74.199999231211322
20
123.00000166893021
10
-74.199999231211322
20
121.80000172748666
10
-71.799999225139629
20
121.80000172748666
10
-71.799999225133533
20
123.00000166893021
10
-69.999999165534987
20
123.00000166893021
10
-69.999999165534987
20
126.00000177323838
10
-71.799999225118299
20
126.00000177323838
10
-71.799999225112202
20
127.20000172108429
10
-74.199999225112208
20
127.20000172108429
10
-74.199999231211322
20
126.00000177323838
10
-80.999999821186066
20
126.00000177323838
10
-80.999999821186066
20
131.00000177323818
10
-85.499999821186066
20
131.00000177323818
10
-85.499999821186066
20
141.00000177323815
10
7.5000008344650215
20
141.00000177323821
10
7.5000008344650215
20
131.00000177323824
10
3.0000008344650198
20
131.00000177323824
10
3.0000008344650198
20
126.00000177323834
10
-3.7999992250971992
20
126.00000177323834
10
-3.7999992250850845
20
127.20000172108425
10
-6.1999992250850866
20
127.20000172108425
10
-6.1999992252174518
20
126.00000177323834
10
-7.9999992251396179
20
126.00000177323834
10
-7.9999992251396179
20
123.00000166893015
10
-6.199999225551327
20
123.00000166893015
10
-6.199999225684536
20
121.80000172135115
10
-3.7999992251396186
20
121.80000172108424
10
-3.7999992251275039
20
123.00000166893015
10
3.0000008344650198
20
123.00000166886151
10
3.0000008344650198
20
119.00000153481966
10
7.5000009238719922
20
119.00000153481966
10
7.5000009238719922
20
109.00000153481966
10
3.0000008344650198
20
109.00000153481966
10
3.0000008344650198
20
100.00000149011618
10
-3.9999991953373026
20
100.00000149011618
10
-3.9999991953373026
20
90.000001341104564
10
3.0000008344650198
20
90.000001341104564
10
3.0000008344650198
20
75.000001296401081
10
7.5000009238719922
20
75.000001296401081
10
7.5000009238719922
20
64.000001177191791
10
3.0000008872124839
20
64.00000141455547
10
3.0000008344650198
20
63.000001668930153
10
3.0000008344650198
20
44.000001057982502
10
-80.999999821186066
20
44.000001057982502
10
-80.999999821186066
20
63.00000166893021
10
-80.999999873933533
20
64.00000141455547
10
-85.499999910593019
20
64.000001177191791
10
-85.499999910593019
20
75.000001296401081
10
-80.999999821186066
20
75.000001296401024
10
-80.999999821186066
20
90.000001341104507
10
-73.999999791383743
20
90.000001341104564
10
-73.999999791383743
20
100.00000149011618
10
-80.999999821186066
20
100.00000149011618
10
-80.999999821186066
20
109.0000015348196
0
ENDSEC
0
SECTION
2
OBJECTS
0
DICTIONARY
5
C
100
AcDbDictionary
3
ACAD_GROUP
350
D
3
ACAD_MLINESTYLE
350
17
0
DICTIONARY
5
D
100
AcDbDictionary
0
DICTIONARY
5
1A
330
C
100
AcDbDictionary
0
DICTIONARY
5
17
100
AcDbDictionary
0
ENDSEC
0
EOF
