0
SECTION
2
HEADER
9
$INSUNITS
70
4
9
$ACADVER
1
AC1014
9
$HANDSEED
5
FFFF
0
ENDSEC
0
SECTION
2
TABLES
0
TABLE
2
VPORT
5
8
100
AcDbSymbolTable
0
ENDTAB
0
TABLE
2
LTYPE
5
5
100
AcDbSymbolTable
0
LTYPE
5
14
100
AcDbSymbolTableRecord
100
AcDbLinetypeTableRecord
2
BYBLOCK
70
0
0
LTYPE
5
15
100
AcDbSymbolTableRecord
100
AcDbLinetypeTableRecord
2
BYLAYER
70
0
0
ENDTAB
0
TABLE
2
LAYER
5
2
100
AcDbSymbolTable
70
2
0
LAYER
5
50
100
AcDbSymbolTableRecord
100
AcDbLayerTableRecord
2
0
70
0
6
CONTINUOUS
0
ENDTAB
0
TABLE
2
STYLE
5
3
100
AcDbSymbolTable
70
1
0
STYLE
5
11
100
AcDbSymbolTableRecord
100
AcDbTextStyleTableRecord
2
STANDARD
70
0
0
ENDTAB
0
TABLE
2
VIEW
5
6
100
AcDbSymbolTable
70
0
0
ENDTAB
0
TABLE
2
UCS
5
7
100
AcDbSymbolTable
70
0
0
ENDTAB
0
TABLE
2
APPID
5
9
100
AcDbSymbolTable
70
2
0
APPID
5
12
100
AcDbSymbolTableRecord
100
AcDbRegAppTableRecord
2
ACAD
70
0
0
ENDTAB
0
TABLE
2
DIMSTYLE
5
A
100
AcDbSymbolTable
70
1
0
ENDTAB
0
TABLE
2
BLOCK_RECORD
5
1
100
AcDbSymbolTable
70
1
0
BLOCK_RECORD
5
1F
100
AcDbSymbolTableRecord
100
AcDbBlockTableRecord
2
*MODEL_SPACE
0
BLOCK_RECORD
5
1B
100
AcDbSymbolTableRecord
100
AcDbBlockTableRecord
2
*PAPER_SPACE
0
ENDTAB
0
ENDSEC
0
SECTION
2
BLOCKS
0
BLOCK
5
20
100
AcDbEntity
100
AcDbBlockBegin
2
*MODEL_SPACE
0
ENDBLK
5
21
100
AcDbEntity
100
AcDbBlockEnd
0
BLOCK
5
1C
100
AcDbEntity
100
AcDbBlockBegin
2
*PAPER_SPACE
0
ENDBLK
5
1D
100
AcDbEntity
100
AcDbBlockEnd
0
ENDSEC
0
SECTION
2
ENTITIES
0
CIRCLE
5
100
100
AcDbEntity
8
0
100
AcDbCircle
10
-38.99999944869613
20
85.500001415611223
30
-3.5527136788005009e-14
40
1.6000000000000014
210
6.2001588676316193e-62
220
-4.0191315263944253e-37
230
1
0
CIRCLE
5
101
100
AcDbEntity
8
0
100
AcDbCircle
10
-29.000000506678568
20
105.00000169404007
30
0
40
2.0000000000000018
210
6.2001588676316168e-62
220
-4.0191315263944245e-37
230
1
0
CIRCLE
5
102
100
AcDbEntity
8
0
100
AcDbCircle
10
-38.99999944869613
20
104.50000141561122
30
0
40
1.6000000000000014
210
6.2001588676316193e-62
220
-4.0191315263944253e-37
230
1
0
CIRCLE
5
103
100
AcDbEntity
8
0
100
AcDbCircle
10
-49.000000506678568
20
85.000001694040066
30
0
40
2.0000000000000018
210
6.2001588676316168e-62
220
-4.0191315263944245e-37
230
1
0
CIRCLE
5
104
100
AcDbEntity
8
0
100
AcDbCircle
10
-49.000000506678568
20
105.00000169404007
30
0
40
2.0000000000000018
210
6.2001588676316168e-62
220
-4.0191315263944245e-37
230
1
0
CIRCLE
5
105
100
AcDbEntity
8
0
100
AcDbCircle
10
-38.999999493399613
20
95.000001415611237
30
0
40
5.4999999999999982
210
6.2001588676316193e-62
220
-4.0191315263944253e-37
230
1
0
CIRCLE
5
106
100
AcDbEntity
8
0
100
AcDbCircle
10
-29.000000506678568
20
85.000001694040066
30
-3.5527136788005009e-14
40
2.0000000000000018
210
6.2001588676316168e-62
220
-4.0191315263944245e-37
230
1
0
LWPOLYLINE
5
107
100
AcDbEntity
8
0
100
AcDbPolyline
90
52
70
1
43
0.0
10
-6.1999992253419647
20
114.70000172108527
10
-6.1999992252565415
20
113.50000177323936
10
-7.9999992251787075
20
113.50000177323936
10
-7.9999992251787075
20
110.50000166893119
10
-6.1999992255904166
20
110.50000166893119
10
-6.1999992257236265
20
109.30000172135217
10
-3.7999992251787091
20
109.30000172108528
10
-3.7999992251665944
20
110.50000166893119
10
3.0000008344259284
20
110.50000166893119
10
3.0000008344259288
20
108.00000165402997
10
7.5000009238329017
20
108.00000165402997
10
7.5000009238329017
20
103.00000153482068
10
3.0000008344259284
20
103.00000153482068
10
3.0000008344259284
20
100.0000014901172
10
-3.9999991953763931
20
100.0000014901172
10
-3.9999991953763931
20
90.000001341105587
10
3.0000008344259284
20
90.000001341105587
10
3.0000008344259288
20
87.000001296402104
10
7.5000009238329017
20
87.00000129640209
10
7.5000009238329017
20
79.000001177192814
10
3.0000008344259284
20
79.000001177192814
10
3.0000008344259399
20
71.000001057983525
10
-80.999999165574067
20
71.000001057983525
10
-80.999999165574067
20
79.000001177192814
10
-85.499999910632098
20
79.000001177192829
10
-85.499999910632098
20
87.000001296402104
10
-80.999999165574067
20
87.000001296402104
10
-80.999999165574081
20
90.000001341105587
10
-73.999999791422837
20
90.000001341105587
10
-73.999999791422823
20
100.0000014901172
10
-80.999999165574067
20
100.0000014901172
10
-80.999999165574067
20
103.00000153482068
10
-85.499999910632098
20
103.00000153482068
10
-85.499999910632098
20
108.00000165402997
10
-80.999999821225146
20
108.00000165402997
10
-80.999999225178698
20
110.50000166893125
10
-74.199999231250416
20
110.50000166893125
10
-74.199999231250416
20
109.3000017274877
10
-71.799999225178709
20
109.3000017274877
10
-71.799999225172627
20
110.50000166893125
10
-69.999999165574081
20
110.50000166893125
10
-69.999999165574081
20
113.50000177323942
10
-71.799999225157379
20
113.50000177323942
10
-71.799999225151183
20
114.70000172108533
10
-74.199999225151188
20
114.70000172108533
10
-74.199999231250402
20
113.50000177323942
10
-80.999999165574067
20
113.50000177323942
10
-80.999999165574067
20
120.00000177323926
10
3.0000008344259284
20
120.00000177323926
10
3.0000008344259284
20
113.50000177323936
10
-3.7999992251362897
20
113.50000177323936
10
-3.7999992253419625
20
114.70000172108527
0
ENDSEC
0
SECTION
2
OBJECTS
0
DICTIONARY
5
C
100
AcDbDictionary
3
ACAD_GROUP
350
D
3
ACAD_MLINESTYLE
350
17
0
DICTIONARY
5
D
100
AcDbDictionary
0
DICTIONARY
5
1A
330
C
100
AcDbDictionary
0
DICTIONARY
5
17
100
AcDbDictionary
0
ENDSEC
0
EOF
