0
SECTION
2
HEADER
9
$INSUNITS
70
4
9
$ACADVER
1
AC1014
9
$HANDSEED
5
FFFF
0
ENDSEC
0
SECTION
2
TABLES
0
TABLE
2
VPORT
5
8
100
AcDbSymbolTable
0
ENDTAB
0
TABLE
2
LTYPE
5
5
100
AcDbSymbolTable
0
LTYPE
5
14
100
AcDbSymbolTableRecord
100
AcDbLinetypeTableRecord
2
BYBLOCK
70
0
0
LTYPE
5
15
100
AcDbSymbolTableRecord
100
AcDbLinetypeTableRecord
2
BYLAYER
70
0
0
ENDTAB
0
TABLE
2
LAYER
5
2
100
AcDbSymbolTable
70
2
0
LAYER
5
50
100
AcDbSymbolTableRecord
100
AcDbLayerTableRecord
2
0
70
0
6
CONTINUOUS
0
ENDTAB
0
TABLE
2
STYLE
5
3
100
AcDbSymbolTable
70
1
0
STYLE
5
11
100
AcDbSymbolTableRecord
100
AcDbTextStyleTableRecord
2
STANDARD
70
0
0
ENDTAB
0
TABLE
2
VIEW
5
6
100
AcDbSymbolTable
70
0
0
ENDTAB
0
TABLE
2
UCS
5
7
100
AcDbSymbolTable
70
0
0
ENDTAB
0
TABLE
2
APPID
5
9
100
AcDbSymbolTable
70
2
0
APPID
5
12
100
AcDbSymbolTableRecord
100
AcDbRegAppTableRecord
2
ACAD
70
0
0
ENDTAB
0
TABLE
2
DIMSTYLE
5
A
100
AcDbSymbolTable
70
1
0
ENDTAB
0
TABLE
2
BLOCK_RECORD
5
1
100
AcDbSymbolTable
70
1
0
BLOCK_RECORD
5
1F
100
AcDbSymbolTableRecord
100
AcDbBlockTableRecord
2
*MODEL_SPACE
0
BLOCK_RECORD
5
1B
100
AcDbSymbolTableRecord
100
AcDbBlockTableRecord
2
*PAPER_SPACE
0
ENDTAB
0
ENDSEC
0
SECTION
2
BLOCKS
0
BLOCK
5
20
100
AcDbEntity
100
AcDbBlockBegin
2
*MODEL_SPACE
0
ENDBLK
5
21
100
AcDbEntity
100
AcDbBlockEnd
0
BLOCK
5
1C
100
AcDbEntity
100
AcDbBlockBegin
2
*PAPER_SPACE
0
ENDBLK
5
1D
100
AcDbEntity
100
AcDbBlockEnd
0
ENDSEC
0
SECTION
2
ENTITIES
0
LWPOLYLINE
5
100
100
AcDbEntity
8
0
100
AcDbPolyline
90
4
70
1
43
0.0
10
-319.00000475347042
20
38.000000566244125
10
-319.00000475347042
20
46.000000685453415
10
-324.00000482797623
20
46.000000685453415
10
-324.00000482797623
20
38.000000566244125
0
LWPOLYLINE
5
101
100
AcDbEntity
8
0
100
AcDbPolyline
90
4
70
1
43
0.0
10
-323.9999400344272
20
151.99989592857204
10
-323.9999400344272
20
143.99989610384074
10
-318.9999400344272
20
143.99989610384074
10
-318.9999400344272
20
151.99989592857204
0
LWPOLYLINE
5
102
100
AcDbEntity
8
0
100
AcDbPolyline
90
4
70
1
43
0.0
10
-303.9999400344272
20
143.99989610384074
10
-303.9999400344272
20
151.99989592857204
10
-308.9999400344272
20
151.99989592857204
10
-308.9999400344272
20
143.99989610384074
0
LWPOLYLINE
5
103
100
AcDbEntity
8
0
100
AcDbPolyline
90
4
70
1
43
0.0
10
-334.00000497698784
20
57.000000849366188
10
-334.00000497698784
20
67.0000009983778
10
-339.00000505149364
20
67.0000009983778
10
-339.00000505149364
20
57.000000849366188
0
LWPOLYLINE
5
104
100
AcDbEntity
8
0
100
AcDbPolyline
90
4
70
1
43
0.0
10
-334.00000497698784
20
38.000000566244125
10
-334.00000497698784
20
46.000000685453415
10
-339.00000505149364
20
46.000000685453415
10
-339.00000505149364
20
38.000000566244125
0
CIRCLE
5
105
100
AcDbEntity
8
0
100
AcDbCircle
10
-291.50000434368849
20
51.500000767409801
30
0
40
1.5000000223517418
210
0
220
0
230
1
0
CIRCLE
5
106
100
AcDbEntity
8
0
100
AcDbCircle
10
-291.50000434368849
20
138.50000206381083
30
0
40
1.5000000223517418
210
0
220
0
230
1
0
CIRCLE
5
107
100
AcDbEntity
8
0
100
AcDbCircle
10
-306.50000456720591
20
138.50000206381083
30
0
40
1.5000000223517418
210
0
220
0
230
1
0
CIRCLE
5
108
100
AcDbEntity
8
0
100
AcDbCircle
10
-336.4999400344272
20
51.489388170246066
30
0
40
1.4999999999999858
210
0
220
0
230
1
0
CIRCLE
5
109
100
AcDbEntity
8
0
100
AcDbCircle
10
-306.50000456720591
20
51.500000767409801
30
0
40
1.5000000223517418
210
0
220
0
230
1
0
CIRCLE
5
110
100
AcDbEntity
8
0
100
AcDbCircle
10
-336.49999247863889
20
138.49999690428376
30
0
40
1.4999999664723871
210
0
220
0
230
1
0
CIRCLE
5
111
100
AcDbEntity
8
0
100
AcDbCircle
10
-321.50000479072332
20
138.50000206381083
30
0
40
1.5000000223517418
210
0
220
0
230
1
0
CIRCLE
5
112
100
AcDbEntity
8
0
100
AcDbCircle
10
-321.50000479072332
20
51.500000767409801
30
0
40
1.5000000223517418
210
0
220
0
230
1
0
LWPOLYLINE
5
113
100
AcDbEntity
8
0
100
AcDbPolyline
90
4
70
1
43
0.0
10
-319.00000475347042
20
57.000000849366188
10
-319.00000475347042
20
67.0000009983778
10
-324.00000482797623
20
67.0000009983778
10
-324.00000482797623
20
57.000000849366188
0
LWPOLYLINE
5
114
100
AcDbEntity
8
0
100
AcDbPolyline
90
4
70
1
43
0.0
10
-333.9999400344272
20
143.99989610384071
10
-333.9999400344272
20
151.99989592857202
10
-338.9999400344272
20
151.99989592857202
10
-338.9999400344272
20
143.99989610384071
0
LWPOLYLINE
5
115
100
AcDbEntity
8
0
100
AcDbPolyline
90
4
70
1
43
0.0
10
-309.00000460445881
20
57.000000849366188
10
-304.000004529953
20
57.000000849366188
10
-304.000004529953
20
67.0000009983778
10
-309.00000460445881
20
67.0000009983778
0
LWPOLYLINE
5
116
100
AcDbEntity
8
0
100
AcDbPolyline
90
4
70
1
43
0.0
10
-309.00000460445881
20
46.000000685453415
10
-309.00000460445881
20
38.000000566244125
10
-304.000004529953
20
38.000000566244125
10
-304.000004529953
20
46.000000685453415
0
LWPOLYLINE
5
117
100
AcDbEntity
8
0
100
AcDbPolyline
90
4
70
1
43
0.0
10
-318.9999400344272
20
132.99995832179451
10
-323.9999400344272
20
132.99995832179451
10
-323.9999400344272
20
122.99995830688971
10
-318.9999400344272
20
122.99995830688971
0
LWPOLYLINE
5
118
100
AcDbEntity
8
0
100
AcDbPolyline
90
4
70
1
43
0.0
10
-333.9999400344272
20
132.99995832179448
10
-338.9999400344272
20
132.99995832179448
10
-338.9999400344272
20
122.9999583068897
10
-333.9999400344272
20
122.9999583068897
0
LWPOLYLINE
5
119
100
AcDbEntity
8
0
100
AcDbPolyline
90
4
70
1
43
0.0
10
-303.9999400344272
20
132.99995832179451
10
-308.9999400344272
20
132.99995832179451
10
-308.9999400344272
20
122.99995830688972
10
-303.9999400344272
20
122.99995830688972
0
LWPOLYLINE
5
120
100
AcDbEntity
8
0
100
AcDbPolyline
90
4
70
1
43
0.0
10
-288.9999400344272
20
151.99990192926344
10
-293.9999400344272
20
151.99990192926344
10
-293.9999400344272
20
143.99990142977913
10
-288.9999400344272
20
143.99990142977913
0
LWPOLYLINE
5
121
100
AcDbEntity
8
0
100
AcDbPolyline
90
4
70
1
43
0.0
10
-288.9999400344272
20
132.99995995652088
10
-293.9999400344272
20
132.99995995652088
10
-293.9999400344272
20
122.99995994161611
10
-288.9999400344272
20
122.99995994161611
0
LWPOLYLINE
5
122
100
AcDbEntity
8
0
100
AcDbPolyline
90
4
70
1
43
0.0
10
-288.9999400344272
20
45.999963000724968
10
-293.9999400344272
20
45.999963000724968
10
-293.9999400344272
20
37.999963397361661
10
-288.9999400344272
20
37.999963397361668
0
LWPOLYLINE
5
123
100
AcDbEntity
8
0
100
AcDbPolyline
90
4
70
1
43
0.0
10
-288.9999400344272
20
66.999897974111448
10
-293.9999400344272
20
66.999897974111448
10
-293.9999400344272
20
56.999963864994427
10
-288.9999400344272
20
56.99996386499442
0
LWPOLYLINE
5
124
100
AcDbEntity
8
0
100
AcDbPolyline
90
25
70
1
43
0.0
10
7.9999999999999716
20
-12.000000000000002
10
-351.89327434688539
20
-12.000000000000004
42
-0.42466842026277829
10
-354.99994003456828
20
-9.0018968611368244
10
-354.99994003285644
20
156.00551421559311
42
-0.4142135623668326
10
-351.99994003289112
20
159.00551421556221
10
-286.35488426005986
20
159.00551421630536
42
-0.41421356237668672
10
-283.354884260029
20
156.00551421630448
10
-283.35488426007748
20
109.03271310047128
42
0.41421356236952978
10
-279.35488426012324
20
105.03271310046111
10
-240.26491067969079
20
105.03271310046111
10
-174.72671739435759
20
105.03452454873015
10
-164.73551669637345
20
105.03452454873016
42
-0.41421356237049672
10
-159.73551669633329
20
100.03452454881472
10
-159.73551669630018
20
99.000000418661131
42
0.41421356231654677
10
-89.735516696300238
20
29.000000432175916
10
-80.697953902738831
20
29.000000432118576
42
0.36777061123864113
10
-24.211685644683349
20
91.479354271498721
10
-14.220289856554553
20
91.479354271498721
10
-14.220289856554553
20
96.379354271498713
10
-24.248305581699334
20
96.379354271498016
42
0.31225188526733649
10
-69.044817059852548
20
155.24599559788442
42
-0.85372352781470651
10
-67.495803779643936
20
165.00000000036897
10
8.006839018963694
20
165.00000000001788
42
-0.43413554808525939
10
11.000000000000011
20
161.79754669304342
10
11.000000000000011
20
-8.9999999999999858
42
-0.41421356237309798
0
LWPOLYLINE
5
125
100
AcDbEntity
8
0
100
AcDbPolyline
90
7
70
1
43
0.0
10
-283.35488426010619
20
76.35164540957885
10
-283.35488426013148
20
40.99999743679254
42
0.41421350220309749
10
-271.35488372845339
20
29.000000432126733
10
-254.05891246908593
20
29.000000432085812
42
0.30488550185945379
10
-189.23744479344592
20
72.576955028903996
42
0.53349304314456913
10
-198.5223085899288
20
86.351645409524096
10
-273.35488426015303
20
86.351645409520813
42
0.41421356237276569
0
LWPOLYLINE
5
126
100
AcDbEntity
8
0
100
AcDbPolyline
90
4
70
1
43
0.0
10
-61.000000610947609
20
13
10
-61.000000610947609
20
18
10
-71.000000610947609
20
18
10
-71.000000610947609
20
13
0
LWPOLYLINE
5
127
100
AcDbEntity
8
0
100
AcDbPolyline
90
4
70
1
43
0.0
10
-30.004146771290028
20
13
10
-30.004146771290028
20
18
10
-40.004146771290024
20
18
10
-40.004146771290024
20
13
0
CIRCLE
5
128
100
AcDbEntity
8
0
100
AcDbCircle
10
-50.50000075250864
20
15.500000230967999
30
0
40
1.5000000223517418
210
0
220
0
230
1
0
CIRCLE
5
129
100
AcDbEntity
8
0
100
AcDbCircle
10
-170.0000025331974
20
95.000001415610313
30
0
40
1.4999999999999858
210
0
220
0
230
1
0
CIRCLE
5
130
100
AcDbEntity
8
0
100
AcDbCircle
10
-244.00000363588333
20
95.000001415610313
30
0
40
1.5000000000000213
210
0
220
0
230
1
0
LWPOLYLINE
5
131
100
AcDbEntity
8
0
100
AcDbPolyline
90
4
70
1
43
0.0
10
-212.00000061094761
20
18
10
-212.00000061094761
20
13
10
-202.00000061094761
20
13
10
-202.00000061094761
20
18
0
LWPOLYLINE
5
132
100
AcDbEntity
8
0
100
AcDbPolyline
90
4
70
1
43
0.0
10
-181.00414677129004
20
18
10
-181.00414677129004
20
13
10
-171.00414677129004
20
13
10
-171.00414677129004
20
18
0
CIRCLE
5
133
100
AcDbEntity
8
0
100
AcDbCircle
10
-191.50000285357237
20
15.500000230967999
30
0
40
1.5000000223517418
210
0
220
0
230
1
0
ENDSEC
0
SECTION
2
OBJECTS
0
DICTIONARY
5
C
100
AcDbDictionary
3
ACAD_GROUP
350
D
3
ACAD_MLINESTYLE
350
17
0
DICTIONARY
5
D
100
AcDbDictionary
0
DICTIONARY
5
1A
330
C
100
AcDbDictionary
0
DICTIONARY
5
17
100
AcDbDictionary
0
ENDSEC
0
EOF
