<?xml version="1.0" encoding="utf-8"?>
<!-- Generator: Adobe Illustrator 23.0.1, SVG Export Plug-In . SVG Version: 6.00 Build 0)  -->
<svg version="1.1" id="Layer_1" xmlns="http://www.w3.org/2000/svg" xmlns:xlink="http://www.w3.org/1999/xlink" x="0px" y="0px"
	 viewBox="0 0 2834.65 1417.32" style="enable-background:new 0 0 2834.65 1417.32;" xml:space="preserve">
<style type="text/css">
	.st0{fill:none;stroke:#000000;stroke-width:0.7087;stroke-linecap:round;stroke-linejoin:round;stroke-miterlimit:10;}
	.st1{fill:none;stroke:#000000;stroke-miterlimit:10;}
</style>
<g>
	<g id="LWPOLYLINE_18_">
		<path class="st0" d="M540.76,39.29h143.15c5.48,0,9.92,4.44,9.92,9.92v108.14c0,1.55-0.36,3.07-1.06,4.45
			c-2.46,4.9-8.42,6.87-13.32,4.41c-147.38-74.04-321.12-73.95-468.43,0.25c-1.17,0.47-2.43,0.71-3.69,0.71
			c-5.48,0-9.92-4.44-9.92-9.92c0,0,0-108.05,0-108.05c0-5.48,4.44-9.92,9.92-9.92h143.5v40.86h14.17V39.29h161.57v40.86h14.17
			V39.29z"/>
	</g>
</g>
<g>
	<g id="LWPOLYLINE_19_">
		<polygon class="st0" points="427.73,183 453.23,183 453.23,168.83 481.58,168.83 481.58,367.25 453.23,367.25 453.23,353.08 
			427.73,353.08 427.73,330.97 431.13,330.97 431.13,324.17 427.73,324.17 427.73,319.06 419.22,319.06 419.22,324.17 
			415.82,324.17 415.82,330.97 419.22,330.97 419.22,353.08 393.72,353.08 393.72,367.25 365.37,367.25 365.37,168.83 
			393.72,168.83 393.72,183 419.22,183 419.22,205.11 415.82,205.11 415.82,211.92 419.22,211.92 419.22,217.02 427.73,217.02 
			427.73,211.92 431.13,211.92 431.13,205.11 427.73,205.11 		"/>
	</g>
</g>
<g>
	<g id="CIRCLE_19_">
		<path class="st0" d="M613.28,272.12c0-8.38,6.79-15.17,15.17-15.17c8.38,0,15.17,6.79,15.17,15.17c0,8.38-6.79,15.17-15.17,15.17
			C620.07,287.29,613.28,280.5,613.28,272.12L613.28,272.12z"/>
	</g>
	<g id="LWPOLYLINE_1_">
		<polygon class="st0" points="699.31,172.91 699.31,184.25 680.04,184.25 680.04,180.85 673.23,180.85 673.23,184.25 
			668.13,184.25 668.13,192.75 673.23,192.75 673.23,196.15 680.04,196.15 680.04,192.75 712.07,192.75 712.07,209.76 
			699.31,209.76 699.31,257.95 679.47,257.95 679.47,286.29 699.31,286.29 699.31,340.15 712.07,340.15 712.07,354.33 
			680.04,354.33 680.04,350.92 673.23,350.92 673.23,354.33 668.13,354.33 668.13,362.83 673.23,362.83 673.23,366.23 
			680.04,366.23 680.04,362.83 699.31,362.83 699.31,377 557.58,377 557.58,362.83 576.85,362.83 576.85,366.23 583.66,366.23 
			583.66,362.83 588.76,362.83 588.76,354.33 583.66,354.33 583.66,350.92 576.85,350.92 576.85,354.33 544.82,354.33 
			544.82,340.15 557.58,340.15 557.58,286.29 577.42,286.29 577.42,257.95 557.58,257.95 557.58,209.76 544.82,209.76 
			544.82,192.75 576.85,192.75 576.85,196.15 583.66,196.15 583.66,192.75 588.76,192.75 588.76,184.25 583.66,184.25 
			583.66,180.85 576.85,180.85 576.85,184.25 557.58,184.25 557.58,172.91 		"/>
	</g>
</g>
<g>
	<g id="CIRCLE_24_">
		<path class="st0" d="M840.51,262.62c0-2.35,1.9-4.25,4.25-4.25c2.35,0,4.25,1.9,4.25,4.25s-1.9,4.25-4.25,4.25
			C842.41,266.87,840.51,264.96,840.51,262.62L840.51,262.62z"/>
	</g>
	<g id="CIRCLE_23_">
		<path class="st0" d="M768.22,218.68c0-18,14.59-32.6,32.6-32.6c18,0,32.6,14.59,32.6,32.6s-14.59,32.6-32.6,32.6
			C782.82,251.28,768.22,236.68,768.22,218.68L768.22,218.68z"/>
	</g>
	<g id="CIRCLE_22_">
		<path class="st0" d="M752.63,262.62c0-2.35,1.9-4.25,4.25-4.25c2.35,0,4.25,1.9,4.25,4.25s-1.9,4.25-4.25,4.25
			C754.54,266.87,752.63,264.96,752.63,262.62L752.63,262.62z"/>
	</g>
	<g id="CIRCLE_21_">
		<path class="st0" d="M840.51,174.74c0-2.35,1.9-4.25,4.25-4.25c2.35,0,4.25,1.9,4.25,4.25s-1.9,4.25-4.25,4.25
			C842.41,178.99,840.51,177.09,840.51,174.74L840.51,174.74z"/>
	</g>
	<g id="CIRCLE_20_">
		<path class="st0" d="M752.63,174.74c0-2.35,1.9-4.25,4.25-4.25c2.35,0,4.25,1.9,4.25,4.25s-1.9,4.25-4.25,4.25
			C754.54,178.99,752.63,177.09,752.63,174.74L752.63,174.74z"/>
	</g>
	<g id="LWPOLYLINE_2_">
		<polygon class="st0" points="885.86,303.22 849.58,303.22 849.58,299.81 842.78,299.81 842.78,303.22 840.51,303.22 
			840.51,311.72 842.78,311.72 842.78,315.12 849.58,315.12 849.58,311.72 885.86,311.72 885.86,328.73 715.78,328.73 
			715.78,311.72 752.07,311.72 752.07,315.12 758.87,315.12 758.87,311.72 761.14,311.72 761.14,303.22 758.87,303.22 
			758.87,299.81 752.07,299.81 752.07,303.22 715.78,303.22 701.61,303.22 701.61,277.7 732.79,277.7 732.79,158.65 701.61,158.65 
			701.61,133.14 752.07,133.14 752.07,136.54 758.87,136.54 758.87,133.14 761.14,133.14 761.14,124.63 758.87,124.63 
			758.87,121.23 752.07,121.23 752.07,124.63 715.78,124.63 715.78,107.63 885.86,107.63 885.86,124.63 849.58,124.63 
			849.58,121.23 842.78,121.23 842.78,124.63 840.51,124.63 840.51,133.14 842.78,133.14 842.78,136.54 849.58,136.54 
			849.58,133.14 900.04,133.14 900.04,158.65 868.85,158.65 868.85,277.7 900.04,277.7 900.04,303.22 		"/>
	</g>
</g>
<g>
	<g id="CIRCLE_5_">
		<path class="st0" d="M265.44,315.06c0-8.38,6.79-15.17,15.17-15.17c8.38,0,15.17,6.79,15.17,15.17c0,8.38-6.79,15.17-15.17,15.17
			C272.23,330.22,265.44,323.43,265.44,315.06L265.44,315.06z"/>
	</g>
	<g id="CIRCLE_4_">
		<path class="st0" d="M260.06,298.76c0-2.35,1.9-4.25,4.25-4.25s4.25,1.9,4.25,4.25s-1.9,4.25-4.25,4.25
			S260.06,301.11,260.06,298.76L260.06,298.76z"/>
	</g>
	<g id="CIRCLE_3_">
		<path class="st0" d="M260.06,331.36c0-2.35,1.9-4.25,4.25-4.25s4.25,1.9,4.25,4.25s-1.9,4.25-4.25,4.25
			S260.06,333.7,260.06,331.36L260.06,331.36z"/>
	</g>
	<g id="CIRCLE_2_">
		<path class="st0" d="M292.65,298.76c0-2.35,1.9-4.25,4.25-4.25s4.25,1.9,4.25,4.25s-1.9,4.25-4.25,4.25
			S292.65,301.11,292.65,298.76L292.65,298.76z"/>
	</g>
	<g id="CIRCLE_1_">
		<path class="st0" d="M292.65,331.36c0-2.35,1.9-4.25,4.25-4.25s4.25,1.9,4.25,4.25s-1.9,4.25-4.25,4.25
			S292.65,333.7,292.65,331.36L292.65,331.36z"/>
	</g>
	<g id="LWPOLYLINE_3_">
		<polygon class="st0" points="229.02,360.41 229.02,363.81 235.82,363.81 235.82,360.41 240.92,360.41 240.92,351.91 
			235.82,351.91 235.82,348.51 229.02,348.51 229.02,351.91 196.99,351.91 196.99,337.73 209.74,337.73 209.74,329.23 
			229.58,329.23 229.58,300.88 209.74,300.88 209.74,292.38 196.99,292.38 196.99,278.21 229.02,278.21 229.02,281.61 
			235.82,281.61 235.82,278.21 240.92,278.21 240.92,269.7 235.82,269.7 235.82,266.3 229.02,266.3 229.02,269.7 209.74,269.7 
			209.74,258.36 351.47,258.36 351.47,269.7 332.2,269.7 332.2,266.3 325.39,266.3 325.39,269.7 320.29,269.7 320.29,278.21 
			325.39,278.21 325.39,281.61 332.2,281.61 332.2,278.21 364.23,278.21 364.23,292.38 351.47,292.38 351.47,300.88 331.63,300.88 
			331.63,329.23 351.47,329.23 351.47,337.73 364.23,337.73 364.23,351.91 332.2,351.91 332.2,348.51 325.39,348.51 325.39,351.91 
			320.29,351.91 320.29,360.41 325.39,360.41 325.39,363.81 332.2,363.81 332.2,360.41 351.47,360.41 351.47,380.25 209.74,380.25 
			209.74,360.41 		"/>
	</g>
</g>
<g>
	<g id="LWPOLYLINE_24_">
		<path class="st0" d="M1023.47,450.14h65.17c6.26,0,11.34-5.08,11.34-11.34c0,0,0-371.49,0-371.49c0-6.26,5.08-11.34,11.34-11.34
			h90.74c6.26,0,11.34,5.08,11.34,11.34V438.8c0,6.26,5.08,11.34,11.34,11.34h59.53c6.26,0,11.34,5.08,11.34,11.34V577.7
			c-80.69,72.21-202.77,72.21-283.46,0V461.48C1012.13,455.22,1017.2,450.14,1023.47,450.14z"/>
	</g>
	<g id="LWPOLYLINE_23_">
		<path class="st0" d="M1145.36,95.81C1145.36,95.81,1145.36,95.81,1145.36,95.81c0-6.27,5.08-11.34,11.34-11.34
			c6.26,0,11.34,5.08,11.33,11.34v504.56c0,6.26-5.08,11.34-11.34,11.34c-6.26,0-11.34-5.08-11.34-11.34V95.81z"/>
	</g>
	<g id="LWPOLYLINE_22_">
		<path class="st0" d="M1193.55,434.55v-7.09h-14.17v14.17h14.17V434.55c0,2.35,1.9,4.25,4.25,4.25c2.35,0,4.25-1.9,4.25-4.25
			s-1.9-4.25-4.25-4.25C1195.45,430.3,1193.55,432.2,1193.55,434.55z"/>
	</g>
	<g id="CIRCLE_6_">
		<path class="st0" d="M1240.32,574.87c2.35,0,4.25,1.9,4.25,4.25c0,2.35-1.9,4.25-4.25,4.25c-2.35,0-4.25-1.9-4.25-4.25
			C1236.07,576.77,1237.97,574.87,1240.32,574.87L1240.32,574.87z"/>
	</g>
	<g id="LWPOLYLINE_21_">
		<polygon class="st0" points="1236.07,586.2 1236.07,579.12 1236.07,572.03 1219.06,572.03 1219.06,586.2 		"/>
	</g>
	<g id="LWPOLYLINE_20_">
		<rect x="1119.84" y="427.46" class="st0" width="14.17" height="14.17"/>
	</g>
	<g id="LWPOLYLINE_4_">
		<rect x="1074.49" y="572.03" class="st0" width="14.17" height="14.17"/>
	</g>
</g>
<g>
	<g id="LWPOLYLINE_25_">
		<polygon class="st0" points="39.81,155.9 53.98,155.9 53.98,130.39 46.89,130.39 39.81,130.39 		"/>
	</g>
	<g id="CIRCLE_26_">
		<path class="st0" d="M42.64,126.14c0-2.35,1.9-4.25,4.25-4.25c2.35,0,4.25,1.9,4.25,4.25s-1.9,4.25-4.25,4.25
			C44.55,130.39,42.64,128.49,42.64,126.14L42.64,126.14z"/>
	</g>
	<g id="LWPOLYLINE_10_">
		<polygon class="st0" points="46.89,300.47 53.98,300.47 53.98,274.96 39.81,274.96 39.81,300.47 		"/>
	</g>
	<g id="CIRCLE_25_">
		<path class="st0" d="M42.64,304.72c0-2.35,1.9-4.25,4.25-4.25s4.25,1.9,4.25,4.25s-1.9,4.25-4.25,4.25S42.64,307.07,42.64,304.72
			L42.64,304.72z"/>
	</g>
	<g id="LWPOLYLINE_9_">
		<path class="st0" d="M39.81,484.72c-4.7,0-8.5-3.81-8.5-8.5V68.01c0-4.7,3.81-8.5,8.5-8.5h143.54c4.7,0,8.5,3.81,8.5,8.5v119.07
			h122.16c7.83,0,14.17,6.35,14.17,14.17v28.35c0,7.83-6.35,14.17-14.17,14.17H191.85c0,0,0,123.72,0,123.72
			c0,18.79,15.23,34.02,34.02,34.02c0,0,219.52,0,219.52,0c21.92,0,39.69-17.77,39.69-39.69V201.21c0-7.83,6.35-14.17,14.17-14.17
			h28.33c7.83,0,14.17,6.35,14.17,14.17v160.62c0,21.92,17.77,39.69,39.68,39.69h157.42c100.12,1.58,183.18-77.08,187.03-177.14
			h28.35V210.2h-28.35c-3.53-91.81-74.17-166.99-165.59-176.23c-4.34-0.44-7.65-4.1-7.65-8.46c0-4.7,3.81-8.5,8.5-8.5h225.42
			c4.7,0,8.5,3.81,8.5,8.5v450.71c0,4.7-3.81,8.5-8.5,8.5C986.58,484.72,39.81,484.72,39.81,484.72z"/>
	</g>
	<g id="CIRCLE_11_">
		<path class="st0" d="M161.7,304.72c0-2.35,1.9-4.25,4.25-4.25s4.25,1.9,4.25,4.25s-1.9,4.25-4.25,4.25S161.7,307.07,161.7,304.72
			L161.7,304.72z"/>
	</g>
	<g id="LWPOLYLINE_8_">
		<polygon class="st0" points="158.86,300.47 165.95,300.47 173.04,300.47 173.04,274.96 158.86,274.96 		"/>
	</g>
	<g id="CIRCLE_10_">
		<path class="st0" d="M299.18,215.43c0-2.35,1.9-4.25,4.25-4.25s4.25,1.9,4.25,4.25s-1.9,4.25-4.25,4.25
			S299.18,217.78,299.18,215.43L299.18,215.43z"/>
	</g>
	<g id="CIRCLE_9_">
		<path class="st0" d="M161.7,126.14c0-2.35,1.9-4.25,4.25-4.25s4.25,1.9,4.25,4.25s-1.9,4.25-4.25,4.25S161.7,128.49,161.7,126.14
			L161.7,126.14z"/>
	</g>
	<g id="LWPOLYLINE_7_">
		<polygon class="st0" points="173.04,130.39 165.95,130.39 158.86,130.39 158.86,155.9 173.04,155.9 		"/>
	</g>
	<g id="CIRCLE_8_">
		<path class="st0" d="M508.94,215.43c0-2.35,1.9-4.25,4.25-4.25c2.35,0,4.25,1.9,4.25,4.25s-1.9,4.25-4.25,4.25
			C510.84,219.68,508.94,217.78,508.94,215.43L508.94,215.43z"/>
	</g>
	<g id="CIRCLE_7_">
		<path class="st0" d="M847.68,440.78c0-2.35,1.9-4.25,4.25-4.25c2.35,0,4.25,1.9,4.25,4.25s-1.9,4.25-4.25,4.25
			C849.59,445.03,847.68,443.13,847.68,440.78L847.68,440.78z"/>
	</g>
	<g id="LWPOLYLINE_6_">
		<rect x="881.69" y="433.7" class="st0" width="28.35" height="14.17"/>
	</g>
	<g id="LWPOLYLINE_5_">
		<rect x="793.82" y="433.7" class="st0" width="28.35" height="14.17"/>
	</g>
</g>
<g>
	<g id="LWPOLYLINE_17_">
		<polygon class="st0" points="39.81,666.45 53.98,666.45 53.98,640.94 46.89,640.94 39.81,640.94 		"/>
	</g>
	<g id="CIRCLE_18_">
		<path class="st0" d="M42.64,636.69c0-2.35,1.9-4.25,4.25-4.25c2.35,0,4.25,1.9,4.25,4.25c0,2.35-1.9,4.25-4.25,4.25
			C44.55,640.94,42.64,639.04,42.64,636.69L42.64,636.69z"/>
	</g>
	<g id="LWPOLYLINE_16_">
		<polygon class="st0" points="46.89,811.02 53.98,811.02 53.98,785.51 39.81,785.51 39.81,811.02 		"/>
	</g>
	<g id="CIRCLE_17_">
		<path class="st0" d="M42.64,815.27c0-2.35,1.9-4.25,4.25-4.25s4.25,1.9,4.25,4.25c0,2.35-1.9,4.25-4.25,4.25
			S42.64,817.62,42.64,815.27L42.64,815.27z"/>
	</g>
	<g id="LWPOLYLINE_15_">
		<path class="st0" d="M39.81,995.27c-4.7,0-8.5-3.81-8.5-8.5v-408.2c0-4.7,3.81-8.5,8.5-8.5h143.54c4.7,0,8.5,3.81,8.5,8.5v119.07
			h122.16c7.83,0,14.17,6.35,14.17,14.17v28.35c0,7.83-6.35,14.17-14.17,14.17H191.85c0,0,0,123.72,0,123.72
			c0,18.79,15.23,34.02,34.02,34.02c0,0,219.52,0,219.52,0c21.92,0,39.69-17.77,39.69-39.68V711.76c0-7.83,6.35-14.17,14.17-14.17
			h28.33c7.83,0,14.17,6.35,14.17,14.17v160.62c0,21.92,17.77,39.68,39.68,39.68h157.42c100.12,1.58,183.18-77.08,187.03-177.14
			h28.35v-14.17h-28.35c-3.53-91.81-74.17-166.99-165.59-176.23c-4.34-0.44-7.65-4.1-7.65-8.46c0-4.7,3.81-8.5,8.5-8.5h225.42
			c4.7,0,8.5,3.81,8.5,8.5v450.71c0,4.7-3.81,8.5-8.5,8.5C986.58,995.27,39.81,995.27,39.81,995.27z"/>
	</g>
	<g id="CIRCLE_16_">
		<path class="st0" d="M161.7,815.27c0-2.35,1.9-4.25,4.25-4.25s4.25,1.9,4.25,4.25c0,2.35-1.9,4.25-4.25,4.25
			S161.7,817.62,161.7,815.27L161.7,815.27z"/>
	</g>
	<g id="LWPOLYLINE_14_">
		<polygon class="st0" points="158.86,811.02 165.95,811.02 173.04,811.02 173.04,785.51 158.86,785.51 		"/>
	</g>
	<g id="CIRCLE_15_">
		<path class="st0" d="M299.18,725.98c0-2.35,1.9-4.25,4.25-4.25s4.25,1.9,4.25,4.25c0,2.35-1.9,4.25-4.25,4.25
			S299.18,728.33,299.18,725.98L299.18,725.98z"/>
	</g>
	<g id="CIRCLE_14_">
		<path class="st0" d="M161.7,636.69c0-2.35,1.9-4.25,4.25-4.25s4.25,1.9,4.25,4.25c0,2.35-1.9,4.25-4.25,4.25
			S161.7,639.04,161.7,636.69L161.7,636.69z"/>
	</g>
	<g id="LWPOLYLINE_13_">
		<polygon class="st0" points="173.04,640.94 165.95,640.94 158.86,640.94 158.86,666.45 173.04,666.45 		"/>
	</g>
	<g id="CIRCLE_13_">
		<path class="st0" d="M508.94,725.98c0-2.35,1.9-4.25,4.25-4.25c2.35,0,4.25,1.9,4.25,4.25c0,2.35-1.9,4.25-4.25,4.25
			C510.84,730.23,508.94,728.33,508.94,725.98L508.94,725.98z"/>
	</g>
	<g id="CIRCLE_12_">
		<path class="st0" d="M847.68,951.33c0-2.35,1.9-4.25,4.25-4.25c2.35,0,4.25,1.9,4.25,4.25c0,2.35-1.9,4.25-4.25,4.25
			C849.59,955.59,847.68,953.68,847.68,951.33L847.68,951.33z"/>
	</g>
	<g id="LWPOLYLINE_12_">
		<rect x="881.69" y="944.25" class="st0" width="28.35" height="14.17"/>
	</g>
	<g id="LWPOLYLINE_11_">
		<rect x="793.82" y="944.25" class="st0" width="28.35" height="14.17"/>
	</g>
</g>
<g>
	<g id="LWPOLYLINE_31_">
		<path class="st0" d="M592.5,767.08v-65.17c0-6.26-5.08-11.34-11.34-11.34c0,0-371.49,0-371.49,0c-6.26,0-11.34-5.08-11.34-11.34
			V588.5c0-6.26,5.08-11.34,11.34-11.34h371.49c6.26,0,11.34-5.08,11.34-11.34v-59.53c0-6.26,5.08-11.34,11.34-11.34h116.22
			c72.21,80.69,72.21,202.77,0,283.46H603.84C597.58,778.42,592.5,773.34,592.5,767.08z"/>
	</g>
	<g id="LWPOLYLINE_30_">
		<path class="st0" d="M238.17,645.19C238.17,645.19,238.17,645.19,238.17,645.19c-6.27,0-11.34-5.08-11.34-11.34
			s5.08-11.34,11.34-11.33h504.56c6.26,0,11.34,5.08,11.34,11.34c0,6.26-5.08,11.34-11.34,11.34H238.17z"/>
	</g>
	<g id="LWPOLYLINE_29_">
		<path class="st0" d="M576.91,597h-7.09v14.17H584V597H576.91c2.35,0,4.25-1.9,4.25-4.25c0-2.35-1.9-4.25-4.25-4.25
			c-2.35,0-4.25,1.9-4.25,4.25C572.66,595.1,574.56,597,576.91,597z"/>
	</g>
	<g id="CIRCLE_27_">
		<path class="st0" d="M717.23,550.23c0-2.35,1.9-4.25,4.25-4.25c2.35,0,4.25,1.9,4.25,4.25c0,2.35-1.9,4.25-4.25,4.25
			C719.13,554.48,717.23,552.58,717.23,550.23L717.23,550.23z"/>
	</g>
	<g id="LWPOLYLINE_28_">
		<polygon class="st0" points="728.56,554.48 721.48,554.48 714.39,554.48 714.39,571.49 728.56,571.49 		"/>
	</g>
	<g id="LWPOLYLINE_27_">
		<rect x="569.82" y="656.53" class="st0" width="14.17" height="14.17"/>
	</g>
	<g id="LWPOLYLINE_26_">
		<rect x="714.39" y="701.88" class="st0" width="14.17" height="14.17"/>
	</g>
</g>
<rect x="0" y="-1460.36" class="st1" width="2834.65" height="1417.32"/>
</svg>
