0
SECTION
2
HEADER
9
$INSUNITS
70
4
9
$ACADVER
1
AC1014
9
$HANDSEED
5
FFFF
0
ENDSEC
0
SECTION
2
TABLES
0
TABLE
2
VPORT
5
8
100
AcDbSymbolTable
0
ENDTAB
0
TABLE
2
LTYPE
5
5
100
AcDbSymbolTable
0
LTYPE
5
14
100
AcDbSymbolTableRecord
100
AcDbLinetypeTableRecord
2
BYBLOCK
70
0
0
LTYPE
5
15
100
AcDbSymbolTableRecord
100
AcDbLinetypeTableRecord
2
BYLAYER
70
0
0
ENDTAB
0
TABLE
2
LAYER
5
2
100
AcDbSymbolTable
70
2
0
LAYER
5
50
100
AcDbSymbolTableRecord
100
AcDbLayerTableRecord
2
0
70
0
6
CONTINUOUS
0
ENDTAB
0
TABLE
2
STYLE
5
3
100
AcDbSymbolTable
70
1
0
STYLE
5
11
100
AcDbSymbolTableRecord
100
AcDbTextStyleTableRecord
2
STANDARD
70
0
0
ENDTAB
0
TABLE
2
VIEW
5
6
100
AcDbSymbolTable
70
0
0
ENDTAB
0
TABLE
2
UCS
5
7
100
AcDbSymbolTable
70
0
0
ENDTAB
0
TABLE
2
APPID
5
9
100
AcDbSymbolTable
70
2
0
APPID
5
12
100
AcDbSymbolTableRecord
100
AcDbRegAppTableRecord
2
ACAD
70
0
0
ENDTAB
0
TABLE
2
DIMSTYLE
5
A
100
AcDbSymbolTable
70
1
0
ENDTAB
0
TABLE
2
BLOCK_RECORD
5
1
100
AcDbSymbolTable
70
1
0
BLOCK_RECORD
5
1F
100
AcDbSymbolTableRecord
100
AcDbBlockTableRecord
2
*MODEL_SPACE
0
BLOCK_RECORD
5
1B
100
AcDbSymbolTableRecord
100
AcDbBlockTableRecord
2
*PAPER_SPACE
0
ENDTAB
0
ENDSEC
0
SECTION
2
BLOCKS
0
BLOCK
5
20
100
AcDbEntity
100
AcDbBlockBegin
2
*MODEL_SPACE
0
ENDBLK
5
21
100
AcDbEntity
100
AcDbBlockEnd
0
BLOCK
5
1C
100
AcDbEntity
100
AcDbBlockBegin
2
*PAPER_SPACE
0
ENDBLK
5
1D
100
AcDbEntity
100
AcDbBlockEnd
0
ENDSEC
0
SECTION
2
ENTITIES
0
LWPOLYLINE
5
100
100
AcDbEntity
8
0
100
AcDbPolyline
90
36
70
1
43
0.0
10
52.00207369111881
20
67.0000009983778
10
61.000000610947609
20
67.0000009983778
10
61.000000610947609
20
72.000001072883606
10
71.000000610947609
20
72.000001072883606
10
71.000000610947609
20
1.9999999999999996
10
61.000000610947609
20
1.9999999999999996
10
61.000000610947609
20
7
10
52.00207369111881
20
7
10
52.00207369111881
20
14.799999999999997
10
53.202073691118827
20
14.799999999999997
10
53.202073691118827
20
17.199999999999999
10
52.00207369111881
20
17.199999999999999
10
52.00207369111881
20
19
10
49.002073691118824
20
19
10
49.002073691118824
20
17.199999999999999
10
47.802073691118814
20
17.199999999999999
10
47.802073691118814
20
14.799999999999997
10
49.002073691118824
20
14.799999999999997
10
49.002073691118824
20
7
10
40.004146771290024
20
7
10
40.004146771290024
20
2
10
30.004146771290028
20
2.0000000000000018
10
30.004146771290028
20
72.0000009983778
10
40.004146771290024
20
72.0000009983778
10
40.004146771290024
20
67.0000009983778
10
49.002073691118824
20
67.0000009983778
10
49.002073691118824
20
59.200000998377803
10
47.802073691118814
20
59.200000998377803
10
47.802073691118814
20
56.800000998377804
10
49.002073691118824
20
56.800000998377804
10
49.002073691118824
20
55.000000998377807
10
52.00207369111881
20
55.000000998377807
10
52.00207369111881
20
56.800000998377804
10
53.202073691118827
20
56.800000998377804
10
53.202073691118827
20
59.200000998377803
10
52.00207369111881
20
59.200000998377803
0
ENDSEC
0
SECTION
2
OBJECTS
0
DICTIONARY
5
C
100
AcDbDictionary
3
ACAD_GROUP
350
D
3
ACAD_MLINESTYLE
350
17
0
DICTIONARY
5
D
100
AcDbDictionary
0
DICTIONARY
5
1A
330
C
100
AcDbDictionary
0
DICTIONARY
5
17
100
AcDbDictionary
0
ENDSEC
0
EOF
