0
SECTION
2
HEADER
9
$INSUNITS
70
4
9
$ACADVER
1
AC1014
9
$HANDSEED
5
FFFF
0
ENDSEC
0
SECTION
2
TABLES
0
TABLE
2
VPORT
5
8
100
AcDbSymbolTable
0
ENDTAB
0
TABLE
2
LTYPE
5
5
100
AcDbSymbolTable
0
LTYPE
5
14
100
AcDbSymbolTableRecord
100
AcDbLinetypeTableRecord
2
BYBLOCK
70
0
0
LTYPE
5
15
100
AcDbSymbolTableRecord
100
AcDbLinetypeTableRecord
2
BYLAYER
70
0
0
ENDTAB
0
TABLE
2
LAYER
5
2
100
AcDbSymbolTable
70
2
0
LAYER
5
50
100
AcDbSymbolTableRecord
100
AcDbLayerTableRecord
2
0
70
0
6
CONTINUOUS
0
ENDTAB
0
TABLE
2
STYLE
5
3
100
AcDbSymbolTable
70
1
0
STYLE
5
11
100
AcDbSymbolTableRecord
100
AcDbTextStyleTableRecord
2
STANDARD
70
0
0
ENDTAB
0
TABLE
2
VIEW
5
6
100
AcDbSymbolTable
70
0
0
ENDTAB
0
TABLE
2
UCS
5
7
100
AcDbSymbolTable
70
0
0
ENDTAB
0
TABLE
2
APPID
5
9
100
AcDbSymbolTable
70
2
0
APPID
5
12
100
AcDbSymbolTableRecord
100
AcDbRegAppTableRecord
2
ACAD
70
0
0
ENDTAB
0
TABLE
2
DIMSTYLE
5
A
100
AcDbSymbolTable
70
1
0
ENDTAB
0
TABLE
2
BLOCK_RECORD
5
1
100
AcDbSymbolTable
70
1
0
BLOCK_RECORD
5
1F
100
AcDbSymbolTableRecord
100
AcDbBlockTableRecord
2
*MODEL_SPACE
0
BLOCK_RECORD
5
1B
100
AcDbSymbolTableRecord
100
AcDbBlockTableRecord
2
*PAPER_SPACE
0
ENDTAB
0
ENDSEC
0
SECTION
2
BLOCKS
0
BLOCK
5
20
100
AcDbEntity
100
AcDbBlockBegin
2
*MODEL_SPACE
0
ENDBLK
5
21
100
AcDbEntity
100
AcDbBlockEnd
0
BLOCK
5
1C
100
AcDbEntity
100
AcDbBlockBegin
2
*PAPER_SPACE
0
ENDBLK
5
1D
100
AcDbEntity
100
AcDbBlockEnd
0
ENDSEC
0
SECTION
2
ENTITIES
0
CIRCLE
5
100
100
AcDbEntity
8
0
100
AcDbCircle
10
-37.000000506639481
20
95.000001694039199
30
0
40
5.3499999999999925
210
-0
220
0
230
1
0
LWPOLYLINE
5
101
100
AcDbEntity
8
0
100
AcDbPolyline
90
68
70
1
43
0.0
10
-12.000000178813934
20
130.00000205166708
10
-12.000000178813934
20
126.00000205166728
10
-18.800000768788685
20
126.00000205166728
10
-18.800000774887799
20
127.20000199951318
10
-21.200000774887798
20
127.20000199951318
10
-21.200000774881708
20
126.00000205166728
10
-23.000000834465023
20
126.00000205166728
10
-23.000000834465023
20
123.0000019473591
10
-21.200000774866478
20
123.0000019473591
10
-21.200000774860381
20
121.80000200591556
10
-18.800000768788685
20
121.80000200591556
10
-18.800000768788685
20
123.0000019473591
10
-7.5000000894069663
20
123.00000193245782
10
-7.5000000894069663
20
117.00000181324855
10
-12.000000178813934
20
117.0000018132485
10
-12.000000178813934
20
100.000001768545
10
-19.000000208616257
20
100.00000176854506
10
-19.000000208616257
20
90.00000161953345
10
-12.000000178813934
20
90.000001619533393
10
-12.000000178813934
20
71.000001574829923
10
-7.5000000894069663
20
71.000001574829966
10
-7.5000000894069663
20
66.000001455620691
10
-18.800000774301093
20
66.000002051667281
10
-18.800000774887771
20
67.200001999513177
10
-21.200000774887773
20
67.200001999513177
10
-21.200000774881687
20
66.000002051667281
10
-23.000000834465023
20
66.000002051667281
10
-23.000000834465023
20
63.000001947359095
10
-21.200000774866474
20
63.000001947359095
10
-21.200000774860385
20
61.800001999513192
10
-18.800000773586873
20
61.800001999921321
10
-18.800000773790938
20
63.000001947359095
10
-12.000000178813934
20
63.000001947359095
10
-12.000000178813934
20
58.000001336411401
10
-62.000000834465027
20
58.000001336411401
10
-62.000000834465027
20
63.000001947359046
10
-55.20000077486646
20
63.000001947359046
10
-55.200000774860385
20
61.800001999513142
10
-52.800000774336617
20
61.800001999769592
10
-52.800000774459079
20
63.000001947359046
10
-51.000000774860382
20
63.000001947359046
10
-51.000000774860382
20
66.000002051667224
10
-52.800000774785417
20
66.000002051667224
10
-52.800000774887714
20
67.200001999513134
10
-55.200000774887712
20
67.200001999513134
10
-55.200000774881637
20
66.000002051667224
10
-66.500000923871994
20
66.000001455620691
10
-66.500000923871994
20
71.000001574829966
10
-62.000000834465027
20
71.000001574829966
10
-62.000000834465027
20
90.00000161953345
10
-55.000000804662704
20
90.00000161953345
10
-55.000000804662704
20
100.00000176854506
10
-62.000000834465027
20
100.00000176854506
10
-62.000000834465027
20
117.00000181324855
10
-66.500000923871994
20
117.00000181324855
10
-66.500000923871994
20
123.00000193245782
10
-55.2000007748725
20
123.00000194735904
10
-55.200000774860385
20
121.80000199951314
10
-52.800000774315464
20
121.80000199978004
10
-52.800000774448677
20
123.00000194735904
10
-51.000000774860382
20
123.00000194735904
10
-51.000000774860382
20
126.00000205166722
10
-52.800000774782553
20
126.00000205166722
10
-52.80000077491492
20
127.20000199951313
10
-55.200000774914919
20
127.20000199951313
10
-55.200000774902804
20
126.00000205166722
10
-62.000000834465027
20
126.00000205166722
10
-62.000000834465027
20
130.00000205166711
0
ENDSEC
0
SECTION
2
OBJECTS
0
DICTIONARY
5
C
100
AcDbDictionary
3
ACAD_GROUP
350
D
3
ACAD_MLINESTYLE
350
17
0
DICTIONARY
5
D
100
AcDbDictionary
0
DICTIONARY
5
1A
330
C
100
AcDbDictionary
0
DICTIONARY
5
17
100
AcDbDictionary
0
ENDSEC
0
EOF
